<mxfile host="app.diagrams.net" agent="Mozilla/5.0 (Macintosh; Intel Mac OS X 10_15_7) AppleWebKit/537.36 (KHTML, like Gecko) Chrome/139.0.0.0 Safari/537.36 Edg/139.0.0.0" version="28.0.9" pages="2">
  <diagram name="CareConvene" id="kbnUAH724Em1v42zN59l">
    <mxGraphModel dx="1748" dy="1052" grid="1" gridSize="10" guides="1" tooltips="1" connect="0" arrows="1" fold="1" page="1" pageScale="1" pageWidth="850" pageHeight="1100" math="0" shadow="0">
      <root>
        <mxCell id="kfbQjCIQF7K4VHMFwIz1-0" />
        <mxCell id="kfbQjCIQF7K4VHMFwIz1-1" parent="kfbQjCIQF7K4VHMFwIz1-0" />
        <mxCell id="kfbQjCIQF7K4VHMFwIz1-2" style="edgeStyle=orthogonalEdgeStyle;rounded=0;orthogonalLoop=1;jettySize=auto;html=1;flowAnimation=1;fillColor=#d5e8d4;strokeColor=#82b366;strokeWidth=3;" parent="kfbQjCIQF7K4VHMFwIz1-1" source="kfbQjCIQF7K4VHMFwIz1-3" target="kfbQjCIQF7K4VHMFwIz1-17" edge="1">
          <mxGeometry relative="1" as="geometry" />
        </mxCell>
        <mxCell id="kfbQjCIQF7K4VHMFwIz1-3" value="ADLS GEN2" style="whiteSpace=wrap;html=1;fillColor=#dae8fc;strokeColor=#6c8ebf;" parent="kfbQjCIQF7K4VHMFwIz1-1" vertex="1">
          <mxGeometry x="500" y="375" width="110" height="60" as="geometry" />
        </mxCell>
        <mxCell id="kfbQjCIQF7K4VHMFwIz1-4" value="&lt;span data-lucid-content=&quot;{&amp;quot;t&amp;quot;:&amp;quot;Ingest &amp;amp; Transform: Delta Live Tables | Orchestration: Databricks Workflows&amp;quot;,&amp;quot;m&amp;quot;:[{&amp;quot;s&amp;quot;:0,&amp;quot;n&amp;quot;:&amp;quot;b&amp;quot;,&amp;quot;v&amp;quot;:true,&amp;quot;e&amp;quot;:19},{&amp;quot;s&amp;quot;:0,&amp;quot;n&amp;quot;:&amp;quot;c&amp;quot;,&amp;quot;v&amp;quot;:&amp;quot;#000000ff&amp;quot;,&amp;quot;e&amp;quot;:75},{&amp;quot;s&amp;quot;:0,&amp;quot;n&amp;quot;:&amp;quot;fc&amp;quot;,&amp;quot;v&amp;quot;:&amp;quot;Bold&amp;quot;,&amp;quot;e&amp;quot;:19},{&amp;quot;s&amp;quot;:0,&amp;quot;n&amp;quot;:&amp;quot;fid&amp;quot;,&amp;quot;v&amp;quot;:947014,&amp;quot;e&amp;quot;:19},{&amp;quot;s&amp;quot;:0,&amp;quot;n&amp;quot;:&amp;quot;fsp&amp;quot;,&amp;quot;v&amp;quot;:&amp;quot;ss_presetShapeStyle1_textStyle&amp;quot;,&amp;quot;e&amp;quot;:75},{&amp;quot;s&amp;quot;:0,&amp;quot;n&amp;quot;:&amp;quot;s&amp;quot;,&amp;quot;v&amp;quot;:22.22222222222222,&amp;quot;e&amp;quot;:75},{&amp;quot;s&amp;quot;:40,&amp;quot;n&amp;quot;:&amp;quot;b&amp;quot;,&amp;quot;v&amp;quot;:true,&amp;quot;e&amp;quot;:53},{&amp;quot;s&amp;quot;:40,&amp;quot;n&amp;quot;:&amp;quot;fc&amp;quot;,&amp;quot;v&amp;quot;:&amp;quot;Bold&amp;quot;,&amp;quot;e&amp;quot;:53},{&amp;quot;s&amp;quot;:40,&amp;quot;n&amp;quot;:&amp;quot;fid&amp;quot;,&amp;quot;v&amp;quot;:947014,&amp;quot;e&amp;quot;:53}]}&quot; data-lucid-type=&quot;application/vnd.lucid.text&quot;&gt;&lt;font style=&quot;font-size: 11px;&quot;&gt;&lt;span style=&quot;font-weight: bold;&quot;&gt;Ingest &amp;amp; Transform:&lt;/span&gt; Delta Live Tables | &lt;span style=&quot;font-weight: bold;&quot;&gt;Orchestration&lt;/span&gt;: Databricks Workflows&lt;/font&gt;&lt;/span&gt;" style="rounded=1;whiteSpace=wrap;html=1;absoluteArcSize=1;arcSize=14;strokeWidth=2;fillColor=#eeeeee;strokeColor=#36393d;" parent="kfbQjCIQF7K4VHMFwIz1-1" vertex="1">
          <mxGeometry x="660" y="289" width="480" height="40" as="geometry" />
        </mxCell>
        <mxCell id="kfbQjCIQF7K4VHMFwIz1-5" value="&lt;span data-lucid-content=&quot;{&amp;quot;t&amp;quot;:&amp;quot;Data Quality &amp;amp; Governance: Unity Catalog and Data.World&amp;quot;,&amp;quot;m&amp;quot;:[{&amp;quot;s&amp;quot;:0,&amp;quot;n&amp;quot;:&amp;quot;b&amp;quot;,&amp;quot;v&amp;quot;:true,&amp;quot;e&amp;quot;:27},{&amp;quot;s&amp;quot;:0,&amp;quot;n&amp;quot;:&amp;quot;c&amp;quot;,&amp;quot;v&amp;quot;:&amp;quot;#000000ff&amp;quot;,&amp;quot;e&amp;quot;:55},{&amp;quot;s&amp;quot;:0,&amp;quot;n&amp;quot;:&amp;quot;fc&amp;quot;,&amp;quot;v&amp;quot;:&amp;quot;Bold&amp;quot;,&amp;quot;e&amp;quot;:27},{&amp;quot;s&amp;quot;:0,&amp;quot;n&amp;quot;:&amp;quot;fid&amp;quot;,&amp;quot;v&amp;quot;:947014,&amp;quot;e&amp;quot;:27},{&amp;quot;s&amp;quot;:0,&amp;quot;n&amp;quot;:&amp;quot;fsp&amp;quot;,&amp;quot;v&amp;quot;:&amp;quot;ss_presetShapeStyle1_textStyle&amp;quot;,&amp;quot;e&amp;quot;:55},{&amp;quot;s&amp;quot;:0,&amp;quot;n&amp;quot;:&amp;quot;s&amp;quot;,&amp;quot;v&amp;quot;:22.22222222222222,&amp;quot;e&amp;quot;:55},{&amp;quot;s&amp;quot;:27,&amp;quot;n&amp;quot;:&amp;quot;fc&amp;quot;,&amp;quot;v&amp;quot;:&amp;quot;Regular&amp;quot;,&amp;quot;e&amp;quot;:55},{&amp;quot;s&amp;quot;:27,&amp;quot;n&amp;quot;:&amp;quot;fid&amp;quot;,&amp;quot;v&amp;quot;:947029,&amp;quot;e&amp;quot;:55}]}&quot; data-lucid-type=&quot;application/vnd.lucid.text&quot;&gt;&lt;font style=&quot;font-size: 11px;&quot;&gt;&lt;span style=&quot;font-weight: bold;&quot;&gt;Data Quality &amp;amp; Governance: &lt;/span&gt;Unity Catalog&amp;nbsp;&lt;/font&gt;&lt;/span&gt;" style="rounded=1;whiteSpace=wrap;html=1;absoluteArcSize=1;arcSize=14;strokeWidth=2;fillColor=#eeeeee;strokeColor=#36393d;" parent="kfbQjCIQF7K4VHMFwIz1-1" vertex="1">
          <mxGeometry x="660" y="519" width="480" height="40" as="geometry" />
        </mxCell>
        <mxCell id="kfbQjCIQF7K4VHMFwIz1-6" value="" style="group;textOpacity=0;" parent="kfbQjCIQF7K4VHMFwIz1-1" vertex="1" connectable="0">
          <mxGeometry x="1185" y="226" width="117.2" height="374" as="geometry" />
        </mxCell>
        <mxCell id="kfbQjCIQF7K4VHMFwIz1-7" value="" style="rounded=1;whiteSpace=wrap;html=1;absoluteArcSize=1;arcSize=14;strokeWidth=2;fillColor=#eeeeee;strokeColor=#36393d;" parent="kfbQjCIQF7K4VHMFwIz1-6" vertex="1">
          <mxGeometry y="-11.58974358974359" width="110" height="383.5897435897436" as="geometry" />
        </mxCell>
        <mxCell id="kfbQjCIQF7K4VHMFwIz1-8" value="BI &amp;amp;&lt;br&gt;&amp;nbsp;Reporting" style="text;html=1;align=center;verticalAlign=middle;resizable=0;points=[];autosize=1;strokeColor=none;fillColor=none;" parent="kfbQjCIQF7K4VHMFwIz1-6" vertex="1">
          <mxGeometry x="12.666666666666664" y="141.87179487179486" width="80" height="40" as="geometry" />
        </mxCell>
        <mxCell id="kfbQjCIQF7K4VHMFwIz1-9" value="Streaming &amp;amp; &lt;br&gt;Analytics" style="text;html=1;align=center;verticalAlign=middle;resizable=0;points=[];autosize=1;strokeColor=none;fillColor=none;" parent="kfbQjCIQF7K4VHMFwIz1-6" vertex="1">
          <mxGeometry x="8.2" y="52.29230769230769" width="90" height="40" as="geometry" />
        </mxCell>
        <mxCell id="kfbQjCIQF7K4VHMFwIz1-10" value="Data Science" style="text;html=1;align=center;verticalAlign=middle;resizable=0;points=[];autosize=1;strokeColor=none;fillColor=none;" parent="kfbQjCIQF7K4VHMFwIz1-6" vertex="1">
          <mxGeometry x="9" y="234.05641025641026" width="90" height="30" as="geometry" />
        </mxCell>
        <mxCell id="kfbQjCIQF7K4VHMFwIz1-11" value="Data Sharing" style="text;html=1;align=center;verticalAlign=middle;resizable=0;points=[];autosize=1;strokeColor=none;fillColor=none;" parent="kfbQjCIQF7K4VHMFwIz1-6" vertex="1">
          <mxGeometry x="12" y="316.825641025641" width="90" height="30" as="geometry" />
        </mxCell>
        <mxCell id="kfbQjCIQF7K4VHMFwIz1-12" value="" style="shape=image;verticalLabelPosition=bottom;labelBackgroundColor=default;verticalAlign=top;aspect=fixed;imageAspect=0;image=data:image/png,iVBORw0KGgoAAAANSUhEUgAAAgAAAAIACAYAAAD0eNT6AAAACXBIWXMAATr1AAE69QGXCHZXAAAAGXRFWHRTb2Z0d2FyZQB3d3cuaW5rc2NhcGUub3Jnm+48GgAAIABJREFUeJzt3Xe4XlWZsPE7J43eew9dpDgIigIKYkFBLDQdBR0LdkEUQUZEsTs21BHFrjgKqICgglJEYUAF/ehFCQElJPSWkHrO98c6Z3ISTpJT9rPWLvfvutaFOszaz9rvefd+3lVBkiRJkiRJkiRJkiRJkiRJkiRJkiRJkiRJkiRJkiRJkiRJkiRJkiRJkiRJkiRJkiRJkiRJkiRJkiRJkiRJkqSWGFc6gJZaH9gYWBdYe1BZCVi9/9+Z3P/fJanLZgNz+//zo/3//cFB5T7gnv5/qkImAKO3KrBTf9kRmNJftsAXuyRVbTZw56ByE3A9cCPweMG4GssEYHgmAs8EngvsCTyD9LL3/klSWX2khOBvwJXA/wJ/BeaXDKoJfIENrQfYDXgpsF//f16xaESSpOGaDVwDXAxcCFwL9BaNqIZMABZZFTgQOAB4MWn8XpLUfPcDFwG/6i8OGWACsCLwQuBQ4NXAymXDkSQFm0PqGTgbOIcOJwNdTQD2Ao4CDsYJe5LUVbOAnwHfIs0f6JQuJQBrA0cCbwWeVjgWSVK93ExKBH4IPFQ4liy6kABsCRwNvBm7+CVJyzYXOAv4FHBr4VhCtTkBeC7wAeAVpFn9kiQNVy9wLvBfwNWFYwnRxgTg2cCHSTP6JUkaq4uBE4G/lA6kSm1KAJ4BnAK8vHQgkqTW6QN+CZwMXFc4lkq0IQHYEPgoaYx/fNlQJEkt1wecAXwQmFE4ljFp8gtzEvBu4Oek8X7H+SVJ0cYBuwDvIL2HrgYWFI1olJraA/Bi4DTSDH9Jkkr5BykZuLh0ICPVtF/NawDfJO3t7MtfklTa1sDvSEsH1ykcy4g0aQjgcODXwPNobs+FJKmdng68AbiLtKlQ7TXhRboaaR3mUaUDkSRpGM4G3gY8XDqQZal7ArAHabblVqUDkSRpBO4CjgD+WDqQpanrEEAPaa3l90l7+EuS1CRrkBKAPmqaBNSxB2A14AfAK0sHIklSBX4NvJ6aDQnULQHYBfgF7Zvh/yTw4KDSC8wHnigZlCTVwCrARFLP79qDyoolgwrwD+DVwA2lAxlQpwTgENIv/5VKBzJKM4Dr+8tUYFp/uQuYXSwqSWqmlYAtBpUtgZ37y/qlghqjWaRhgXNKB1InxwELSWMlTSizgN8DnwBeBqxX+R2RJC3NesABwCeBy0k/skq/F4ZbFgLvq/6WNM944GuU/0CGU+4ATgVeCEyOuBmSpFGZAOwFfAa4hjTMWvqdsbxyen/cnbQC6WSl0h/Cssq1wPHAlKB7IEmq3pbAh4C/Uf49sqxyLh38Qbkyad/k0jd/qHIv8Glg27DWS5Jy2Q74LGmeVun3y1Dlt6R3YiesDlxB+Zu+ZLkUOJg0G1WS1C6TSJPNL6P8+2bJ8kfSEvhWWwP4C+Vv9kCZB/wY2DWy0ZKkWtkN+AlpOXbp99BA+TPpHdlKKwF/oPxN7iPNwjyLdIqTJKmbNiedMFuXROAq0r4IrbIi9eh26SVlfY7vS5IGbA+cST1WD1xCmiTfCpNI2yCWvql/Ap4T3FZJUnPtRVpGWPp9dQEtmI82jrS7X8kbeR/pjOY67XooSaqnHuDNwAOUfXd9N7qh0T5K2Rt4FrBudCMlSa2zFml+QMl32IfDWxnkSMqNp0wnbdErSdJYHEjaH6bEu6wXeF18E6u1FzCXMjfsHGCd+CZKkjpiPeB8yrzT5tCg+WsbUSZbehI4KkP7JEndMw54F+mFnPv9dg+wQXwTx2YiZdb6/xN4dob2SZK6bVfSUe+533NXklbV1dZXyX9TLsEuf0lSPuuRjoTP/b77Uoa2jcoryX8zvkcL1kpKkhpnAmVWCRyUo3EjsRF510z2kpYYSpJU0tHkXfF2P7BhlpYNQw/wO/I1fgHwpiwtkyRp+Y4inTGT6z14ITXZ3O5Y8jV6HvCaPM2SJGnYXkfeQ4WOztOspdsamE2+l/8r8zRLkqQRezXpXZXjnTgL2DJPs55qHPm6/hfgL39JUv0dTL6egEspNBTwllEEO5rS238tSZKa4A3kmxPwhkxt+j8bAA9XEPhwyjGZ2iRJUlWOI8878gEyH3r33YBGDFW+katBkiRV7Gu07F35TPJ0bZwHjM/UJkmSqjYB+BXx78sFwC45GpRjr/9bgdVyNEaSpECrAjcT/978I8ETAg/L0IhHge0iGyFJUkZPBx4n/v356qgGjCf9Mo8Mvhd4VVQDJEkqJMcP6JsIGjp/Y4bg/zsicEmSauBbxL9HX1d10BOBO4KDvhlYqerAJUmqiZWJ70n/O2nyYWXeGhzwPGDXKgOWJKmGdid+p8D/qCrYHlJGERnsJ6oKVpKkmvssse/U20jv7jF7dYZAV6giUEmSGmBF4n9YH1RFoFcEBtgLPK+KICVJapAXEJsAXD7WAHcPDvDHYw1QkqSGOpvYd+weYwnujMDAZgObjyU4SZIabFNgFnHv2R+ONrC1gCcDA/voaAOTJKklPkHsD+01RxPUMYFB3U/aH1mSpC5bHXiQuPftu0cT1I2BAX1gNAFJktRCJxL3vr1+pMHsERjMdNzxT5KkAasAM4l77+421EWXtl3g4RU0aGm+TBqXkKq2KrAOsC6w9hJlEumozDX6/93JLEpEZwNz+//zI6QvzDxSt9xAeWBQeTy4HZK65QngVOCTQfUfDlyz5P841NnBPcDdwMYBQTwObEZ6yEojNRnYAZjSX7boLwP/PVfP0ixgGnBnf5nWX6YCt7AomZCk4VqL9O5dOaDuu0nPyr7l/Yt7E9cN8aXq2qOW2xQ4APgQ8FPSMZfR+2dXUeb3x/oT4IT+Nmxa8b2R1E5fIe7Z9NzhBPDVoIsvJP1Kk5Y0gbTp1DGkjTHuofyLvOpyD3AWcHR/Wys9rUtSK2xF2iE34hn05eEEMC3o4heN/F6opXpIk1I+DFxG7EYYdS1PAJcC/wk8k6GH4yR1z++IeebcsbwL7xB04T7g4FHeDLXDWsChwDeBf1H+BVy3ch+ph+AoYINR3mNJzXc4cc+ZbZd14fcHXXQGMHH090MNtR7wDuD3wALKv2SbUhaQekbeTlrRIKk7JpE2y4t4thy9rAtfHHTRr47hZqhZ1gSOBM4nLaUr/TJtellAOpHzaFJCJan9vkHM8+Q3S7vgisCcoIt65G+7jSfNdj8HX/qRZR7wC+BlpHkUktppX2KeIbNJy6mf4vlBF5yOD6u22gg4nrQWvvTLsWvlHuAzpLW9ktqlh/TujHh2DLkc8ENBF/t6BTdD9TEOeDHwKxzXr0NZAFwAvGhZH5qkxvkmMc+MDw51sV8FXezAKu6EiptEmsX/Z8q/9CxDl+tIqwhWWMpnKKk5XkXMc+K8JS80jpjjCOcQs62h8lmD1M3fxs152lr+RcryVx/i85TUDKuSthWv+vlwP0vsO7J1wEX6SBsaqJlWBz7KosNxLM0rDwMfAVZDUhNdRsyzYUtYNDlvl6DgLw+qV3FWJi05ux04GX9FNtkawMdIkzQ/iomA1DR/CKp3J1iUAOwYdJGrgupV9VYgbQR1J2nPaNect8dapGTu78D7cI6A1BRXBtW78+D/8guq72KYD6wSFLyq9XLSPtGlu6wtecrdpM2aJNXbKsScgnrW4IvcHnCBv1V6GxTh30jDNKVfSJYy5VKW+CUgqXaup/rv/q0DlU8gJsP4QeW3QVVZD/gW6Yjm0i8hS9mygLTt6DpIqqMfUf33fi4wvgfYhJizya8LqFNjdyhwE/AW3KFRaRvnt5F6AY/CY4mlurkhoM5JwIY9wJSAyiF1W6g+pgAXkcZ+/LWnJa1J2nnsMmCbwrFIWiTqXTplArB5UOW3B9WrkRlPWtb3cWClwrGo/p5Pmr/zn8DXSMNEqr8eYCtgQ2D9wrGUNg+YCUwF7iscSxWi3qVTIC0Pqnp8YR7pxaOytgaupvw4c64yh/RleSCg7odIs+e7dP7B/5JeKqqvbYHTiDs4psmlF7gGOI5m70g7kZh5eidByvKrrviOkNugkXgT8Djlv4RVl4XAP0hHD38C+HdgT9LJhAPj12cFXHdg2cxE0i5a+/bf488BFwL/rMG9iSiPAW9EdTMZ+Aoevz3cMp00/6mp7qT6e/KVCcSMB08LqFPDsxZwOnBw6UAqcgepF+Nq0kFENwGzCsYzn9S1OJU0Xj7YGqRldbsDzwH2ADbOGl31VgW+B7wUeDtpe2GVtS5wLks51lVD2hA4k/T9PKlwLKMxjeqP/l4H0n79VWcWP6k4UA3PC0gHwZTOtsdSbgW+CryC0e9GGNkDMFKbAq8hLbucFhBXznI3aY6AyplM2h2u9N9Ck8txI77r5Z1J9ffhIkgTfqqu+Ksx90BLMQ44gWaOTz8BnA28GdisovtRpwRgSdsC7wIuIM1ZKH3/R1rmkx6gLhcs41TK/w00vSwA9h7pjS/sv6n+PlwLMb9KPhpxBzSk1YCfU/5LNZLyIGmjqFcAK1Z/S2qdAAy2KnA4Kbt/LCDmyHJWf/zKZ1sc86+qXE2zkthTqP4eTAW4N6Di98bcAy3hacAtlP8yDafMAX5GOndgYsTNGKQpCcBgKwCHAOcTM+M3otwEbBdxMzSk0yj/mbep7Duy21/UMVTf/uk9pB2BqjYnoE4t7pXAn4DtSweyHNcA7ybN0h/8gtPiBidIm5BOZryxaETLtwNpYuZBpQPpgB5Sj5mq88rSAYxAxDt1Ug9pUknV5gXUqUWOJXX717ULdi5wBmkW/O6k8auHikbULDOBL5LO7N6HlBgsKBnQMqxGOk306NKBtNzAJj+qTpPmAcwNqHNyVA+ACUCM8aR9G75APffxn0laYrM5cASph0Jjczlp/fIU4FPUM5EaD3yZNEHNDcBiNH05aR016Z5GJACTeogZj7WLt3qrkNb+vqt0IEO4G3gP6SX1CVIioGr9i7Q97+akWfj3lg1nSO8l9QY0ede1uqprb1+TrV46gBGIeKdOquOvSD3V+sDvgQMLx7Gkv5N2w9ua1DPxZNlwOuEJ4POk3QjfCdxVNpynOIj0tzraPRw0tDbsaV83M0oHUJoJQP1tQuoGfmbpQAaZTtoV7umkXeLs8clvDmlW+HakGcL3lw1nMbuR/mab1MVad9NIM7dVnamlAyjNBKDetiD9mqrLUqsngM+SVh58E1/8dTCXNPY+hbQZ1GNlw/k/25N2rNu6dCAtMRP4a+kgWubXpQMozQSgvrYHrqAep7H1ks4X2IL0knm8aDQayiwWJWc/oh6/FjcnnZdQ96WqTXFm6QBaZAFpvkqnmQDU0y7Upwv1T8CzgbeRdvBTvd0LHAk8D/h/hWOBRUNYO5cOpAW+Tj0nfzbRd3EIwASghnYgHdBUehLVQ8BbSCeOXVM4Fo3cFaSx+PdQflhgPeBi0t+2Rm8Wab+FOvTuNNl04COlg6gDE4B62Zr0oFy3cBznAjsC3yF1/6uZFpJWZ+xE/8lfBa1LSmzrMKTVZGcDnywdRIM9SdoB0KXKmADUySbAbym729fDpK7+V2FXY5vcDewPHEbZYZyNSHMCtigYQxucRFr5sbB0IA0znbSz5l8Kx1ErEYcsHJq1Bc23IXA7ZQ/GOJ/yPQ9VaeJhQLlsROplKvm3dhuwQXRDO2Bv0ql2JT/LJpT5pFVL64/uNtfCocTcm5BKTQCGb3XgBsp9OeaQdnBr0tGYy2MCsGw9pNUcJY+WvY50joDGZhzpVLtTScsEZ1DuM61LmUvaIOtS4IOkTbOazgSghSaSuv1LfVFuAZ4R3sr8TACGZzfSbo6l/v4uI+YsEqltQhIA5wCU9VXgRYWufSbpBVCHpWIq4xpgV+CcQtffh7SboaQCTADK+Qhpwl1uC0ndv68lLStStz0OHEz6myix4uNNwIkFrisJhwBKeD3pYZu7y/V+YL8M7SvNIYDRORB4hPx/l72khFTS0BwCaIl/I22rm3vS3T9Im/pckvm6ao4LWDQvIKdxpJ3Zds98XanTTADyWpu0//SKma97Fenln/vBruYZSBSvzHzdFYCf0Z6lqFLtmQDkMx74H/JvgvIzUrd/nY6LVb09ALwYOC/zdTcDfkL6rkgKZgKQz6dJD9WcvkLa/e3JzNdV880mTQ78dubr7gd8PPM1pU4yAcjjEOADma/5KTw4RGOzEDiKtMlMTieQtqOWFMgEIN4m5J/091HgPzNeT+3VR9p3/oSM1xyYFLhZxmtKnWMCEGtg3H/NjNd8H/CxjNdTN3wW+HDG660B/ACfUVIYv1yxPkQ6sCOXE4EvZ7yeuuWT5D2Kdh/SXu6SgrgRUIxnkvewFSdOLeJGQLE+S76/6/nAs/M0S6otNwJqkJVJy5kmZrrel0hnhEs5nAB8I9O1JgA/JH2nJFXIBCDGp4BtMl3rp8D7M11LgvTr4V3AzzNdb1vglEzXkjrDBKB6zyI9HHO4HHgjLvVTfr3AEeTbMfAY4DmZriV1gglAtSYB3yHPTmY3k9ZKz81wLWkoTwKvAG7LcK0e4JvkG1aTWs8EoFofAnbMcJ17gf2BhzNcS1qWB4ED+v8ZbSdcFSBVxgSgOtuTZ7OU+cDhwD8zXEsajjtIf5MLMlzrJOBpGa4jtZ4JQHW+SjrRLNq7gT9muI40EpeQJwGeDHwtw3Wk1jMBqMbBwAszXOcHpG2FpTr6AvD9DNd5AXBQhutIrWYCMHYrAJ/LcJ1rSAezSHX2LuDGDNf5AmnSraRRMgEYu2OBLYOv8QTwetLOglKdzQZe0//PSFuTTruUNEomAGOzPnB8huu8gzxLraQq3ESezalOAjbMcB2plUwAxuYTwGrB1/gBcEbwNaSqfYP4nQJXBU4OvobUWiYAo7c1aRe+SNOA9wRfQ4pyFGnPikhvIn4ITmolE4DRO5l0UEmUPuBtwOOB15AiPUT8xNWJeBCWNComAKOzLWmiU6TTgd8GX0OKdgHw4+BrHEHaiEvSCJgAjM4niP31fw95NlWRcjgamBFY/3jgI4H1S61kAjByO5M2/on0DuCR4GtIuTwIvC/4GoeT5xwOqTVMAEbuBGLv2y+B8wPrl0r4KXBpYP095FmSK7WGCcDIbAIcElj/k8T/UpJKeQ/pMKsohwObBdYvtYoJwMgcS+x55J8BpgbWL5V0M3BqYP0TcdmsNGwmAMO3OvDmwPrvJs+ZAlJJpwAzA+t/K/Gbc0mtYAIwfG8j9sFyEjAnsH6pDh4nraKJsjoemiUNiwnA8EwA3h1Y/w3Er5WW6uKbwD8C638vsct0pVYwARieA4BNA+v/ELAwsH6pTuYTu3vfpsD+gfVLrWACMDxvCaz7CuBXgfVLdXQm8LfA+t8aWLfUCiYAy7cJ8NLA+j8eWLdUV33AJwPrfxmwcWD9UuOZACzfm0hbjUb4G/C7oLqluvsFcGNQ3ROIP61TajQTgGXrISUAUU4h/RKSuqiP2KWvb8ZnnLRUfjmWbT9g86C6bwLOC6pbaoqfELf51RRgn6C6pcZzqcyyRR75+2X89S8tAL5C+j5EeA2xZxDURQ+wFbAhsH7hWEqbR9psaipwX+FYaq8voByatQUxJgEPEXN/HgRWyteUzjmL6j+zs7K2oFtWBx4j5rv2ALHbd5e2LXAaMJ2Y+9fk0gtcAxwHrDzaG1wThxJwjxwCWLoXAWsG1f1dYHZQ3VLTPAr8MKjutUlDeW0zmdRzciPwdtIvfy1uHPBM0jyTv9OOH6aVMgFYusOC6u0Fvh5Ut9RU/036VRIh6rtcyrqkYY330O7ejSptSNp7wmXXg5gADG0y8Iqgui8E7gyqW2qqW4DLgup+JWlIrw0mA+cCzy0dSAONAz5MGhIQJgBL8yLSuGSE7wfVKzXdD4LqXZP2DAN8Dl/+Y/VpYO/SQdSBCcDQXhZU78PAL4Pqlpru56TTAiO04WyAbYF3lA6iBcYDXyD1CHSaCcDQoh4WPwXmBtUtNd0s0u6AESK3887lfTjmX5XdcY8IE4AhbEfaQCRCVBen1BZR35FtgK2D6s6hh7h5SV31ytIBlGYC8FRRvxSmAX8Kqltqi8uBGUF1N7kXYGCTH1Wn8/MATACeKmr8/+dB9Upt0kvcFtlNngewSekAWqjzp0WaACxuBeKywnOD6pXa5pygevehucsBVykdQAtFrfRqDBOAxe1GSgKqNhO4KqBeqY0uJa2YqdpKwK4B9ebgnvbVu7d0AKWZACwuan3tL4GFQXVLbTMf+HVQ3XsG1RttGnE7JXZV5zdkMwFY3F5B9V4UVK/UVr8LqrepCcBM4K+lg2iZqCSzMUwAFhkHPCeg3oXEbXEqtdXviPnFuyfN3QDmzNIBtMgC4vacaAwTgEW2A9YJqPda0rHCkoZvOul8gKqtR3P3A/ga8K/SQbTEd4CppYMozQRgkYhf/wAXB9UrtV3UMEBT99J/EjgW5wKM1XTg5NJB1IEJwCLPCKrX7n9pdKK+O7sE1ZvD2cAnSwfRYE+SdgCcWTqQOjABWGTngDp7gT8H1Ct1QdTS2Yjvek4nAcfgyqKRmk7aC+IvheOoDROARXYKqPNm4LGAeqUuuI+YcdqmJwAApwL74vbiw7EAOJ20B4Q/yAaZUDqAmtgYWDugXr+c0tj8Cdiy4jrXBTYg7syBXP5Imru0D6lbe29gI2D9gjHVwTzSZ3sHcCHwM5zwNyQTgCRq/P/qoHqlrrgaeG1AvTvT/AQA0oTAy3CukUbBIYBkx6B6rw2qV+qKa4LqjRjykxrFBCDZNqDOhcCtAfVKXXITMcvetgmoU2oUE4Bki4A6p5KWnEgavUdJs7erNiWgTqlRTACSiIfBjQF1Sl10U0CdJgDqPBMAGA9sElBvxENL6qKI79Lm+PxTx/kFSC//iQH1/j2gTqmLbguocxJpyZzUWSYAcV2BdwXVK3XN3UH1bhFUr9QIJgAx3f8Q99CSuiYqmd4sqF6pEUwA0q5gVVuIx3ZKVYlKACKO/5YawwQgZgvg6cD8gHqlLpoFPBhQb8R3X2oMEwBYK6DOewPqlLosYi8AEwB1mglATDfgQwF1avgido7z3IyyInoAHAJQp5kAxDwEHgioU8M3K6DO9QLq1PBFJNX2AKjTTABihgAeDqhTw/dEQJ3OGC/LBECqmAkArBRQp0MAZT0WUOemwPYB9Wp4IoYAIr77UmOYAKQdwaoW8QLS8E0LqvfgoHq1fBHfqckBdUqNYQIQ8xCYF1Cnhi9qG+ZjgNWC6tayRXynIpJ/qTFMAGIeAiYAZd0eVO86wMlBdWvZ5gbUaQ+AOs0EwB6ANrqXuN3j3ge8JqhuLV3Ed8oEQJ1mAmAPQFtdHlTvOOC7wH5B9WtoET0ADgGo00wAYHxAnQsC6tTI/D6w7hWB8zEJyCniO+XmTuo0E4CYPfv9ZVHeecT2xAwkAS8MvIYWsadOqpgJgLOL2+oh4LfB11gR+CUmATlEjNdHDCtIjWEC4Nhim/0owzUGkgCHA2JNDKjTHgB1mgmAPQBtdg5xqwEGczggnj0AUsVMAFxf3GbzgS9mupY9AbFWDKjTBECdZgIQ0wOwekCdGp1vAzMyXcvVAXEiDu1yCECdZgIQs8e4p4zVx2zg+IzXczggRkQC8EhAnVJjmADAAwF1rhNQp0bvR8RtDDQUVwdULyIBiDhhUGoME4CYh4AJQL30Ae8k9Qbk4pyAaq0ZUKcJgDrNBCDmIeAQQP3cDByd+ZoOB1Rno4A6I3r/pMYwAYh5CGwQUKfG7tvAGZmvaU/A2PUAGwfU+1BAnVJjmADE9ACsC6wSUK/G7s3AxZmvaU/A2GxIzEZA9wfUKTWGCQDcF1Tv5kH1amzmAYcA12e+rj0Bo7dpUL0mAOo0E4C4neKmBNWrsXsUeAlwa+bruk/A6EQl09OC6pUawQQg7iGwRVC9qsYM4PnATZmv63DAyG0fVO+0oHqlRjABSJMAHw+od8uAOlWt+0gv4hI9AQ4HDF9EAvAwbgSkjjMBSKYF1LljQJ2qnj0B9bdDQJ3TAuqUGsUEIJkWUOczAupUjPuAF1AmCXDHwGXrAbYJqPfOgDqlRjEBSCIeBusC6wfUqxilhwNMAoa2HTEnAZoAqPNMAJJbgurdKahexSg5HGASMLRnBdV7c1C9UmNMKB1ATVwXVO/O5N90RmMz0BNwGXGzz4cykAQchH8zg+0eVO8NQfWW0gNsRdo0qes9j/OAmcBU4vZ5aY2+gHJo1haM3apAL9XfhzNzNkKV2oDUMxTx/VhWmY09AYP9ierv8UJgpZyNCLQtcBownfx/q3UvvcA1wHHAyqO9wTVxKDH3KKTSpiUAAHdQ/X34V9YWqGomAWWtAMyh+vt7e85GBJkMfIX0azf332cTy3Sa+V4aEJIAOAdgkYitYTfGLYGbbAawL04MLGUP0ouuarm3ga7ausClwHuIOSOhjTYk9ch+vHQgdWICsEjUQ2HPoHqVhxMDy9k3qN4mJwATgbOB55YOpIHGAR8mDQkIE4DBrg2q1wSg+VwiWMY+QfVGfddz+DwpIdXofRrYu3QQdREx3tLEsZZ1iJkIGLXEUPk5JyCfFYkZ/18IrJWxHVXaFsf8qypXk3oEmsI5AMEeAG4LqHd7PBmwLZwTkM++xIz/3wI8FFBvDu/DMf+qPJu4HqbGMAFY3P8G1bt/UL3KzzkBeRwUVO8fg+qN1gO8onQQLdP5+2kCsLgrg+p9aVC9KsM5AbHGAQcG1X1VUL3RBjb5UXWeVzqA0kwAFheVALyAmO5MlWNPQJxdSUtoIzS1B2CT0gG0UNTfWGOYACzudtKDvWor0+4HdlfZExAjqmv2nzT3EKBVSgfQQquXDqA0E4DF9QEXBdV9eFC9KsuegOq9Jqje3wTVm4N72lfv3tIBlGYC8FRRD4mDcBigrewJqM7uwDZBdV8YVG8O00g/UFSdpvYGVcYE4Kl+CywIqHd1XA3QZvYEVOPfg+pdQNo+t6lmAn8tHUTL/Lp0AKWZADw3kUQvAAAZwUlEQVTVw6QTyCIcFlSv6sGegLEZT9x35Erg0aC6c/F00eosAH5ROojSTACGFtVV+CpgjaC6VQ/2BIzeAcBGQXU3efx/wNfwhNGqfAeYWjqI0kwAhnZBUL0rAq8Nqlv1YU/A6BwVWHfUdzqnJ4FjcS7AWE0HTi4dRF1E7LPcxLMAlnQbMffGcbzu8OyA4duM1C0bcT9y98ZE+zj5/6baUmaTJpo2jWcBZHZWUL3/BuwWVLfqxbMDhu8tpDkAEaK+y6WcBHyQdLCRhm86aXjuL6UDqZOILKsNPQA7EZeFfjNjO1SePQHLtgJplnvUfdg+X1Oy2pt0ql3uv6umlfmkZ+76o7vNtRDSA0BQpW1IACB1HUbcn1nA2hnbofJMApbuLcS1/7qM7ShhHKmX6VTS8OIM8v+N1a3MBe4iLfv8ILDlqO9ufZgAFHAycX+kJ2Vsh+phPeBG8j8Q65wEjCMu0e4DTszXFCmMCUAB2wK9xNyjGaSuT3WLPQGLO4C4Ni8EpuRrihTGSYAF3A78Iaju9YEjgupWfblPwOJOCKz7EtzuVVomewCW7XXE/UK5hbiZz6o3ewLgJcS21QO41BYOARSyAvAgcQ+p1+Vrimqm63MC/khcGx/Aw7fUHg4BFDIHOCOw/pOBCYH1q766vGPg/sBegfX/gDQbXNIy2AOwfDsS+4vsTfmaohrq2nBAD3DtKOIdSXlattZI8RwCKOz3xD2s7gQmZWuJ6qhLScARFcW+tPK7fE2RsjABKOzlxD603puvKaqpLiQBK5I2aYlsz/6Z2iLlYgJQWA+xD+eHcHdAtT8JOCG4HdeTNheS2sQEoAbeSuzD62v5mqIaa+vqgA2BR4Pb8IbA+KVSTABqYDJwL3EPrwWkQ4ikNiYBZwfHfg/OpVE7uQywBuYCXw+sfzzwxcD61RxtWyK4P3BIxXUu6SvAvOBrSK1iD8DIrEEar4/8JXNkttao7towJ2BF4O/B8d4HrFJRvFLdOARQIx8m9mH2AKkLWILmDwd8PkOsH6ggTqmuTABqZBVgJrEPtB9na42aoKlJwB6kuS2RMd4LrDSGGKW6MwGomeOIf/gekK01aoKmDQeskCle99BQ25kA1MxKxK4I6CPNal4nV4PUCE1KAr6QIa5/khINqc1MAGroncQ/4M7J1ho1RROSgJcAvRlievMw45GazASghsaTdh6Lfsi9NVeD1Bh1nhOwLjA9Qyx/Je3QKbWdCUBNvYj4B90TwHa5GqTGqGNPwDjg15nieN4o7pnURCYANXYe8Q+7v5HWU0uD1S0J+FCm65812hsmNZAJQI1tBcwh/qHn0kANpS7DAfsRv+SvD3gS2GJst0xqFBOAmvsseR66787VIDVK6Z6AzYD7M13zlIrumdQUJgA1tzJwB/EPv3nAnpnapGYpmQTcnOlat+KyP3WPhwHV3Czg7fRnVYEmAj8DNg++jppnBrAvZQ4QelqG6/QBR5GG2ySNkQlAtX4H/DDDdTYgzbReM8O11CwzgOcDN5UOJMC3gD+UDkJqE4cAqrUW6SGcozv098DkLK1S05SaGBhV7sWEV93lEEBDPES+vcmfD3yDtPZaGuw+0uS83MMBUd4FPFw6CKlt7AGI8T/k+3X0pUxtUvO0oSfge5XfFalZXAXQMKsD08j3kDwpS6vURE1OAu4AVqv+lkiNYgLQQHuRZ2OUgXJcnmapgZqYBMwHnhNxM6SGMQFoqE+S74HZC7wtT7PUQKX2CRhtOTnmNkiNYwLQUBOBP5E3CXhPlpapiZqSBFwBTAi6B1LTmAA0WM5tUgfKyVlapiaq+3DADGDjsNZLzWMC0HC5DkoZXD6TpWVqoromAfNJy1slLWIC0AInkv+B+nVgfI7GqXHqOBzw/tAWS81kAtAC40j7+Od+qF6ES6k0tDr1BJyDm1pJQzEBaInVSLuz5X64XgtslKF9ap469ATcAKwS3VCpodwKuCUeAw4gTQrMaVfgKmCXzNdV/c0ADgMWFrr+vcCBwBOFri91kglAGXeQkoDZma+7GXA18B+Zr6t62xX4JWXmijwJvAq4q8C1pc5zCKCcQ0i/ukp0uX4TmBTfRNXckaREtMTf4ELglfFNlBovZAjAjTbK+hlwPPBfBa59FLADcDgwvcD1VdYqwNeANxSM4X3AuQWv3yY9wFbAhsD6hWMpbR4wE5hKOhVTy2APQHlfocwvsD7SXAR/hXXLM4HbKPc31wd8NryV3bAtcBopiS/5edax9ALXkM5IWXm0N7gmXAXQYuOA71L2y/INYKXohqqoccAHgLmU/Vs7DZf7jdVk0g+HeZT9LJtSptPs95IJQMuNB35K2S/JLcBu0Q1VEVsBv6f8g/hHOPl4rNYFrqT8Z9m00gt8fBT3uw5MADpgImk2dskvyXzgVFyT3RbjSPM9Hqf8A/hcPOBnrCZSj0SuyaWJx6abAHTECsBvKf8l+Qfp/AI11w7AHyj/t9QHXEzqttbYnEr5z7LpZQGw90hvfGEmAB2yIvAryn9ReklzE9aLba4qtjJpkl1dxofPJyW2Gpttqc9n2vRyNc2ah2IC0DGTgLMp/0XpAx4hHdLivgH192rSpjql/2YGyk9I3dYau9Mo/3m2qew7sttflAlAB42n/OqAweV2/GzrajfqNzb8Qxzzr0oPLvWrunx5RJ9AWSYAHdVDOtK39JdlcLkEeG5kozVsU0i/snsp/3cxuHyJZnWx1t02lP9M21b+OqJPoCwTgA4bB5xM/R7yv8Zlg6VsDpxO/caEe4ETA9vdVftQ/rNtW5k5kg+gsLAEIOKlcljMPei8Iym/icuSpZe0vGuPwHZrkc1JmzbV7e+gD5gDvDau6Z32csp/vm0rc0b0CZR1GNW3vxfSTai64tfH3AMBe5K27y395RmqXENKUkqcKtd2zyCNqdftF/9AeRB4fljr9WzKf8ZtK3eO6BMo6wiqb/+TAI8GVPymmHugfjuQ/nhLf4GWVm4D3gGsFnUDOmI8cBBwGeU/02WVv5PGqBVnfeo3BNj0cumIPoGy3kz17X+0h/SLomouF4t1M+kXwWWlA1mKbUkTF6cD38HhgZHaGPgI6TSz80jjv3V1MfAcUhKgODNp1qS1JvhN6QBGIGITrbkA91B9ZvH+gGD1VBOAz9OMXwbXA8eQXm56qhWAg0nzKeZT/vNaXukFPo3DPTkdR/nPvS1lPrDlyG5/URGf/T8hZe5VV/zpmHugpTiMeuz1PpyykLQ97buADSJuRoNMAF4CfJ+Yobio8igeIV3CyrgXQFXlmyO896V9lurvwW2QtkSsuuLTY+6BluHpwK2U/2KNpCwALgdOAHahG+vG1wBeA/wP8BDlP4ORlhtJQzwq41Ca0eNX53IPaU5Fk3yb6u/D/wJcEFDxL2LugZZjFWL+UHJ+Mb9DekG2ZahgErAXaUz/Muo7i3845RvAStXeHo3Cxyn/t9DUMhvYfeS3vLhzqf5enA/wg4CKr465Bxqmg0nLskp/2cZapgFnAO8k9RA0YU/59YEDgY+RTnWcRfn7ONZyH/CKKm+Sxuw4Ug9a6b+NJpV7aObLH+DPVH8/vgfwxYCKZ8TcA43AJqQte0t/6aos84DrSEnB8cBLScvPSqw6WRnYFXgd8Eng56SEpfQ9qrpcCGxYzS1TxfYmZgi3bWU+acy/ad3+g0Xs/fL5caRM8nMVB9tH6o6eXXG9Gpke4H3AKbS767aXNDnqzv7yL1IPyAP9/xwoC0kT2HpJD4Un+v//V2LRMpvVSC/3tYA1B/1zc2DTQWUD2j1nYRZpS9+vkr7PqqdxpGWiryQlBBvR7BddFeaRfoTeQUpgf0ZaUttUqwKPBdT7AYjbY3iHgIA1OlvRvt4AS1y5iHTIkKTydibme35wD6nbMsLTg+rVyN0B7EdaLvhg4VhUXw8DbwP2p1nbpEptFvUundpD3Bd956B6NXpnAzsCZ5UORLVzBrAdaQlvX+FYJC2yY1C90wb+Q8QmMucFBa1q7EuaUFe6u9lStlxLGjuWVE/nU/33/pHBF/hLwAXuqvYeKMB4UpfvfZR/EVnylhmkA0Z6kFRn/6T67/9iS/W/E3CBPtJSNNXfGqTloHU8Y95SbZlD2lbUkxql+tucmOfA6bAo+78hKPg9g+pVtR4BjiWtqT+dtMGI2mU+8CPShKLjiVlWJKlaewXVez0sSgCuC7qICUCz3E0aEtiBNCmst2w4qsAC0m6f2wNHklaESGqG5wbVu9iP/rWJOWDixqDglccOwE9xy9EmlvmkJM6De6TmijjgrZe0wdlibg+4UB9pDEPNNgU4lbRzXukXm2XZ5XHStqe++KVmm0LMM+KWoS72vaCLHVXFnVAtrAYcTdpqt/SLzrJ4mQF8lCEye0mN9E5inhXfGupibwm62LlV3AnVymTSePIfKf/i63r5A3AEZQ5EkhQnYv1/H/AfQ13saUEXmwOsXsHNUD1tC3wGmEn5l2FXykOkbv6dhvH5SGqeNUjvzojnx9ZDXXAccQ/x14/9fqjmJgOHA7/C/QQiylzgAuAQ/LUvtd0biXmO3MMyTjH9YdBFfzm2e6GGWYM0RHA+6WjO0i/PppYFwBWkeRfrjugTkNRkvyHmmfLdZV30tUEXnYdnVHfVOqS9BX4NzKb8S7XuZRapF+WtpOW5krplQ9Iy3ojny2HLuvBaxK35/uDo74daYgXghaQ5A9dQ/mVbl3IHaUz/UGCVUd9dSW1wIjHPmQUMY5XQVUEXv51ljD2ok7Yi/dL9PvB3yr+Ic5XbSctu3wxsMcZ7KKk9xgH/IOa5c8VwAjgu6OJ9pF9/0tJsALyadDDRFcCjlH9Zj7U82t+WLwCvwqEwSUv3YuKeRccuebGhfpFvAUxdyv9trH4DvCygXrXTONLf486kJW87kw6z2ZI0nFAnc0hd+TeRDtq4ob9MI335JGl5LiIlAVXrI+3K+8/B/+PSXvJXAXsEBbEznhGgsduItFXmFv3/nELqQVibNPFwHarbf+IR4IH+8iBwL+nFfuegf95b0bUkddMuwN+I+fF9JUOcLDhhKf/yWcQkAOOA97OUnYikEZjeX65cxr8zgZQQrAms3P+/rdr/v0/o/8+Q9s9f0F8e7//fniC9+B/E45ElxTuOuHlyZ47kX96IuGUI81nKTkSSJHXQdsStwJtH6h0dkV8GBdNH2nBIkiSlY9ej3re/GE1ALw8MaAHp7AFJkrpsJ2Ahce/bUU28Hw/cFRjU+aMJSpKkFona9rePNOt//GgD+1hgYH3AS0YbmCRJDXcgse/Yk8cS3HrAk4HB3QxMHEuAkiQ10CTgNuLer3MYxeS/JX07MMA+PCNAktQ9/0nsu/UbVQS5HbETFGbjskBJUndsS2zvei8VTrS/IDDQPuASPChIktR+44DfE/tOPa/KgPcIDrYPeGeVAUuSVEPvJfZd2gvsXnXQvwoO+knSekhJktro6aRh78h36bkRge9KyiwiA7+B+p3yJknSWE0GriP+1/8zohrwi+Dg+4CvRwUvSVIh0Svq+hjhoT8jtT3pYIHoRrwxshGSJGV0FPHvzbnANtEN+XKGhjwJPDO6IZIkBXsWaVOe6Pfm53M0Zk3g/gyNuQfYLEeDJEkKsDFpP/7o9+VMYPVMbeIdGRrUB9wIrJGpTZIkVWU14if9DZS3ZGoTkE4X+ktAI4YqF5H2TJYkqQkmkza4y/GOvAroydOsRXYmz4TAPuAcYEKeZkmSNGrjgbPI826cT+Cyv+X51DACrKr8iAJZjiRJw9QD/Jh878WP5WnW0FYg9jjDJcv3SNmVJEl1Mh74Afneh7eQhhqK2o18QwF9pG0OizdakqR+k4CzyfcenA88O0vLhuEk8jW8DzgfWClLyyRJWrpVgN+Q9x34oSwtG6Ye4o83XLL8GVg/Q9skSRrKhsA15H33/YEaDoVvATxM3htxJ7BDhrZJkjTYjsBd5H3nPQhsmqNxo3EgsJC8N+Qx4JAcjZMkCTgIeIS877qFwMtyNG4sPk7em9JHOgLxVNwrQJIUZzzwGdI7J/d77iMZ2jdmPeSfEDFQLgU2iW+iJKljNgMup8y77QIatA/OWsDtlLlRD+KQgCSpOoeTf47bQLmFdAhfo2xNnlMDl1Z+CKwd3kpJUlutS96d/ZYsM4Etw1sZ5FnALMrdvAeBo8JbKUlqm0OB+yj3/poNPCe8lcEOI//KgCXLRcDTohsqSWq8HYGLKfvOWgi8OrqhubydMrMmB5f5pJUCawW3VZLUPGsD/016V5R8V/UCbw1ua3ZHU/amDpTHSMs4Vo9triSpAVYBjqfcJL8ly3GxzS3nZMrf3IFyP/BBYLXQFkuS6mh10p76D1D+fTRQGrHWfyxKbBS0rPII8DncP0CSumBT4PPAo5R//wwup0Q2uk6Op/zNXrLMA84CXkSDNlyQJC1XD/AS0pG9OY+vH07ppcXd/kvzbspPDFxamUrqitkurPWSpGjbk4ae76T8e2WoshB4R1jra+5IYC7lP4Rllb+Rxol2DLoHkqTq7AScCFxH+ffHsspc4HVB96Ax9qM+sy+XV+4GTidtELFhxM2QJI3IhqT9Zr4F/JPy74nhlIeAfQLuxYiMKx1Av6cDvwI2Lx3ICN0BXAlcA9wAXE/6YCVJ1VsL2IXUI7s7sCfN2yr3TuAA0h7/RdUlAQDYAPg58NzSgYzRPaTEYBrpg76LtMzkwf7yELCgvzxeJkRJqo1VSUe5TyC94NchbcqzDukEvin9ZStgo0IxVuUK0mF1M0sHAvVKACD9AXyCtEpAkqS2OB14D2kVQi3ULQEY8O+k8ZyVSgciSdIYzCHN9P9+4Tieoq4JAMDOwE+AHUoHIknSKNwIvLb/n7UzvnQAyzAT+C5pq95nUe9kRZKkAX2kXuxDSPPCaqkpL9UDge8A65UORJKkZZgJ/Afwm9KBLE+dewAGu52UAKwJ7EpzEhdJUnecTVrid33pQIajiS/SfUizKbcpHIckSZCWfL8d+G3pQEaiKT0Ag00jzQ2YSNoIooltkCQ131zgC8DhwK2FYxmxJvYADLY18CnS1rySJOVyAXAMaeO3Rmp6AjDgRaQsbKfSgUiSWu164FjgktKBjFVbzr3/HfAM0oEQtxWORZLUPrcCbyBNRG/8yx/a0wMw2Hjg9cBJpL2jJUkarX8ApwD/AywsHEul2pgADOghLcc4geYfMCRJyuuvwKmkF/+CwrGEaHMCMNjewPtJGwq5akCSNJSFwPmkOWVXFI4lXFcSgAEbAUcAbyMdLylJ0j3AGcBppCPcO6FrCcCAHuDFwJHAy4FVyoYjScrscdKv/R+SJpL3lg0nv64mAIOtQFpGeCjwKkwGJKmt5gAXk7bs/QXwRNlwyjIBWNyKwJ7AC0k9Ax5FLEnNNpX00r8YuJD0y1+YACzPNsB+pKRgT5w3IEl1NxW4sr9cQlrGpyGYAIzMRqQlhbuSdh3cCdi8aESS1F3TgBv6y99IL/17SwbUJCYAY7cGaahgS1IPwRb9/9wYWAdYq1hkktRsDwEPAP8ivezv7P/nHcDNwKOlAmsDE4B444G1+8tKwKrAhP6yasG41F7HAntUXOfVwBcrrlOCNCa/oL88DswGHuwvrdp5T5KinQX0VVzOytoCSeHachiQJEkaARMASZI6yARAkqQOMgGQJKmDTAAkSeogEwBJkjrIBECSpA4yAZAkqYNMACRJ6iATAEmSOsgEQJKkDjIBkCSpg0wAJEnqIBMASZI6yARAkqQOMgGQJKmDTAAkSeogEwBJkjrIBECSpA4yAZAkqYNMACRJ6iATAEmSOsgEQJKkDjIBkCSpg0wAJEnqIBMASZI6yARAkqQOMgGQJKmDTAAkSeogEwBJkjrIBECSpA4yAZAkqYNMACRJ6iATAEmSOsgEQJKkDjIBkCSpg0wAJEnqIBMASZI6yARAkqQOMgGQJKmDTAAkSeogEwBJkjrIBECSpA4yAZAkqYNMACRJ6iATAEmSOsgEQJKkDjIBkCSpg0wAJEnqIBMASZI6yARAkqQOMgGQJKmDTAAkSeogEwBJkjrIBECSpA4yAZAkqYNMACRJ6iATAEmSOsgEQJKkDjIBkCSpg0wAJEnqIBMASZI6aFzpAFRrWwH79/9zfWBi2XA0TM8BNqm4zn8BV1Vcp2LMB2YCdwAX9v9TkoZlf+AaoM9isTS+/AV4CdIS7AHQYCsD3wcOKRyHpOqdBbwJmFU6ENWDCYAGrAlcAvxb6UAkhfkrsB/wSOlAVJ6TAAUwHjgDX/5S2+0KnAlMKB2IyhtfOgDVwjHAu0sHISmLrYAHgD+XDkRlOQSg1UizhNcpHYikbO4nJQKPlw5E5TgEoFfhy1/qmnWBV5QOQmWZAOjlpQOQVMRBpQNQWSYA2rl0AJKK8Lvfcc4B0OPAKqWDkJTdE8CqpYNQOfYAqK90AJKK6C0dgMoyAdC9pQOQVMQ9pQNQWSYAur50AJKKuKF0ACrLBEC/LB2ApCLOKx2AynISoFYlbQS0bulAJGVzH2kjoCdKB6Jy3ApY84A5wEtLByIpm+OBK0sHobLsARCkRPA84IDSgUgKdxHpu76wdCAqywRAA9YALsUTAaU2u5Z0HPCjpQNReU4C1IBHgL2Bs0sHIinET4Hn4ctf/UwANNgs4DDgJXhUqNQWfwJeDLwWmF04FtWIQwBalimkyYFbAesDk8qGI2kY5gEzSKt7LgTuLBuOJEmSJEmSJEmSJEmSJEmSJEmSJEmSJEmSJEmSJEmSJEmSJEmSJEmSJEmSJEmSJEmSJEmSJEmSJEmSJEmSJElSsP8PBh9rBAPrBZUAAAAASUVORK5CYII=;" parent="kfbQjCIQF7K4VHMFwIz1-6" vertex="1">
          <mxGeometry x="31" y="97.81538461538462" width="43.15384615384615" height="43.15384615384615" as="geometry" />
        </mxCell>
        <mxCell id="kfbQjCIQF7K4VHMFwIz1-13" value="" style="shape=image;verticalLabelPosition=bottom;labelBackgroundColor=default;verticalAlign=top;aspect=fixed;imageAspect=0;image=data:image/png,iVBORw0KGgoAAAANSUhEUgAAAgAAAAIACAYAAAD0eNT6AAAACXBIWXMAATr1AAE69QGXCHZXAAAAGXRFWHRTb2Z0d2FyZQB3d3cuaW5rc2NhcGUub3Jnm+48GgAAG8VJREFUeJzt3Xmw7ndd2PF37k3CGtawBWVLEEEpiCgIA6SiLLUKlrW2bnXpVEuZqbXL1LGM2taxU6eOtdgpWgd1GERFkUFEBQWtKEhZqoKsooRdFrOQkOT2j+deyZ5z7vktz/N8X6+Z3wD3ku/z/Z2Tcz7v5/dsZ3TjLqieXj2pOr+6a/WJ6oPV66pfqV5TnbiJNQCAuk311OrvVw+p7lGdUV1UvbV6efXS6pK1Nlh1XvXT1ZVthvtNHX9YPWadbQLA1jtW/fM2d55vbqZ+qHpOdXyNjT7ygJu85nF19bwV9goA2+y2be7VH2amnqh+vbrDkhv9iuqy09joqeMHl9wsAGyxc6s3d/oz9Y+rWy+x0fM6/D3/G7oS8IwlNgsAW+yow//U8aIlNvvTE2z0RJsnM9xmiQ0DwBa6Y/XGppmpJ6onzLnZCzrYE/4OevyrOTcLAFtqqnv+1zz+aM4N/7uJN/uGOTcLAFto6nv+1zwumGvTvzvxRq+u7jLXZgFgy8xxz/+ax3fNselj1X0nXvOMGdYEgG10x+qVbd7cZy7nz7HomdXdZlj3HjOsCQDb5Nzqt5p3+NfmnXgnd6w6e4Z151gTALbFEvf8T/n0HIueOceiALDHlrrnf8pFcyx6bI5FAWBPLXnP/5TfmWNRVwAA4GCWvudf9dHq9XMs7AoAANy8Ne75V/1IddVci8/xmkWfCQDAvpj7df43dry7utVcJ+UKAADcuLXu+V9cPbXNp/TOwnMAAOCGrfGYf9Xl1bOqt819Qx4CAIBrm/O9/W/quLz6ugXOr2Y6AQEAwK4aYvg300kIAAB20TDDv4k2LgAA2HVDDf9Oc7MCAIB9Mtzw74AbFAAA7Kshh383sikBAMAIhh3+JQAAGNPQw78EAADjGX74lwAAYCyG/0kCAIBRGP7XIAAAGIHhfx0CAIB9Z/jfAAEAwD4z/G+EAABgXxn+N0EAALCPDP+bIQAA2DeG/wEIAAD2ieF/QAIAgH1h+B+CAABgH6w5/J+ywPlNTgAAsOsM/9MgAADYZYb/aRIAAOwqw/8IBAAAu8jwPyIBAMCuMfwnIAAA2CWG/0QEAAC7wvCfkAAAYBcY/hMTAABsO8N/BgIAgG1m+M9EAACwrQz/GQkAALaR4T8zAQDAtjH8FyAAANgmhv9CBAAA28LwX5AAAGAbGP4LEwAArM3wX4EAAGBNhv9KBAAAazH8VyQAAFiD4b8yAQDA0gz/LSAAAFiS4b8lBAAASzH8t4gAAGAJhv+WEQAAzG3N4f/UBc5vJwkAAOZk+G8pAQDAXAz/LXXm2huAHXRu9QXV/asLqvtWt67OqW5XHa8uqy6tPlV9snrXyeOdJ4/PLL5rWN651W9VD1n4dq9oc0f0ZQvf7k4RAHDz7lVdWD2uekybwX8UV1RvqH63et3J45IjrgnbxvDfAR4CgOu7c/Wd1e9VVzfvpcrLql9r83Nz9hInBzNz2X9HCAD4nMe1GcZXtvwvrxPVx6sfqc6b+0RhJudWb26d4e+lfockABjdseofVK9vnaF/Y7/Mfqr6whnPG6Zm+O8YAcDIvrT6P60/8G/suKp6YXWXub4AMBGX/XeQAGBEd65+rM2AXXvIH+T4ePXcNq8wgG1j+O8oAcBovq76WOsP9dM5Xt/mZYewLQz/HSYAGMUt2tzrn/tZ/XMfn8zPGNthreF/RYb/JAQAI7hX9abWH95THVdXP9rmCYywhnOrt7T8v/ue8DchAcC+e1D1/tYf2nMcL61uNd2XCg7EPf89IQDYZ4+oPtr6g3rO43eq20/09YKbY/jvEQHAvnpim/fjX3tAL3H83zaXZGFOLvvvGQHAPnpCm7fYXXswL3n8aXX3Kb54cAPc899DAoB9M+LwFwHMyfDfUwKAfTLy8BcBzMHw32MCgH1h+IsApmX47zkBwD4w/EUA0zL8ByAA2HWGvwhgWob/IAQAu8zwFwFMy/AfiABgVxn+IoBpGf4DOXPtDcBpelKbt8G95dobqd5bvaN6X/Wpk392vLpLdb/qi9v8Yl3TA6vfqB7f5pMQ4brOrX67+jsL3+4V1bOqX1n4dskVAHbPk1r3nv/l1cuqf1Td4wD7PdYmAr63zTv2rXkl4C15x0Cub813+HPPf0UCgF2y5vD/dPXD1XlHPIdHtrl6sdbHEosArsnwH5gAYFesOfx/rqMP/ut6bPXWlc5HBFCG//AEALtgrSf8fap69ozndVb1vOqqFc7NEwPH5gl/CAC23lr3/N9XPWD+06vqG9v8Ylz6HF0JGNNa9/wN/y0jANhmaw3/P6vuucD5XdPfa51zFQFjMfz5WwKAbbXWZf+3N/3j/Qe11jl7OGAMLvtzLQKAbTTi8D9FBDAHw5/rEQBsm5GH/ykigCkZ/twgAcA2Mfw/RwQwBcOfGyUA2BaG//WJAI7C8OcmCQC2geF/40QAp8Pw52YJANZm+N88EcBhrDn8v36B82MiAoA1Gf4HJwI4CMOfAxMArMXwPzwRwE0x/DkUAcAaDP/TJwK4IYY/hyYAWJrhf3QigGsy/DktAoAlGf7TEQGU4c8RCACWYvhPTwSMzfDnSAQASzD85yMCxmT4c2QCgLkZ/vMTAWMx/JmEAGBOhv9yRMAYDH8mIwCYi+G/PBGw3wx/JiUAmIPhvx4RsJ8MfyYnAJia4b8+EbBfDH9mIQCYkuG/PZ6YCNgHhj+zEQBMxfDfPiJgtxn+zEoAMAXDf3uJgN1k+DM7AcBRGf7bTwTsFsOfRQgAjsLw3x0iYDcY/ixGAHC6DP/dIwK2m+HPogQAp8Pw310iYDsZ/ixOAHBYhv/uEwHbxfBnFQKAwzD894cI2A6GP6sRAByU4b9/RMC61hr+V1bPXuD82HICgIMw/PeXCFiH4c/qBAA3x/DffyJgWYY/W0EAcFMM/3GIgGUY/mwNAcCNMfzHIwLmZfizVQQAN8TwH5cImMddqrdk+LNFBADXZfgjAqZl+LOVBADXZPhzigiYhuHP1hIAnGL4c10i4GgMf7aaAKAMf26cCDg9hj9bTwBg+HNzRMDhGP7sBAEwNsOfgxIBB2P4szMEwLgMfw5LBNw0w5+dIgDGZPhzukTADTP82TkCYDyGP0clAq7N8GcnCYCxGP5MRQRsGP7sLAEwDsOfqT2psSNgzeH/Dxc4P/acABiD4c9cRo0Aw5+dJwD2n+HP3EaLAMOfvSAA9ttav5j/rO24RMtyvqb6TMv/u/a2lg3N807e5tLneUX1tAXOj4EIgP1l+LO0tSLgfdUXz396PfjkbRn+7AUBsJ8Mf9ayVgRcWn1HdcYM53RG9U9P3obhz94QAPvH8Gdta0XAiep3q4dOeC5fUr12pXMx/JmVANgvhj/bYs0IuLp6WfWV1bHT2Pux6vHVr51cy/BnLwmA/WH4s23WjIBTxweq57d505zzq+M3sM8zT/7ds6ufrC5aec+GP4sQAPvB8GdbbUMEXPO4vPqLNv/u/ln1/pN/tva+rjn8n35aX2k4JAGw+7zOn223VqDu2uF1/ixKAOw2w59dIQIMf7aMANhdhj+7RgQY/mwRAbCbDH92lQgw/NkSAmD3GP7sOhFg+LMFBMBuMfzZF6NHgOHP6gTA7jD82TejRoDhz1YQALvB8GdfjRYBhj9bQwBsP2/yw757cnVJ6w/nuY/Lqq+f6GsGRyYAtpt7/oziy6qPtP6Qnuv4RPXYyb5aMAEBsL0Mf0ZzfvXO1h/WUx8XVQ+Z8OsEkxAA28llf0Z19+q3W39oT3W8trrnpF8hmIgA2D7u+TO6M6rntvlgnLUH+OkeV1c/Vp018dcGJiMAtot7/vA5j67e1frD/LDHe6sLp/9ywLQEwPZwzx+u76w2VwM+3fqD/eaOS6sfrm47y1cCJiYAtoN7/nDTPq/6+eqq1h/01z2uql5c3Xu2s4cZCID1uecPB3e/No+tX9r6g//y6oXVg2Y9Y5iJAFiXe/5weu5ePa/685b/+Xl39YN5dj87TgCsx/CHaTy8+q/N+4TB91T/rXrEQucEsxMA6zD8YR73rL6hen71R9Vfd/ifk09Wb6j+Z/WPq89f9AxgAWe0+Zd9as+sXjLDuvviSdVLq1sufLtvr/5u9aGFbxfWdm51QZs4uM3J43Yn/+5v2nwOwSXVB9pcRfjoCnuExbkCsCxP+ANgKwiA5Rj+AGwNAbAMwx+ArSIA5mf4A7B1BMC8nphn+wOwhQTAfB7Y5uVE7vkDsFXOXHsDe+zW1cur2y98u17qB8DNOrb2BvbYc9q8Z/mS3lE9PsMfgAPwEMD0zmzzRiIe8wdgK7kCMI9Ht3nnsaW45w/AoXgOwDweu+BtecwfgENzBWAeS31EqHv+AJwWVwDmcc4Ct+GePwCnzRWAeXxk5vXd8wfgSFwBmMd7ZlzbPX8AjswVgHm8YqZ13fMHYBICYB7vrt408Zpvry6sLpp4XQAGJADm8/0TruWePwCT806A8/nFvMMfAFtKAMznttVbOv2v459m+AMwEwEwrztVr+rwX8NXVndcYb8ADEIAzO/M6l92sA8I+nCbTxI8vspOARiGAFjOOdW3VC9p88S+i08eb69eXH1jm4cNAGB2AgCAXXRGm1dI/Xj15javlLq8+svqNdW/qS5YbXc7QAAAsGseV72hm59HV1YvqO6xzja3mwAAYJc8t7qqw82li6pHrLHZbSYAANgV/7HTn02XJgKuRQAAsAueVV3d0ebTRXl/lb8lAADYdrepPtg0M+p/Lbz3reSzAADYBd/ddPfcv7U6f6K1dpYAAGAXPHvCtY5XT5twvZ0kAADYdnerHjrxmk+eeL2dIwAA2Hb3bfOmP1OvOTQBAMC2u9sMaw7/xkACAIBtd/aOrLlTBAAADEgAAMCABAAADEgAAMCABAAADEgAAMCABAAADEgAAMCABAAADOjMtTcAgzqzzdubnqg+Ul257naA0bgCAMu5f/WfqrdVl1d/VX3g5H9/W/UfqwtW2x0wnBMzHM9Y9Axgu92+en712W7+Z+eK6ieq262yU9hOz2ieWTU8AQDzOb/6kw7/M/SO6gEr7Be2kQCYgYcAYD53r15TPeg0/tkvqF5d3XPSHQGcJABgHseqX6o+/whrnFe9OD+nwAz8YoF5fGP1qAnWeXT1DROsA3AtAgDm8X0TrvX9E64FUAkAmMNDm/blfPevHjzhegACAGbwVTOs+dUzrAkMTADA9I7yxL8l1wQGJgBgenedYc27z7AmMDABANM7viNrAgMTAAAwIAEAAAMSAAAwIAEAAAMSAAAwIAEAAAMSAAAwIAEAAAMSAAAwIAEAAAMSAAAwIAEAAAMSAAAwIAEAAAMSAAAwIAEAAAMSAAAwIAEAAAMSAAAwIAEAAAMSAAAwIAEAAAMSAAAwIAEAAAMSAAAwIAEAAAMSAAAwIAEAAAMSAAAwIAEAAAM6c+0NMJk7V4+q7lmdU324el/1B9Vn19sWANtIAOy+J1f/unpMdfwG/v6T1S9XP9gmCADAQwA77C7Vb1SvqC7shod/1R2qf1K9vfq+6owlNgfAdhMAu+kB1R9VTzjEP3OLNlcBXlydNcemANgdAmD33Kn6teo+p/nPP6N6/mS7AWAnCYDd85PV/Y+4xrdVT5tgLwDsKAGwW768evpEa/1IdfZEawGwYwTAbnlu0z2J737VEydaC4AdIwB2x1ltXvI3padMvB4AO0IA7I4vqO448ZqPmHg9AHaEANgd95hhzfNmWBOAHSAAdscdZljzTjOsCcAOEAC7wzv4ATAZAQAAAxIAADAgAQAAAxIAADAgAQAAAxIAADAgAQAAAxIAADAgAQBw025d3ae688r7gEkJAIDre3L1M9WHq0uq91Yfqy6rXlX9s+o2a20OpiAAAD7nYdXvV6+ovrm663X+/pbVV1f/o3pn9a2L7g4mJAAANp5Zva561AH///eofrp6QXX2XJuCuQgAgPr66kVtHu8/rG+rfi4f2MWOEQDA6B5Y/WxH+334jOq502wHliEAgNH9l6Z5Qt8PVHebYB1YhAAARvaw6msmWuuc6jkTrQWzEwDAyJ625evBbAQAMLLHT7zeF1afN/GaMAsBAIzsXjuyJkxOAAAju+4b/UzBEwHZCQIAGNnxGdY8c4Y1YXICAAAGJAAAYEACAAAGJAAAYEACAAAGJAAAYEACAAAGJAAAYEACAAAGJAAAYEACAAAGJAAAYEACAAAGJAAAYEACAAAGJAAAYEACAAAGJAAAYEACAAAGJAAAYEACAAAGJAAAYEACAAAGJAAAYEACAAAGJAAAYEACAAAGJAAAYEACAAAGJAAAYEACAAAGJAAAYEACAAAGJAAAYEACAAAGJAAAYEACAAAGJAAAYEACAAAGJAAAYEACAAAGJAAAYEACAAAGJAAAYEACAAAGJAAAYEACAAAGJAAAYEACAAAGJAAAYEACAAAGJAAAYEACAAAGJAAAYEACAAAGJAAAYEACAAAGJAAAYEACAAAGJAAAYEACAAAGJAAAYEACAAAGJAAAYEACAAAGJAAAYEACAAAGJAAAYEACAAAGJAAAYEACAAAGJAAAYEACAAAGJAAAYEACAAAGJAAAYEACAAAGJAAAYEACAAAGJAAAYEACAAAGJAAAYEACAAAGJAAAYEACAAAGJAAAYEACAAAGJAAAYEACAAAGJAAAYEACAAAGJAAAYEACAAAGJAAAYEACAAAGJAAAYEACAAAGJAAAYEACAAAGJAAAYEACAAAGJAAAYEACAAAGJAAAYEACAAAGJAAAYEACAAAGJAAAYEACAAAGJAAAYEACAAAGJAAAYEACAAAGJAAAYEACAAAGJAAAYEACAAAGJAAAYEACAAAGJAAAYEACAAAGJAAAYEACAAAGJAAAYEACAAAGJAAAYEACYHf8zQxrfnqGNfG92iVzfK8+NcOao/MzNQMBsDsummHND8ywJvXBGdb0vZrHHN+rOX5WR+f33wwEwO54V3XZxGu+beL12Jjj6/r/ZliTeuvE611avXviNfH7bxYCYHdcWv3mxGv+6sTrsfGK6vIJ17u8euWE6/E5L5t4vd9o+kGF33+zOTHD8YxFz2AcX9t036MPV7dddvtDeWHTfa9+ZtmtD+Wc6iNN9736mmW3PxS//2YgAHbLa5vme/TdS298MPduc0/wqN+ny6p7Lbz30TynaX6mXrP0xgfk99/EBMBuuW/10Y72/XlldXzpjQ/oWzv6z9J3Lr7r8RyvXt7Rvk8fr85feuMD8vtvYgJg91zY5iUsp/O9eWN1+8V3PK4f7vR/jv7zCvsd1R2qN3V636dPV49dfsvDujC//yYjAHbTg9s8M/Yw35cXVbdeY7OD+87qMx38+3RZ9e2r7HRst6l+ocP9TL2z+qI1Njs4v/8mIgB21y2r760+1E1/P15fffVKe2Tj3m2eGHhTIfCZNk/485j/up5Q/WE3/TP1wep7qlustEf8/juyM9p8gab2zOolM6zLDTtefUWby5D3qO7Y5ofi3W0e73rvelvjOm5XPan64urzTv7ZX7Z5nf8rm+cdzzg9962e3Oax/btVn2jzhjSvrf6gunq9rXENfv8dgSsAADAYbwQEAAMSAAAwIAEAAAMSAAAwIAEAAAMSAAAwIAEAAAMSAAAwIAEAAAM61jxvBSwsAGCLHauumGHd286wJgAwkbkC4JwZ1gQAJuIKAAAM6Fh18QzrugIAAFvsWPXxGda93QxrAgATmSsA7j3DmgDARI5VH5th3QfMsCYAMJFj1UUzrHuf6pYzrAsATOBY9b6Z1r1ghnUBgAnMFQDlYQAA2FrHqvfMtPbDZ1oXAJjAWdXlbT4TYMrj9UueBABweG9u+gC4srrDkicBABzMqU/te+sMax+vHjPDugDAEZ0KgDfPtP5XzrQuADCBRzT9QwAnqj9f8iQAgMM5q7qkeSLgkQueBwBwAKceAvhs9caZbuObZloXADhNx67x31890208q7rFTGsDAEf05c3zEMCJ6mkLngcAcAjHqo80TwD89oLnAQAc0gub7yrAVyx4HgDAIXxd8wXAyxc8DwDgEM6u/rr5IuBLlzsVAODGHL/O/76qemD10Jlu79zqF2ZaGwA4gsc33xWAE3l7YADYSme0eQvfuQLgHXlfAABY1XUfAjjlNtVXzXSbd64urn5/pvUBgNN0t+ozzXcV4OLqXoudDQBwYC9o3ucCvKprvxUxALAFHtDmVQFzRsC/X+xsAIADe3nzBsCV1eMWOxsA4EC+tLq6eSPgQ9XdlzohAOBgfrV5A+BE9Zq8NBAAtspDmv+5ACeql3TjL0sEAFbwM80fACeqn1zofACAA7hb9amWiYD/sNA5AcCwDnrJ/ZI2bxH8+Bn3csqF1a2q31rgtgCAm3F29SctcxXgRPUTeaMgANgKj2yZJwSeOl5a3XKRMwMAbtJ/b7kAOFG9urrLImcGANyo21bvbNkI+ED12CVODgC4cQ+vrmjZCLiyel6eFwAAq/q+lg2AU8er8lHCALCaY9UrWicCLmlzNcDbBwPACu5Yvbt1IuBE9efVE2Y/SwDgeh5WXdp6EXCi+uXqS+Y+UQDg2r62zZP01oyAE9XvVV8587kCANfwPa0fAKeOV1dPy3MEAGARP976w/+ax19Xz68e1eazDACAGRxruY8OPuzxrurHqqdUd5jp/AFgJ8xxr/h49aLqGTOsPZWrqje1eajgj9u8muAd1WfW3BQALGWuy+JnVT/fdkfAdV1dvb9NCLy/+kR18cnjkpP/eymXtHmnxX10ovrk2puY0Weqy9bexIw+1eZnZR99ts3POwxhzsfFj1c/VX3zjLcBwMFc3CZy9tHVbeJ0Xx3mjsXV1Yer91W/3uZK9w1e3Z77iXFntHnc/Tkz3w4AcH0fq36ozRPir3Vlealnxj+3+tF8kA8ArOHNbZ4E//5Tf7DkS+OeVv1sdasFbxMA2PhA9ejqL2r518Z/SfVL1X0Xvl0AoN7SJgIuOb7wDX+ozVWAh1QXLHzbADC6u7d5Kfxr1np3vGPVv23zkb5nrbQHABjRJdX9lr4CcMqJ6nVtXqJwYXXnlfYBAKM5u3rPWgFwykVt3jr4nOrL8n79ALCEM9YOgNq8LvHXq9+sHlnddd3tAMDeO74NAXDKX1UvaPPYxCPyUb4AMJdbblMA1OaZib9f/e/qTm1eLeBhAQCY1sXbFgCnXFy9rPrFNg8JPCghAABTede2vzXvn1bPrB7eJgj29VPIAGBJb9y1e9XnV/+i+o68pTAAnK6n7FoAnHLX6luqb6/uv+5WAGCnvLP6ol0NgFPOqB5XfVP11OqO624HALbe06tf2vUAuKazqye0ObEn5/0EAOC6nl99V+3vM+uPVQ+rnlQ9vvry6tar7ggA1vWL1TdUn639DYDrOqvNRxE/6uR/PrjNSwu92RAA++6K6odOHidO/eEoAXBDzmzzqoL7Vfep7lud1+aDic49edz+5P/31okFAHbLp6uXVj9Qvee6f/n/ATE3FyeaOFq/AAAAAElFTkSuQmCC;" parent="kfbQjCIQF7K4VHMFwIz1-6" vertex="1">
          <mxGeometry x="30" y="10.548717948717949" width="43.15384615384615" height="43.15384615384615" as="geometry" />
        </mxCell>
        <mxCell id="kfbQjCIQF7K4VHMFwIz1-14" value="" style="shape=image;verticalLabelPosition=bottom;labelBackgroundColor=default;verticalAlign=top;aspect=fixed;imageAspect=0;image=data:image/png,iVBORw0KGgoAAAANSUhEUgAAAgAAAAIACAYAAAD0eNT6AAAACXBIWXMAATr1AAE69QGXCHZXAAAAGXRFWHRTb2Z0d2FyZQB3d3cuaW5rc2NhcGUub3Jnm+48GgAAIABJREFUeJzsnXeYZUW1t9/uSQzDRIYwM4QhJ0EyIjkKKIqK4TOgoqJgQEyg3uvFdAUzGBAUlWDAjKCIBBEBFQWJkmHIMAxMYGBy9/fH6r5z6OlwTp/9q9r7nN/7POvpiVW1ateuWrtq1VpgjDHGGGOMMcYYY4wxxhhjjDHGGGOMMcYYY4wxxhhjjDHGGGOMMcYYY4wxxhhjjDHGGGOMMcYYY4wxxhhjjDHGGGOMMcYYY4wxxhhjjDHGGGOMMcYYY4wxxhhjjDHGGGOMMcYYY4wxxrQIHbkbYNqCscAawHhgEi8cd5OAecBiYBGwoOf3yxO30RglHcRYXwMYA0zs598sBRYS438BsCJZ60xbYgPAFMFYYAtg8xqZAUwD1icmvUZ5GpgNzAEeBGYBD/TIncDjzTbamAKZCmwJbAxs1CPrA2v3/N1awIgGy3wGeAx4tEfuAe6ukaVFNNy0LzYAzHDYEtgb2BXYGdgGGJm4Dc8AtwG3AzcC1/f82l9NRkknMf53BXYgxv62xEKfkqXALcA/e+Rq4L7EbTAVxwaAqYeJwMuBQ4ADgOl5mzMgCwlj4DrgKuDanj8zZriMBV4K7NPzcxdgQtYWDcyDwJXAH4FLgGfzNscYU1UmAu8iJpIlQHcFZRlhBHwe2IPGt2BN+9EJ7AacTHxVLyb/OB6OLAIuAt5O+N4YY8ygdAAHAT8Gnif/JFa0zAHOB95I/05Ypj0ZD7wO+BHwJPnHadGyEDgH2Bfv+hpj+jAGOIo4U889WaWSxcQX0lHYGGhHVgcOB84lFsjc4zGV3A0c36O/MaaNmQB8mvgyzj0x5TYGfgu8GhjdVI+aMjMKeCXwK2KLPPe4yymzgU8wvBs6xpgKMw44CS/8/clTwOnATsPuXVM2Xgx8ndbc3m9WZgMfxTsCxrQFhxN36nNPPFWQfwHH4K+kKjKGONe/jPzjqAryCHEcZh8BY1qQ7YC/kn+iqaLMI3YFtmy4101qNie+9p8h/7ipolxNxDUwxrQAo4ATqe5VvjJJF/FFeTj+UiobewI/J0JI5x4nVZelwCnELooxpqLsANxK/gmlFeVG4M2kj4BoVjIS+H/EUU3u8dCKcgvhP2GMqRhH0Zp3+csms4hrVavV9VRMEYwixvdd5H/+rS6LifHtHS9jKsAE4NfknzjaTR4CPkCEjjUaVgPeR4S8zf28201+iSMKGlNqNgX+Q/7Jop3lMeA4HE+gSEYB7yUy4uV+vu0stxHZDo0xJeMAIoVu7knCEnI/sU3t/APDpxN4C3Av+Z+nJeQpIjGSMaYkvAF7+ZdVbieiz5nGOAw7sJZVFgOvHfjRGWNS8V5gBfknBcvgch2w+wDP0KxkcyJHQ+7nZRlclhNBsowxmfgo+ScCS/2ygsg4N6OfZ9nuTAK+RtxBz/2cLPVJF3BCfw/TGKPlePJPAJbhyXPAp3CgFQgfiWOImPS5n4ulcekC3r/KUzWVwHc7q8lxwLfw86s69xCG3CW5G5KJvYHTgO1zNyQxC4jERHN6fl97Y2QMkZhnAjA1cbuGSzdxFHlW7oaYxvACUj2OBC4gPKTLyjLiytaDPTKr5+djxNnhXGLSmFfzfyYSSXd6ZSqwPjAT2KhH1knR+AxcSGylPpC7IYnYEPgS8PrcDRExl3D+/E+P3AE8TtzSmUMcc9TDaGLMb9YjWwE7AztSvngTKwjHwAtzN8SYVmUPypnH/BEiUMhHiJjsqslpdSJN7zHE18aNtM6Z8XPAx2nt0MIjgY8Ruubu76JkIXApcaRzADCtsN4amJHAbsB/Ewm+yuIE/BzwEqHexrQtmxJfD7lf8m5i0f0Tse23vlLpOhhDTIYfJxL1lNFAakT+TXzltRo7E7rl7t9mZQHwB+Ak4lZHGQy2aUQUyn+Qv39mE7t1xpiCGEck5sj5Yi8Gfgu8DZiiVbcpxgIvA75Cde+RLydS2q5RcN/kYA1Clypn6XsCOJMYV2WP8Lgj8H3ifc3VXzcRu3XGmCbpAH5Gvpf5MWKrcW21oiK2BD5NhDHNvZA0KvcD+xXfJcnYj/BryN2Pw5FZhOGyF+X2txmI9QgHy1w7Yj/Wq2hM6/Mh8rzA/wDeRPm/eBphG+AzwN3kX2DqlS7gm8QuUFUYR7S5i/z914jMB74L7Fp8l2RjJvAL8vSnrwca0wQvJv1W3l3Avgl0y0kHsD+xs5Jzq7QRuZf4Gi07e1G92P3XAG+nWkZWo+xFOAym7NdFwLYplDOm1RhLXCVK9bJ2AV+lfNeL1KxFRFSsQm75FcCXKeeuzGjial9ZPNKHktnEeN9K0Rkl5lXE8Uaqfr6VSONsjGmA00j3kj4NvCKNWqWlAzgEuIL8i9NQ8k/iXnhZ2JRoU+5+qUfuBN5Ne0dhHAecQbo+/3oatYxpDV5Kui+p2/G1nb7sBPyUCGiUe8EaSBYQ6YZz81aiLbn7Yyi5hvj6raJDn4o3E3EM1H2/AscHMKYuxhDRw1JMilcSSVhM/2wEnE65YwucB4xXdcAgjO+pO7f+Qy08v8ZZGAdjGyJSofpZ3EY5j66MKRWfJc3k+Dvaexu0EWYA3waWkH9R60/uAXaRab8qu/TUmVvvwRb+84jUwmZopgA3oH8un06lkDFVZCPSfG3+Flvjw2FDIshKGY8GlhJhdpX5PTp66iirIdQF/AZ4kaoDWpjJwL/QPp/ngA1SKWRM1fgV+knycrz4N8umRKCTMt5zvxRYV6Dzuj1l59ZvILmM1rq/n4PJ6J05L0imjTEVYj/0k+QNRJpRUwy7Es5luRe/vvIEEeegKPYn0tfm1qs/uY5qR0ssG2sRmTuVz2zvZNoYUwE60FvejxNn2aZYOoi0tveTfzGslWVEiuFmOYFyHnncCxxRgH5mVXZGexT5t3SqGFN+Xo12slxKpOk1OlYDTqR8V+LOZ3jBncb2/N/c7e8rzwKfwA6sat6O9jkenkwTY0pMJ/qsdR9Opo2ZQb7Y6wPJDYQDY71sSBqv8EakizBIvIuVjrPQPc+bcEwGY3gD2onzT2g9w03/HEq5YuLPpr6z8v2Ap0rQ3lr5FxEcy6RlAvAIuud6ZDpVjCknN6J7wZ4BpqdTxfRhLPA5ynNtbhlw/CDt/RDlOu9/CngX/lLMyRHonu+/EuphTOk4GO0E+u50qphB2BK4lvwLaq+cywv9Asb2/FnudtXKjwmPdJMf5fXkAxPqYUypUCaeuRpv/ZeJTsKj/jnyL67dxNfXBj2iDgDTiDwEvHyYfWw0zEA3bi9LqIcxpWFbdJPoCmCHdKqYBtiMMM5yL7TdhF/A7BK0o3fMfpM8eQ3M0HwJ3bN35EbTdnwX3Qv1k4R6mMbpAI4hrrTlXnjLIPfgYD5lZyq6K67fTqiHMdmZgG7yX0qEqjXlZzPgH+RfgHPJMiL5le/0V4MvoBkHC/DOj2kj3oduUv1OQj1M84wibgosJ/+CnFLuBnYroP9MOiYD89GMh2MT6mFMVlROVwvRJIIxenaj3Cl2i5RzgTWK6TaTmNPQjIl/pFTCmFxsjW5i/UpCPUzxTKB81/GKlCeBVxbWWyYHW6HLgrlVQj2MycIpaF6eFcDGCfUwOt5K6zkIXoqDUrUKV6IZI19IqYQxqekk7jkrXp6LE+ph9GwF3Eb+hbtZeQ54L45J0Uq8Ds1YeQiPE9PCvBTdRHtoQj1MGlYHfkD+RXy4cisRBdG0FqOI4xzFmNk9oR7GJOWraF6ae3G89FamikcC5wLjFJ1hSsEZaMbNl1MqYUxK7kPz0pyQUgmThS2A/5B/YR9KFjF4wiHTGuyPZvw8gI8BTAuyA5oXZhkRpcu0PpOAi8i/yA8kdwMvlmlvysQIdMcA2yfUo63xtnE6VAlOrgLmiMo25WIecY3uJOIqVpm4ENgVuDl3Q0wSVgC/EZV9mKhcY7KhSgDz3pRKmNLwCmAu+b/6lwAfFOtqyokqnfnVKZUwRs1EIkZ/0S/KcmCdhHqYcrEZ+f0CrgZWUytqSslYwuej6DG1jJgzjWkJXo1m8v1LSiVMKZkIXEJeI+BPxJVF036oggK9NqUS7Yp9ANKwv6jcX4rKNdVhPnEccGrGNhxERPqbkLENJg9XiMrdV1SuMcm5GY2VvH5KJUzpeRdxJp9rJ+AfRMY40z68BM1YsjOpaQkmEx6zRb8g96RUwlSGvYlbIbmMgH8Da8m1NGVhJHE7pehxtAIbk3J8BKBnLzT97PN/0x9XszK1cA6272nDjEz1m7QsB/4pKLcT2ENQrqnBBoCel4rK9VUZMxD3EYbnvzLVvyURn2LDTPWbtKjGmQ0AU3muQLPV6snVDMU4IktkruOAB4mriqa1eQ2a8XNZSiWMKZoONMFaZiXUwVSbkcD3yWcEPIqNgFZnAzRj5xmcF8BUmM3RvBjnpFTCtAQnEuGDcxgBjwNb6VU0GXkczdjZNKUS7YZ9ALTsKCr3OlG5pnU5FXg34bSVmnWJYEGbZKjbpOEmUbk7ico12ABQs52oXN+RNcPhbOBQYEGGutcjHANtBLQmd4rK3VZUrsEGgJptBGV2A7cLyjXtweXEDYFHM9S9HvBnbAS0IneJyt1aVK4xcu6l+DOxe5NqYFqVjYA7yOMT8BCwsV5Fk5B90YwVlWFhjJSxxHlr0S+EKge3aT+mANeTxwh4EBsBrcQ0NONkOTGXGgE+AtCxBTBCUO6tgjJNe/IM8DLg7xnq3oA4jtgwQ92meB4nElMVzQh8jVSGDQAdqq8bGwCmSOYS2fyuylD3RkSgrOkZ6jbFozqe9E6RCBsAOlSD9jZRuaZ9WQgcBlySoe5NiIhvUzPUbYrlEVG5NgBE2ADQoRi03TgKoNGwCDgC+GWGurcmjgOc/a3aPCwqdyNRuW2PDQAdCgNgDjFRG6NgKfBG4IcZ6n4x8HtgjQx1m2LwDkDFsAGgYwNBmSoL25heVgDvAs7MUPfuwK+AMRnqNs2jMgBmiso1RsZ8fAXQVJcO4CvkuSL4WyKJkakWe6MZD8+kVMKYZhmH5kU4PaUSxgCfIY8RcB7eoawam6EbD44FYCqD6kX4WEoljOnh4+QxAs7A6WCrxBR0Y8F+AKYyqLbC3phSCWNqOJE8RsAXUyhnCqGT8CFRjIM9E+phTFMcieYl2DulEsb04VPkMQI+mEI5UwhPoxkDr06pRLvgMzYNa4rKnSsq15h6+ALhE5CabwBvzVCvaRyVw94UUbltjQ0ADarBOk9UrjH1cjLwucR1dgBnAwcnrtc0jg2ACmEDQMMkUbkLROUa0wifBk5JXOco4BfADonrNY2h2qW0ASDABoAGxRFAF/CsoFxjhsMnSO+gNwG4FGeHKzPPi8p1mGgBNgA0KMKZLiCMAGPKwieBUxPXuRaRtGidxPWa+lAZABNE5bY1NgA0jBaU6fN/U0Y+AXwzcZ2bABfjvAFlRJWrZHVRuW2NDQANCgPA5/+mjHQDxxNBe1KyM5G5cFTies3gqHYAxonKbWtsAGiwAWDaiW7gfaTPIvgy0hseZnC8A1AhbABoUGQzWy4o05ii6AbeTXjqp+SdwEmJ6zQDs1hUrnMBCLABoEGxA7BCUKYxRbKCCNhzeeJ6/xd4feI6Tf8sFZW7mqjctsYGgAbFDoANAFMFlgCvAq5JWGcHcA7w0oR1mrSMyN2AVsQGgAbFDoCvAJqq8DzwCuCmhHWuBlwIbJqwTrMq3aJybQAIsAGgwUcApt2ZTzjp3Z2wzqnARThoTE5sAFQIGwAafARgDMwGDgUeS1jnlsBv0byDZmhsAFQIGwAaRgrK9BGAqSL3A4egSxLTH3sDZxK+ASYtKgPAa5UAd6oGxde6dwBMVbkVeDmwMGGdb8PXA3OgMgB8DVqADQANywRlegvMVJm/A68hbgmk4vPAKxPWZ3SRGW0ACLABoEHxte57sKbqXAYcRbrjrE7gx8C2ieozOt8LxUdV22MDQINisDoSlmkFfg58PGF9awC/I7IIGj2KG1BgA0CCDQANiu0qGwCmVfgq8I2E9c0EfobGOde8EJUB4CMAATYANCjiYfsIwLQSHwbOT1jf/sDXE9bXrqiOAFRZBtsaGwAaFN7O3gEwrUQ3kcjnioR1vh94T8L62hHVDsBzonLbGhsAGmwAGDM0S4HXAbcnrPN0YK+E9bUbqp1KGwACbABoUAxWHwGYVmQuETL44UT1jQZ+A2ycqL52Y7yo3JQxJNoGGwAaFAaAdwBMq/IokTxofqL61gR+gY1qBRNE5doHQIANAA3PCspcHV2QDWNycwsRKEiVT74vOwLfTlRXO6EyABaIym1rbABoeEpQZgcwRVCuMWXhSuBodOFk+3I08O5EdbULKgNgjqjctsYGgAaFAQCR7tSYVubHwGcT1vdNYJeE9bU6KgNgtqjctsYGgAYbAMYMn88A5yWqawzwKxwpsChUBoBqTm1rbABoUA3WNUXlGlMmuomt+WsT1bc+sfPghFvNMZrwVVJgA0CADQANqu0q7wCYdmEJ8Crg3kT1HUTsPJjho9xF8RGAABsAGnwEYEzzPA0cTsQKSMEniZsIZngo5yfvAAiwAaBhPpq85z4CMO3GnUS0wBTZ4DqAs4FNE9TViqjmp0U4EqAEZ8fSMQeYUXCZ3gEwgzGSVSOxTaR5Q38ecS7f3fPr1FwBHAd8L0Fdk4ggQbujSerVyqjmJ3/9i7ABoOMpijcA1i64PJOW8YSXdK1MIhbp3t+P6/k5uufXqxFRIMf1/Nl44r2dRDitTUyqwUpWsDI4yzJWhmpdRCyc84hdsOeIwFhLev59379f2PPrecTOWa/03UH7PrA58DGJNi9keyJl8fsS1NVKqAwAn/+LsAGgQzFo1xeUaRpnJLHdObVG1u75WfvnaxHBmyYSC3ZHjsaKGAFMrvl90cZpr5FQaxQsIAwDVcrZWo4DriJ2A0x9qJwAvQMgwgaADsWgtQGgZQwwjdi5mQZMr/nZK+viiIwpWI3o63UztuF7wA3A/RnbUCXWEZVrA0CEDQAdiuxmvVvGOc5hq04HsZjPrJENgQ2A9YiFxj4WppaJwAXAHqTLUVBlij7y7CVVpsi2wwaADtVXw/rYABiIqcBmwEa8cJHv/Zli69i0FjsDXwI+lLshFWC6qFzvwIiwAaDjAVG5GwC3isquAqOJL/ZtgK2JvO4b9/x+WsZ2mdblg8BfgN/kbkjJUe0A2AAQYQNAx32icjcQlVs2pgLbEQv7loQH+GaE/q3kTGfKT298gBuBBzO3payMRHdLyQaACBsAOh4mrkeNKrjcVnMEHE0s7FsTi/1OrPyyN6YsTAZ+DuyF/QH6Y100uRSWAo8KyjXYAFCynDACil7IqmwArE8s8C8GXkR84W+Ck7CYarArkar4pNwNKSGq8/9ZRMwJI8AGgJb7Kd4AqMoRwHRise+Vncl7pcuYIvgYcHmPmJWo5iVv/wuxAaBFMXjLuDU+mdi+3wPYk1jw7ZBnWpFO4BxiF2tO5raUiZmicm0ACLEBoEVxE2AGsAYrQ6+mZgThlFe72G+dqS3G5GA6cC7wciI/golrtgpUt6kMNgDUKKzXDsIj/kZB2f0xDtiBlQv+HrwwBKwx7cihwLHAd3I3pCTMFJXrHQAhNgC0qAbvlugMgHWAfYmFfg/CUc/jxJhV+SpwNXBb7oaUgJmicm0ACPHErkUVC2CLAsuaCOwD7A8cQJzl+569MUOzGvBT4nbAosxtyc1MUbk2AITYANAyF3ic4h3imjEAxhJf9gcQi/5O+BqeMcPlRcBXaO/UwVMJv6SieYSVKaeNABsAem6heANgywb+bSfxhXIQseDvjmPiG1MkxwKXAr/L3ZBMbC4q9xZRuaYHGwB6bgFeVnCZmxELe9cAfz8FOJjwUj4EZ7kzRklvqODtiB2/dmMrUbntnPMkCTYA9CgG8epEQpyHav5sY+Bw4BXEmX7RIYiNMQMzFfgRYXC329VAlQFws6hc04MNAD2qQbwzsCNwWI+oMnEZY+rjYOBoYjegnfAOQEWxt7eeUUTQntG5G2KMkfMcESVQdQOojNwPbFRwmUuA8URCNSPCBkAabibOB43pSzcwj7hGtpi4ObIEeJ7wgF4CPEssLIuB+TX/dh6RKGV+nzKX9vz7Wnr/Ty290ST7enCvRtwWqWUNVj1WmkjcIJnU8+9X6/n1GCKA1PieX08gjq3GEEGkesufRGvOQX8GDmRgH51WYiwxjjoLLvdmYPuCyzR98BFAGm7BBkA70LuAzwUeIxzC5g4hs4nMkTmZnbHusYRRMJhMI8Lv9v5+CuW+ybIf8AHgtNwNScAWFL/4A9wkKNP0wQZAGnydpbosJO4jP9nzc3bN7x8FniAWe99XHh6LeuSxBv/fBMLvZZ2an+sBa/f87P294n56PXwR+CNwV6b6U6E6/3d0xQTYAEiDDYDy811isn6CWNh7F/i+W+mmHCzokTuG+HfjeKGhsC7x1fpeaetiZ+McIn9G7h0eJSoDwHOmaRmmEWe9lnLKDwZ+dKZF+QFpxtanUimUiV+g6bd1UiphjJonyb/QWVaV+4ntZNNejAPuRj++lhHhtluV2yi+z3L6pBhTKNOBTxAe27kXO8sLZTnw0oEfnWlx9iDGgHqc3URrBuYaSTi+Ft1f84CPAWulU8WY4hgFvAa4mDQTTKvIYuL6T6rdks8O9ABN2/A50oy1/0qlUEI2Rz8f/JRIT96K10VNi7ENkSPc2/2DyxPEXenvAicAhxKhjDuJSeX5BG34B635VWYaYxRwPfrxthidw1wujiDdnHEn8GFgzSSaGVMnE4BjgL+Rf2Etmywnwnn+EDgOeAkR/GUgOoC/JGjXQiKhkjEQtwIWoh9316K5M5+Lz5B+TlkEnA/slUA/YwZkR2Jhe478C21Z5H7gZ8BHgL1p/A72sYnaeUyD7TKtz3tJM/Y+kEqhBPyevPPN7cD7CIdOY+SMIM72U3ylll2eBy4HPk1s4Tebcnh9IqStut0XNtlO05p0ABehH3/PAhsm0klNWY46nwa+QMR4MKZwxhNfjXeSf7DnkmXAv4BTiDjnqzXVo6tyYQIdnsT3i83ArEWEb1aPwyuovlPbBuSfk/rKEuBc4EVCvU0bsRGx4D1D/sGdWvou+H2TwxTJWxLo0wW8QqiDaQ0OIcaKejwelUohEa8h/xw1mFwDHE71DS2Tgb2BXxOZ1nIP5JRyG7HgH0y6c7W1gKeEOvXKGYn0MdXnLPTjcQ7V3o36Avnnq3rkJuCt+MaPqYM9ie253IM2lSwjLOUTCU/oHPx0iDYWIbOIYxxj6mEccB/6cXlBKoUEXEr++asReRA4nnJnkTSZOBD4K/kHaQp5Ajib2MLLlSmtl8PR69sFHJBKIdMyHEyao4BXplKoYOaQfy4bjtwHvAMnwjO0zxf/7cTW/p6U5x7y6sAD6HX31r8ZLt9DPz4fJL8h3igbk39Oa1YeIBy7bQi0IQcRW9+5B6FS/kFEzlq/oD4rmq+SZnJ1oh8zXCYCD6Efp19KpVBBHEn++a0ouZvwERhRaA+ZUrIfEY0r96BTyY3AScTthTKzPeF/oOyLLsLQM6YZUtwKWApsm0qhAjiF/HNd0XIn8EZ8a6Al2RT4OfkHmUJuB04Gtiyqs8R0Ateh75czUylkWp6z0Y/Xa6jO4nM5+ec9lVxPHJWaFmASYa0qUlbmlAeA06hmnvH3oe+fRxg854AxjZDqKOCdqRRqgg5gLvnnQLVcRPl3Us0AjCSSz6S4X55KniYW/R0K7KfUTCNyfSv7qYvYtjWmSA5D/47PofmQ2mq2Iv9cmEoWAf+LrxBXigOBW8g/eIqQFcTW4DGE13zVuQB9n30/mTam3fgh+vH7g2TaDI9USZPKJHOIGAJ2FCwxmwKXkH+wFCGzgP+hdZKGQHyVq/vtYWK71hgFk4BH0Y7hLiISaVlJEbirrHIzTkNcOkYSkeyeJ/8AaUYWEy/XQZTnrn5RjCVNZLWXp1LItC0pglfdDoxOpVCDqA2gsksXESraPkYlYEfi6lvuQdGM3ETkCJ9ScN+Uic+h78efJdPGtDspbhSdlEyb+tmc/PNlWeRx4PXNdacZLmOBU9HfJVfJMmIS2aPojikhmxLONMr+nItzgZt0TEfvzLqQ8gXxejcaXc8Czqeat7UuIlIjm0TsRQRtyP3ghyPzCU/+DQvvlfJyMfp+fU8ybYwJUlxnLduu1vlo9HxRT/mTCIfn20X1qOQ54hjaToJCJhIe3ikSdBQtdxDes6lS7JaFFOel19J6PhOm/HQCf0M/vvdNpE89PEzx+j3GqgGQOghfqF9RrV3e64FtGu1UMzQ7A/eQ/wE3KtcQi2BVInwVyRgizrayf5cBL06lkDF92JYI46sc47dRjoQ1m6DR75wh6l2X+Lp+QFR/0bKop73+KCmADuBj6F+yImUh8B2qE5pXxX+j7+svJNPGmP45Ff04/0AybQbmaDS6vbXO+kcAbwD+KWpH0fJ7YO06dTP9sDbwR/I/yHrlKeC/gMmKzqgYM4lzMWV/30s4gxqTk9WB+9GO9WeAtVIpNADnULxeXUR00EbZl/AtKvtx8BNEBEnTIPtTnfumTxBbPu12vj8Yv0bf7870Z8rCy9CP99zJrWZRvE63NNmmzQin6jLHgOkinl0rRHKVM5KIvbyC/A9uKLkHeBflDdiRixST4fnJtDGmPtQR8laQL/nXzDraNxz5akHtmwZ8kXInKbqVaqV8Ts5U4C/kf1BDyX3A2/CVj/4Yjf6K5tP4bM2Uj3XRL0DXkseh+J3DbO9QUnTSrgnApymvIfAc4cdg+rA1caab+wENJrOIL/5Rmi5oCU5A/xyqkDLVtCfvQT/+j0qmzUp+1UR7B5LF6LbFJxPRRxcI2t2sdBG7Fb4l0MMh6KNqNSOPEKmFvdU/OFPRW97X0Z5XKk016AT+gfYdeIy06WlHo1lIr0jQ9jWBU4ibWbnXkb7ye5yQNWS0AAAgAElEQVRPgGMo7xW/Z4GTsad5vXwb7fNYAeyaTBtjhsdO6H2YPpdMm0ivrtDhwwl1mEoYAuqbSY3KPbRp4KBRwBnkfwD9yWLCOWVNmfatx9boI3bl9oI2pl7ORvsuPE+6PAFfE+mQI07KDOI6Y5muD84ngsW1DZOAy8nf8X1lBXAe7RWnvyguQftsniaseGOqwNroj8POS6TLXYK235uo7QOxC+FQmXvNqV17PirVuCSsQznT914P7C7Uu5U5DP3zOS6ZNsYUwwfRvhNd6I/EVOF/vyFud70cTrlCDJ9GC/s4bYjGmmxGHiX8EOyROTxGErHKlc/oVsoRC92YRhgB3IT23VA7xX5I1O4yBfEaSwRyK8uNgXNowfluCzSZpIYri4mAQ2solW4D3o/2OXUR6Z+NqSL7oD9vfq2w/ZcK2vsskSisbKxHmgim9civKGcfDYvNKFdY36twop4imEzkP1A+K0f8M1VHHSHwfjSLxTjiQ6no9v5a0NYiOZxyfKz+mQhsVGk2pzyL/2zqzzxlhuaraJ/XAmB6Mm2M0bAe8dWrfFc+Imj3EaK2vkvQ1qKZDPyA/LcFrqfCzs8bE0F0cnZgN/EQzwamaNVtK2ai+TqolY+nUsYYMSehfVfmUvxCcZagnV1Uy6g/gAj9nnP9upkKXkmfTv6O6+5pw75aVduS89A+tztx5EXTOowB7kb7zpxeYHs70ezc3lBgG1OxOhELIeduwA1UKGrgFMJzO+fC30UEGrKTX/Fsjz7S2aHJtDEmDS9H+84sJfytimAPURv/p6D25eBgIvV7rjXt71TAJ2AscTUlVyd1Aw9RrmsmrYbCM7hWLk2nijFJuQztu3NBQe38hqh92xXUvlysg37+G0yuoMS3AzqIAZhz8T8HmKhWtI05CO3zW071JwljBkK9e9YF7NxkGzvReMHf02S7ykIH4Z+UK4fNzyhp3Jr/Jd/CvwB4i17FtqYTfRTH7yfTxpg8/BDtO3R5k+17qahdX2qyXWVjV/L5uZUlkuL/cRT5Fv9/UdzZlxmYN6N9js8C05JpY0weZqDPSndwE+37uqhNrRhqfSLwR/Kse+8rQoEiwkjuCFxD+rS53UTs5BOJ7RijYwzhmT9TWMfJwGeE5bcz6wFb9fyc1COTWelZPK9G5hIe4HcQW8GmeD4L/Lew/BuJo4DuBv9fJ+FDNaPg9jxGZC/sKrjcMjCCuCXwwcT1LiecpZvd8WmKqeRJpvAscGQC/UxwAtrn+SgRecw0z/rA0cRxyt+JdKPDfS7zgX8QcTSOJl0K2lZnDeBxtO/UG4fRrv1FbfnOMNpSNd5Der+AZ8i4+91Bnu2Pe4FtE+hngvFEFEXlMz06mTatRyfhnHk68dWufv/u6KnrIErqjFQR3o1+nhzVYJt+IGpLu9zK2p9IXZ5yPbyFiFWQnI8Mo7HNyp9wRL/U/BfaZ3oTsY1mGmMGcfx1P+nfw155BDiFiPppGmME+ngpjZwTjyWOgIpuwzM0bohUmc3QB33qKz9KoVgtOwJLmmx0o/J1vFCkZjJxJqx8rgcm06Y12AG4EH0wpkZkBfA7Yl4w9XMI2ufyBPUHQ3u9qA3nNNYlLcE04HbSvoPJciyMJc1WY+3kckISzUxfPo/22f4hnSqVZyvgXMq18PeVLuAi4r67qQ91YJl6nQ0vFNX/ygb7o1VYC/216VpZSCTfk/PlhEotZnjOLKZ5phLxFVTPdjnwomTaVJfxRFjrMi/8fWUF4fg1XtAfrcZ2xLugehbzGPrYdB00DmxzKXHkugRMIm1k3H8hPm7ZDe1grZVngH2UyphBUaf7ddCfodmLiKCWagIpWmbRPg5gzfAjtM/hC0PU/3FRvT8cXne0FOOBv5DunfsflSKjgNsSKTEHbyPmZAbwPLrnuxjYIJk21WMM8QWdOx95EdLVo4uzOw7MTLQ+Vc8SW9L90QHcJar3kGY6pYVYnXQ7AUsQ7ax+NJECzwA7KRQwdfMdtM+4dKEsS8SawJ9J866llGuJrWbTP99C2/8DheLdR1TfU7SX9/9QrEkEU0vxrv2dgq/oTkd7Hlw7aF5cZMNNw2yE/mvEC0H/bEuewFqp5GF8U2AgpqENEfwcsG4/9Z4rqu/M5ruk5diYdCmFjyuy4eclaPAcnAmuDJyN9jkPdR7ZruxGc1H7qiLziUQqZlVORdv3fXfepqA76tu/mC5pOXYiPoLU79kzxK5D06hTWHYTg/ClRTTWNMVGaMNZPsPK+PNmJduTPoJYTpkH7FJIz7UWU9AE4+mVRUQ+iF4+JqrncRyzZTAOBZahf8++WURjLxE3cjlwRBENNU1zJtpn/Yl0qlSG7YjdL/VkUDZ5Gh/39cd/o+333rj8I9BFkSxk4WlxTkT/ji0j4ocMm70TNLLQswozbDZAe/b/BE7405d1iHNx9TtWVnmM8C8yK1Hn3lgCbEgE6FHVsWfhvdJ6dKL/uO4GftlMI9VRqr7STONMoXwb7bNOnS6z7IwCrkI/AZRdrsVXBPuizr75fSKviqLsBykmzXw7sBaRCVX5rLsY5pX6ncQNuxoYOZyGmcKZQdzNVz3rB2nviGD98U2071eV5PQm+7LVWA3tztAydDEm7OTbGPugD6732+E07BfCBj2Bt/7KxGloB+A706lSCQ5H299VlFc01aOtxzHkfybDkS0VndHinIz2mXQB2zTSoPXReSmuwOFBy8S6aKP+3Y13emqZADxE/om6bPIoMLGJfm01RpIucExR8ndJT7Q+o4H/oH02DYVe/4KwIf/bSEOMHHXM/7ekU6USnEH+ibqs8q0m+rUVeRv5n0kj8n5NN7QFB6B9NouAtetpyGjgSVEj7iLOt0w5WBtt9LG78X3gWnalWln9UssKHB+glpHAfeR/LvXIEiKDqBk+P0P7jD5VTyNeLaq8i7ByTHn4ItoB9450qlSCy8g/Uc8HbgIuJ5yDftvz65soRyTCS4fdu63Ju8n/TOqR36g6oI1YF+07eD913ND4pahyx4YuF+OJfN2qwfYATgZSyz7kmZgfJLbWX019jrfTgdcQ10Jz+SrsVUc724XRxDPM8RwakdeoOqDNOAntc9pnsMonEWcFRVc6n4LiEpvCUGd3fE86VSrBX0k7If8eeBnNZQXrJFK6/iFx2//SRJtbkeNI2/+NytP4mm9RqD/MfjBY5W8VVfqZ4feHETAGbQCKh/GEUMsupJuMrwd2F+iwB3BDQj2cEnwlY4BHSNf3jcq3daq3JZ9H96zmMsjO7AWCCp0Apny8E+2EYG/gF/J99JPwMiLXgvLK5UgiVr06cEk38D2hHlXkePR9PlzZTah3O6J2zj6wv0pHo3FAqMvz0CSjE7gD3eB6DN/0qGUisBDtBDyX2O5PxWHoHQYX4rgAtYwlXS75RuRWpdJtjDJSaL87NvsIKlpEpLg05UF1y6NXPpxOlUrwXrT9PZ88V+deAiwYRnsbEfuRvBBV+t5m5ENSjduXTdCFa76nvwo/LajoJ0X0hCmU69BNBk8Ba6RTpRIoE2otJTJ25mLfnjao9PtjMk2qwTi0mQIbFd/913I1umc3s29llwsq6feswWRjH7QTwonpVKkEE9CmWC5DKm3l2fRiwivarOSTaN/hRuSnYl3bHaWv1tG1FY2g+HPKB2juCpIpHuV1rjl4su7LG9D19yUJ9RgK5S7H6xLqUQUmEI7Vqv5uRBzYTctUdA63L3Cy3VpQgVN8lott0J0pdRMZrcwL+QGavn4e2DChHkOxMZr4Id00mMSkTVBeE6tX7scfeClQHQP8u7aSNwsqcGSocnEWusngeepMNNFm3I6mv7+SUok6OR2NrvYyX5V10Blc9Ypvd6XhE2ie31LiZgkApxZc+ArsHFImpqJN+fvddKpUhgloEv8sIRaAsjEdjUPgcny01B9Kg76eZzJDr6IhAnCpnuOOvZX8quCCby68G0wz/Be6QbQC2DydKpVBld7zZymVaBBVHpF9E+pQFbYkX2bJixLoZ4LR6HZ73tB7hrNpwY2+reDyzPAZjdZb/HdE2l/zQl4kKvd8UblFcK6o3O1E5VaZO4GLM9XtKI3pWEocJSrYrNcA2Kjggh8quDwzfN4ITBOWX8bz6DJQ9DsFcYxzpaDcoriMaGPRbCgosxX4coY6HyISTZl03CIqd+NOIrhE0WdsDxdcnhk+JwjL/htwrbD8KjNTUOa1aBbYolgE/F1QrsKYagWuQdPfg3EmcfRg0qHaYV2nE42znncAysF+wPbC8nN8gVSFmYIyU0/2w+EfgjK9AzAwKd/BJfhaZg5U6+nancBagoLL/JXSTijjdN8DXCgsv+oorkXeISizaP4jKLOMtx7KwoXAvYnq+iURitik5VFRuWv3HgEUzYD5hk0yNgVeISz/a0RgIdM/ivfqAUGZRTNLUKaiL1uFFcS7mILvJKrHvJB5onLHdQJjBAWPFpRpGuM4dJG6ngLOEZXdKqwuKHOOoMyieUpQpg2AwfkRmn6v5SYikZhJzwJRuWNUBoB3APIyFnibsPxvEQ5fpn/GACMF5VbhaO05QZmj8EfFYCxigBzvBfItcflmYJaLyl1N9YWoMCpM/bwZmCIsv0NYtjH90Z27ASVHGZd/HuUOQNXqyJ5tJ+HZWTSrCco09XOsuPz3URNH2qzCEjRWu+JYoWgU2/XLesT0zzi0wb5+hGZnx9SHYjcRYLHKAPCZXT5eQk2MZxFroT1iaAUU2/WKGztFo7j94MVncI5Gl3ulCzv/5WaSqNzFnWheLmXkOTM4yi+BWj6M04EOhuK9mikos2gUd/ZtAAzMSOJdVPEH4sqvyYfqOPf5TjSexdMFZZqhWQt4faK6NgOOSFRXFXlSUOY2gjKLRpED4QlBma3C69Eahl8Xlm3qYz1RubM70QR2KDq5kKmPd5LWAfOkhHVVjVmCMncTlFk0uwrKfFBQZqvwUWHZtwJ/FpZv6mMTUblPdhJnlc8WXHAVvlRajRHAexLXuQuwZ+I6q8IsQZl7UG5HwNUJH5SiqUIApBwcAuwgLP/r+PZFGdhCVO7s3jPcol+wyVTjvLKVOIQ8fa78AqkyswRljgUOEJRbFAehuR3iHYD++biw7CeBnwjLN/WjMvLu7zUAFLGk9xCUaQbm3ZnqPRydhVplVCk83yoqtwhUN0NuEpVbZXYhkn2pOAPNDTHTGJOBjUVl/1+WwVOJrZ4i5UxRo82qTCPuSRf9DOuVs/QqVo7xRCyAovt6CbBuQj3qZQaaMbgcXyvuj1+ge58XobnOaRrnteie8//tLLxZUPgTxLm00fNJ9Iv8YLKYci5KubkVTX+X0TP7W2h09df/qmyCxrjslbPTqWKG4Gw0z3gpNQH7thJVsk/BnWFWpYO4p6uaDOqVz6kVrSDfR9PXi4CNEuoxFJsSRqBCV+8urcpZaN/lF6dTxQxCB5EKWPGMb6itaASwUFDJ6QV2humf/dBOBvXK08AEsa5V43Xo+vsKypGToQO4DJ2er06nSiVYlzAAVf39p3SqmCHYEd1z/l7fyi4XVPIIjhan5sfoBkmj8gmxrlVjPLov427gg+lUGZAPo9NvEbBGOlUqwZfQvsNlvmXSbvwPuud8dN/KPi2q6OCCOsOsyhS0XwONymzssNWXP6Lr76XAvsk0WZX90Tqf/j6dKpVgCpEbXtXf/0ynihmCEcT1V9Wz3rBvhfuIKvKWko4PohsgwxXHBXgh70Hb3wvQBN8ZipcSAcSUur0rmTbV4GS0/X1kMk3MULwK3XO+m34YDcwXVaiMVtXO3Ix2QhiOPI5TBdcyAf1COR84LJVCROwHtU4LiCMUE4wHnkG7KPjWVnn4E7pn/a2BKr1AVKEjShXPLmgn4GakDGfTZULttd1NXAv7NLrc4QCjgM8AKxLoc4ZQjypyItr+zhVIzKzK5kQaZtWzHtDPQxEPoJs4J5zZTI+YVVDduy5CHiFtUqKysxPp+v4GNPkZ9iHu5KfSw1fRVjKWiKui6uvH8PtaJr6D7lnPYZCPhEnonMq8C1Aco4GnSDcZD0eOlWlfTa4ibf//EXg5zW3rjgBegXY7sj+5vIk2tyIfQNvfypwCpjE2JZx7Vc96yCBPyhCT+w6nR8wqHEHaCXk48iBhqJhgT/I8h0eA7xIxCdavo50bEDnmz0QXhGQo2b2OdrYLo4jEUqq+ng9MTKWMGRLl+tsN7D1UA5Teh7ehPaNsF35Fnom5UXmnqgMqivJKYL3yLOE8+mfgwh75c8+fKYKBNSoXD7t3W5N3oe3vL6RTxQzBrmjP/u+jjuBho9GeN71/GB1jVjIFbXCZIuVebPDVsjNpHOiqKsvxjaFaRqAN8/0cTvpTJq5C+37VHajtc8JGPENkrzPD41jyT9SNyFGabqgsZXbezC1lTHKUkzeh7e+vpVPFDMEb0T7rhjI8TkfriPAnHCJ4uFxH/om6EbmbOMc0wTjgfvI/l7LJLBz2t5YO4BZ0/b2ImOdNfqYR3vnK96vhpFo/FzfoY402yLAZ2jMilfiO8Qs5jPzPpEzShUOG9+WVaPvcidrKw8Xo369tGm2UMhNRN7CEOBM19fNZdM9DuePzEDW5pw0Q293K96tK8uUm+7LV6EQbc2ExsF4ybcxgvBP9+/Wb4TbuEnHD7sbbfvXSgW7r+Eoi8pryWX+o+C6pNCOJfle//GWXK7CjaF/U58HfSaeKGYQN0YXf75UumgiqleLu8i+xP0A9vATdM3g18UWgzCz4JDb2+rIm7e0P8BCwVtO92FqMBO5C1+dLiFgPJi9jieyL6nfsF802VH0+0Q2c2mwj24BvoOn7WayMFne6qI5e+VShPdIavIjyR3VUyGyGcS7ZBqi3hBt2BjMSzkf/ji0Ftmy2oduS5u6yQ8cOTCcR0U3R77VhQNcl7garnvE8Io6BeSHbofcCLpPMJfIjmBcyBm0O+KXARsm0MQPxcdK8Z98oqsHnJGjsUuCgohrcYuyLps+fJ7aha/mKqK5e+WIhPdJ67EwsjCkmhpzyDOFgbFbleLR9/4N0qpgBOIQIeKV+z56mwI+taeidFbqJL8Rti2p0C6Fy0Duvn7rWRpvrfSGx02BWZXPgTvTvWS65F9i6sN5qLdYg/GRUfb8Ef/3nZmvSGfmF76h/OFHDnyTORU0wkjgvVfT1PgPU+UVRfb3iO8gDM4XwjE/xrqWUv2KHv8H4FNr+PyOdKqYfNiVdcq1rEDjWjwJuTaTAk9hBqJeXoenjuxk4McSaaHd8FhNXYEz/jAJOo5pBn/rKCiLmgaNBDsxUYvdT9QwWATOSaWP6sgHajI61sgTh2rkrac4vuomERN4ujHM7Rf+eOES9yqBD3fg8sh72QHslTC33A/sV3iutx2lon4Nj/udjGtqETn3lv9UKnZJQmXY/DhhNOE0V3a/LGDoh00RR3b2yHPt71MM44shkGeneuyLG19eB1QX90WpsTHy1qZ7FQpzxLxdTgdtI9979kwQ7basB/0mo1JPAbmqlSooqHvjv6qz/k6L6e+WSBvujndkIOJN0O3DDkS4ih8jmoj5oRdQ5Vz6fThVTwwzSHZl3E4beZkk0I3J2p8xJ/xzwqiSalQvV9cvX11n/OOAxURt6xUlgGmM74NeUyxBYDvwK7+g0ykvQ+nnMBSYn08b0siXpzvx75egUitXyoYIa3sgk8/4kmpWDUcRdzqL7cT4RhrJejhW0oVZuZmUkQlM/0wg/jntJ+x7WykPEkeCGYl1blb+ifT6OvJmeXdDd2hpIzk+iWR86SBMmuK98iYG911uJA9H039kNtmMUcWNA+UyTW68tRAfhaPc10mw53gJ8lbhC2g7voYoj0D6n2Tj3RmoOJbbiU66HN9PYB12hTAHuG6KBCrmA2J5uZb6Fpu+G45X9BlFbeuVRWv95pmI68DYi5vs1NOfI+UxPGWcBRzG046ipj5HAHWjfqROSaWMA3oE2pXp/8jQRX2DYFGHBbw9cS3qP39uB1xLXpFqNDuBhir+7+zAwkzh3bLQ9/0Qbv/1k4DPC8tuZacSV2hnEmXCtQJwV18qjxPv1RPKWtgfHok3JO4s4h14irMMEo4ndt/clrncZseNwReJ6++XNpLV8emU+YQS0Gruh6a9m7gMfJGpTryzEX5im9ZmE/oz4zcm0aW+mEztkOda+4xLo1xCfJ09HdAFfJrbVWgVVrIWXNtmuy0Xt6pXvN9k+Y8rO19C+QzciCANrVmFP9DekBpLCsvwVSQfwU/J0SDdwFa3zBamI/vYwzU8MO6O9tuTgQKaV2QL9ObGv1er5AOnP+3vlp5TYwFuNfFsi3URO9SPlWmrZBk3fnFZQ+9SBSy4tqJ3GlI3fo313/pROlbZkKhGDI9f6djnhc1BqJhNXE3J1UjeR5naSWlER/4WmT/YqqH2bo7d+DymorcaUhUPQvjMrgB2TadN+HAY8Tr417e/AeLmWBTGNvAFKuoEHgf3Vigq4nuL74jGK3TY6XdDGWrmTCli6xtTJKPTh07MEg2kDVidubOTMzHkDFfyg3Rh4hLxGQBeRlCRboIQGWZew5Ivuh6Kd69ZEmyioG/hYwW02JhcfRPuuLCZyRZhi2YX4GMm5ht1CzLeVZDPyGwHdxG5EFZxj3oFG/9cI2voRUVt7ZQFxzcaYKpPCWP56Mm3ag7HAF8jn6Ncr/yT8DipNWYyAbuAnxFd2Wfklxeu8GM3Z0Rj0xzznCdptTErOQPuOPE1EZDXFcAh5otv2lSuo0Jn/UGxGnMnn7tRuItLZeynfVYrRRGCjovVVegYfKWhvrXQR922NqSI7oTnSq5UPJtOmtZlOhJjPvT51E5k1x2jVTc8G5D9PqZW/AS+WatwYB6DR80PCNnegv/b5b5wt0FSPTsJzW/lu3EE4GJrhM4LIMjuP/GtSN+Gv1bLz3VqER2PuTu6V5cB3gXWUSteJKkLYZuJ274reQ/ZYsQ7GFM270M9fL0+mTWuyB3HOnnsd6pVTaYMMmxOIbencnV0rC4BPkPe2gCL6X6pEST8WtL1WnqbCnrCm7ZgCPIX2nfhjMm1aj03R+FsNV1YAH5VqXDJGoIt334w8DBxDev+ATQpoe3/y1UTtXw94TqRDr5yRSBdjmkXt+LcceFEybVqHKcS6s5j8a02vLACOUCpdZo4j0hrmfgh95XqKi5xXDx8S6XFgQh3+V6RD7aTnSGem7OxEjFXlu/DtZNq0BmOIL+y55F9bauUuIm1zW3MQ5XswvfJH4CU61f+PSwVtn0/aaHprEHnklc/jWtrgjMxUlk7CuVj5DsylBe6GJ2Ik8DbgAfKvJX3l91Qwup+KLYC7yf9QBntYO4t0Xw14XtDmX4raOxhvbqK99co7kmljTGO8E/34/3AybarLKOBo8oej70+6gC9Svmvo2ZkCXEn+BzTYg/sdsEPBeh8oau/RBbezHjqAvw6zvfXKHOI2iTFlYi1ibCrHvnNkDM4o4vbF/eRfL/qThcDrZdq3ACOBz6EPntGMdAG/objzaJUz5AYFta9RdkB/BnpuMm2MqY9z0c89L0umTbUYDbwHmEX+9WEguRU7btbNfujPk4uQy4mXsplzaUVchAeaaE8RfJfidaqVLiJwkjFl4AD0sTB+nUyb6jABOIHyRJkdaK46jTjqNQ0wFbiI/A+wHrmFuD7YaPjGqWh2O37YYDuKZgr67dB78Etl8jMGfYTT53G2v1pmEjun6iRLzcqTwCs0XdAedADHU657m4PJ48DJ1O/d+UZRO95eZ/1K3o++vz+XTBtj+udz6Mf5p5NpU252Io5aynh1vK9cCkzTdEP7sRPlviXQV+YCXyEiTg3G90X1bzxkj+oZCdyMtp+XAFunUsiYPmxNjEHlGL+P9t7pGgm8Dv31yqLkeeLjx9eVC2Y8cbasPmsrUlYAlwCH03+Ch1mCOh9qoE/V7IO+j/+KXzaTng7gavTj+/BUCpWMDYjd1IfJP4/XK9cD2wj6wtSwN5q4+Wp5ADiJlVfYNhfVc/4w+1XFz9D37buTaWNMkCLZz++TaVMORgKvAi5Gf5OoSHmWOKpu2Sx+ZWM1IvTsUvI//EZlMbFIf1NUftkWwxlEvGtlnz5DOTI6mvZgGnoHtMUMfYTYKswkfCmqcPOrr1xEvivXbc/2wL/IPwjKJJs31aMaVLkOauUnybQx7c6v0Y/nzyfTJg+rEWf7l1DuuC8DyeM4qE8pGEkkelBno6uCPNZkX6oYCdyIXv9DUylk2pbXoR/H95E3NbmKTmB/4AfAPPLPl8ORLuAsHMe/dGxCnB3lHiA55adN96KO3dBb+g8BE1MpZNqONYEn0L/Hh6RSKBHbE7eiHiH/HNmM3EzaLLFmGBxMhF3MPVhyyLEF9J8SdYTAbuB7ybQx7UaKcL8XJNNGy0bAJ4HbyT8vNiuPE75VdvKrCCOA9xKRmHIPnpRS9jvxk9E/ky7CCDSmSA5D//7Oo9rBYzYlFv1/k38uLEKeB75AXEE3FWQN4i7pIvIPphSTRxXuwx+Fvi8ewWd0pjgmEMdL6nF7XCqFCmRD4grcNVQrRstg0gX8HIdfbhk2Bn5B/oGllCsK6y0tHaRJ+3xmKoVMy3MG+vH6D6qTI34b4ku/FW9gXQe8pLiuMmViL+Av5B9kCjm1wH5SsxX6EKpdwEGpFDIty37ov2yXEWm0y8oIYu78CpGEK/dcp5A7iGt9VdhFNU2yH61nCLyu0B7S83n0fTILn9+Z4TOeiOCpHqdfS6VQA4wHXk1c2ZtN/vlNJXcCb8YOfm3JnsDl5B+ERcjMYrtGzhjgP+j75YxUCpmW43vox+dDlMdI3Zg4z7+M6mRgHa7cT6RwH1lIz5lKsy9wFfkH5XBlTtEdkoi90W+vdgEHpFLItAyHksapLWeyn4nEV/6ZpHFyLIPcA7wNL/ymH/YkrN/cg7RRuUTRGYk4E33/zKI8X1mm/EwiTRa61E+gZpAAABq/SURBVOGrRxKp1U8k5rkq5lJpZg7wF7+piz2AX1KdjFRVjhs+kTQRwnwUYOrlfPTjcQ6wtliPkcDOwMeAP9Ke4dJvAN4EjGqyL00bMp2II/A0+QfyYHKESP9UvBx9H3UBr0ilkKksryLNO/sWQdvHEbuYJxJZ6uYm0qVs0kXscByOvfpNAaxBbB/dQf7B3Z+sp1M9GT9H30+zcdpgMzBTSRPr/w8FtXcdYpE7hQjEo75aW3ZZQoRr3qaZTjVmIDqJL4Q/k3+w98oTUo3TsQ5pdlouTKWQqRwp0vwuYPj547cAjgZ+CNydoK1VkaeAz2Lj3iRke+Bs4FnyDv6L1Yom5O2k6bNjEuljqsM7STP2PlBne9YibiL8F/Bb2i+vST1yK5HzZfU6+9SYwhlLBOG5jDyxsE+Wa5iWS9H32ULia8oYiPvvC9CPu7/Rf7jficTZ/fHEFvbttE5c/aJlMXFceCA+3zclYyvgy6Q5R+yVVybRLB0bEQu0ut+ux57BJjzl/0aahWsr4orhgYSj3i+IgDS5F9UqyB3Ah4Ap/T9GY8rDKCLAxkXorxJulkinlBxHmknls6kUMqXlZNKMtdnAvYnqahVZTMRK2Ad/7ZuKMh34BJGuV/GCtGIM6w7ShGheDrw0kU6mfOxOJOLJvdBZXijziNgFaw386IypFk9R/ItyS1IN0rIeae4x30/kezftxTjsSV9WmT3IczMFUpX801VnQ+KOcdHcISizLDwCfDxBPRsB30hQjykX36Q1j89agbWAdXM3oh1wXOQ0bC8qt5UNAIDvA68BDhHX8w4iiMhdxNfHIz0/HyWueZrqMh6YQYTdXa/n5xbEMzflZTtaJ8ZJabEBkIYdROXeKSq3LHQD7ybu+04S1/XeAf78ecIQeBJ4jJiUHu/59ZM9fzebiO3eJW6jCTqJHbW1icV9HcLXZhrx5Ti9589m4DviVWVb4E+5G9Hq2ABIw46icv8jKrdMPEJc//lRpvpXJ7aK69kuXkz4LdQrj/XI4sJbXR0mEwv25AZkLTx3tTrb5W5AO+CrFWl4CFi/4DK7iBwFiwout6z8jry505UsIXYanu359YKe3y8hDIXev19ApHDt+/e9LCUyvtXyXM+f19J7I6WWDlbdZRlNOMvVMq7nz3uZDIwhDKUJPb8e3/P7MYP8fd9yjKnl3+g+nEwPNgD0rElsDxfNfcCmgnLLyjTgNhwIxJh2YAnxgbM8d0NaGd8C0KPKTNXq5/99eZwIEGSMyc+DwHeJXTlFmu0xOFy3HJ+j6VEZAO1w/t+XC4jJRpFL3RgzMCuAm4jkYxcBN7LyGGm6qM7tiLwIRoQNAD1bi8pt9SuAA/F+InHKzMztMKbVmUOkPr+Y8MGZN8C/e4zwSyk6oNa2wE8LLtPUYANAj48AimU+8FbgKlozDLIxuVgEXAtcSWQ3vZH6r7beDexccHu2Lbg80wcbAHpUOwB3i8qtAtcApwCfyt0QYyrMciIr5pU98jeGfyX1Loo3AHwVUIwNAC1TiYAkRfMs8LSg3CrxGeBgYJfcDTGmInQT+UOuBK4Arqa4SJd3FVROLesTV1MHOnowTWIDQMvmonIfEJVbJZYRzoA3supddWNMvCP/Bq4jds2uJpKSKVAYAB3EHHq9oGyDDQA1qmQjNgCCu4GPENeRjGl3ngX+QZzj30As+PMT1a0wACBindgAEGEDQIsqUM8sUblV5EzgQODI3A0xJjGPE1/21/b8/Df58lHc3VN30bFlnLFRiA0ALTYA0nAccTXQKURNq/Io8K8auQHddv5wWAQ8TKQ+L5J2inaaHBsAWuwDkIangP8HXI6vBprqM48IgNP7df8v4mu/7NyPDYBKYQNAyyaich8WlVtlrsJXA021WAHcS3jm3wbcTHzZP5KzUU3wkKBMHwEIsQGgY01goqjsqk4Qak4G9iGOA4wpE3OJ8N03EF/3/yFusDyfs1EFo/gwWZOIMLhAUHbbYwNAxwaicpehyS7YCiwH3kQ4Q62ZuS2m/egikuTcQzjF3UEs9rcCz2RsVypUO5MbEn1oCsYGgI6iz8J6eZx8nr5V4GHgKCJ+udNdGwVzifPu+4kv+dt7fn0n8FzGduVGcQQAERDIBoAAGwA61heVWwVnoNz8ATgN+FDuhphKspi4afNgz8/eXz9AfN23exTOgVAZAKqPqbbHBoAOlQHwqKjcVuNEwheg6PjkpvrMBp4kdose5oWL/CxsZA8XlQGgOk5te2wA6FBZrY+Jym01lgJvJJyuVM6Yplw8AzxBLOCPEcby431+PgEsydXAFmchcTwyueBybQCIsAGgY4ao3CdF5bYi9wHHABckqm8pcBEwnjA6amX1RG1oBVYQIWznEYv6U8S2+5yan7P7/P5pwgnU5OUhijcA1iu4PNODDQAdqqh0vgHQGD8H9gWOTVDXaCJoyyn9/N1IVhoDk3mhYTCOMBrGEFeexgKrEZnQxtT8/aieP4MIeDShpuzxhWszNMuJ+PNLCee3xUREuOd6/uzZnn8zn1jU5xHX3hbUyLyev6/9s3Z2pKs6DwMvLrhMRUZVgw0AJTYAysMJwI7Abgnq+hzwVyKCWy3Lia9UtQPZKGCNnl+Pobmdh4XEtdNeltBa99ZN8cwWlOkQ36ZSjCdybytkn4R6tBLrE5OT6rnUysPA1DRqGVMqvoTmnRqbUol2oejMTSZQWqxlSgBSJR4mnAJXJKhrPeAcHIfAtB+qHS4fAwiwAaBBOVh9B3n4XEmEC07BYcRVRGPaCdURpQ0AUxlejWYbrAv7bTRLJ+Gpn+IoYDlwUBq1jCkFR6B5l16RUol2wTsAGqaIyl2Irzo1SxfwVuKKoJoRwM+AjRPUZUwZUO0AFH210GADQIVqsDojVjHMA15DGo/2KcCvcRwA0x6ojihtAAiwAaBBFXnuWVG57cgtwPsT1fVi4LuJ6jImJ94BqBA2ADSoBqsNgGL5IXBWorreCnw8UV3G5GIummylNgAE2ADQYAOgOnwAuCZRXV8EXpmoLmNysBzN0ZoNAAE2ADRMGPqfDAv7ABTPUuBIIk6Amk7gxxQfKtWYMrFYUOYaQ/8T0yg2ADSoolZ5B0DDk8TVzUUJ6loD+B2+12xaF8UOwDhBmW2PDQANqsGqsKxNcAPwLuLOsZoNgN/i8KamNVEY0r5FI8AGgAbVYHUecy0/IWKZp+AlRJriEYnqMyYVig8VG8sCbABosAFQXT4JXJyorsOBbyWqy5hUeAegItgA0KCyVpeKyjUr6Y0UeFei+t5LpCs2plVQ+ADYABBgA0DDKFG53gFIwzzgVT0/U/AV4iaCMa2A4gjAOVAE2ADQoOpX7wCk4y7gzaRJH9wJnAfsm6AuY9QojgDsKyPABoAG1WC1AZCWP5Bue3414nrgLonqM0aFwmi2ASDABoAGD9bW4Zs9koLxwJ+A7RPVZ4wCxXa951QBNgA0qAZrh6hcMzgnEF/nKZgEXApskag+Y4pGMf/ZABBgA6Ba2ADIwwrgLcDNiepbG7gEmJGoPmOKRLGueO4TYANAw3JRuX4J8vEscBjwSKL6NgL+jEMGm+qhOAJYJiiz7bEBoMEGQGvyGHE98LlE9W1GHAc4E5qpEortehsAAmwAaFANVhsA+bkReANprgdCZA78PU6GYqqDDYCKYANAg2oHQBVgyDTG74GTEta3O5E8aEzCOo0ZLjYAKoINAA2q+/pOiFEevgKckbC+A4HzsTe0KT8KHwDHQBFgA0CDIhY22AAoG+8HfpWwviOJjIUOi2rKzARBman8btoKGwAanhWVawOgXHQR1wP/mrDO1wM/xcdBprxMEpSpmlPbGhsAGhaKyrUBUD4WE2l9b0lY55HAb4jwwcaUjYmCMlVzaltjA0CDdwDai/lEjICHEtb5cuDX2Agw5aKTCGldNDYABNgA0KAyAHwVrLw8SizKqVIIAxxK3A6wYWjKwng064oNAAE2ADTMFZU7RVSuKYbbiEBBinzoA/Ey4I/AGgnrNGYgFOf/AE+Lym1rbABomCMq1wZA+bmatIGCAPYmcgcotl6NaQTF+T/o5tS2xgaAhqdE5a4pKtcUy++A4xPXuSexE6CagI2pBxsAFcIGgAbVYJ2Mn1lV+DbwmcR1vhS4AhuKJh/ricqdLSq3rfFiokFlAHSiO2MzxXMy8PXEde4E/AkbASYPKgPAPgACbABoeFxYtv0AqsVHgLMT17kj8BdgRuJ6jVlfVK5yTjWmUFYjosR1C2TvhHqYYugkovcpxsNgMgvYQq+eMf/HhRQ/jpfj8NemYsxGM6m/KaUSpjBGAReT3gh4GnhJAv2MgUiXXfQYThlgq63wEYCOh0Xlqs7YjJZlwOuAqxLXOwW4DDg4cb2mPdlAUKZqLm17bADosAFg+rKICBT0z8T1rkFcTXxt4npNe7E6Gh+lRwVlGmwAKLlfVK4NgGqzgAjhe3viescAFwAfSFyvaR82BDoE5arm0rbHBoCOe0TlqrxsTTqeJrbkVWNkIEYApwNfRjNRm/bmRaJy7xaV2/bYANChmtw3FZVr0vIYsD9wb4a6Pwr8AicRMsWyrahcGwCmcmyAzrN7nYR6GC3rEUZA6tsB3cB1wFS9iqZN+C2acbp2SiWMKYIO4Dk0L8Q+CfUwejYgzjlzGAG3E2e3xjTLPRQ/PlWZVY2R8080k/Z7UiphkpDTCHgK2EuvomlhxhEZMIsem39NqUS7YR8ALTeLynV0t9bjIWBf4IEMdU8lYgW8JUPdpjV4EZr1RDWHGmwAqFEN3q1E5Zq8PAQcSJ7AJ2OAc4H/wTcETOOoHABvEZVrjJy90WzZOjVma7MhsROQ4zigG/g5viFgGuOHaMbirimVMKZIJqI5F+tGE3LTlIdNgUfIZwRcB0yTa2laBYX/yjLCt8CYynI7mgn6NSmVMFnYkHxXBLuJEKy7ybU0VWd9NOPvhpRKtCP2AdDzN1G5O4vKNeXhQcI7P3XY4F6mA38Bjs5Uv6kG+4rK/buoXNODDQA9qkG8i6hcUy4eBw4gnzPUGOBs4EwipbExfdlHVK7q48mYZLwIzfbYPGBkQj1MXtYE/kW+44Bu4PKedhhTiyIAUDewWUoljFHQSQRaUbwgL0moh8nPROBa8hoBDwA7qRU1lUF1/u8UwAnwEYCeLuDPorIPEJVrysl8Iovg5RnbMJMwQo7P2AZTHlTOyFeKyjUmOe9BYyX7JWlPxqBLvNKInAesLtbVlJur0YyttyfUwRgpm6J5SRbjCbhdGU0YgLmNgJtwiup2ZV1gOZpxtWFCPYyRcx+aF+WQlEqY0nAcYQDmNgC6CYfUV2vVNSXkvWjG050plTAmBaeheVnOSqmEyc544CfkX/T7k3PxjlQ7cTmacXRqSiWMScGBaF6Wp/B1wHZhW+LrKPdCP5j8G2erbAemEqF6FWPIqalNyzEKmIvmhTkwoR4mD0cBC8m/wNcjz+NbAq3OR9GMnTnAiIR6GJOMn6J5ac5MqYRJyurAj8i/qA9HzgHWKLxHTG460eWo+GFCPYxJyqvQvDSzcZjWVmRL4FbyL+TNyD04YFWrcRi68fKyhHoYk5TRwNNoXpw3JNTD6KnSlv9Qsgw4hRj/pvr8Ac04mY39mUyL8300L89VCXUwOtYGfkf+RVsh1wObF9dVJgObACvQjI9vJtTDmCzsj26C3TqhHqZ4Xkl8BeVeqJWykIiMaarJ19CNjd0T6mFMFjrQOdDYgq4m44h4DrkX55TyB2C9IjrPJGM68Bya8XBbQj2MycpJaF6i+Thda9XYDbib/AtyDpkHvIswik35+S66seBro6ZtWBdYiuZF+mJCPczwGQN8Fl0wlSrJpTj2e9nZDN2ctQiYkk4VY/LzczQv07OEI5kpL3sA/yH/wlsmWUDElvduQDn5Gbpnf05CPYwpBbuje6G+mlAPUz/jgW+h86JuVBZTnoRCvXIVEf/AlIcdgS50z3z7dKoYUx6uRfNCPQ+sn1APMzSvAB4i/wLbK48TRujuPb/O3Z5aWUIcj6w2rJ42RdIJ/BXds74inSrGlIvXoHuxfp9QDzMwU4hQzbkX1Vr5Ny88c59O3NHP3a6+ch+ODJebY9E+48PSqWJMuRgB3IHu5ToynSqmD53Au4nkJrkX0lr5CTC2n/aORZeroln5MeE4a9KyPnFTQ/Vcb8I+H6bNeRO6F+xxYHI6VUwPuwB/I//CWStdwMkMPeEeT3l8FGplYU/7xwzRflMMncT2vPKZHpFMG2NKygi0HuE/TKdK2zMDOB+tw9RwZD5weAN6HE545edud39yF/DyBnQxw0MVq6RXbsRf/8YA8Ea0L9sx6VRpS8YAnyCuYOZeIPvKPQwvRPQ26CJWFiF/ALYYhl5maPZDH5/ilcm0MabkdKB1wlqMU7KqeBWxyOZeEPuTy2guwMqa6LeBm5GlwNeBqU3oaF7IBujzUfwlmTbGVIQ90b50j2BHqiLZF901zmali4gFUURq1ZHEIlu2Y41amQ98isipYIbPJOAWtM9qBbBTKoWMqRK/QPvy3YS/lpplV+Ai8i96A8k8NLc/Xgk8XQL9BpOngBP5/+3dWYxX1R3A8S8wOMpSkKmxYN0obhSX2lGpNbih0QcTg/HBNjXKQx+MiYkx8aFJY3gwbn3oIlFjoq0PJjVpY8SqibuINuK+IRSNcdRiBNxAAQd8+M2EEWeG//zn3nPuvf/vJ/kFnuCec+7/3HuW+ztuFGzHPsSMUdltdHei8ki1cxix29mXgOpZAPybao+EV1JuAqhDgFUVKOfeYi1wCbGTXXvXDayg/Hb5jMg5IWkE11D+D/FV4IBUBaq5o4id/VX8NG4w+oHrKWbKf2+6gBuo9ovQYLwN/I409VJX+wEPk6Y9rkhUJqm2uohMbWX/GNcCxyUqUx2dSoz4q/zg3wVsAM4tqQ5Gcz7lbxYrKtYBS4HJpdREffUQs0Yp2uA5nJGRWtJLmmNitwKXpSlSLUwkdvWn6hTHG48Bs0upidbMIQ7vyV0PrcZ7RGrbKSXURd0cQeRUSFHv3wDHpimW1Ax/JF3HeCcwLU2xKqmbSNu7hvwPqVbiW+L+mFRGZYzRJOLgnqrPlAyNjcSSyUEl1EcdLKHcFL97xjVpiiU1Rxdp08l+AFyUpGTVcTRwC/WZyt5FHJCzqIzKGKcziRF27voZS2wnzhnoLaE+qmgq8FfS7t94Eqf+pbbMI75xTtkprgJOT1G4TKYAl1LuEadlRD/ReVf5W/fpwHLqsUFwuPt+Kc2dCTuD9JkdN/L9UycljdES8nSo/wLmJihfKr3Ewynl1GdR8T/q9VJ2FvWbDRiML4glsV8VXit5TAVuJX0f0o9H/UqFuJk8neE3xKizzG/LyzKR6MRvAd4l/4Ol3U70L1R71D+SadR3NmAw3iQSC9X1Rfgi8r2ILUtQPqkjdAGPkq8j3EaMik4su6DjNIkYff4N+JD8D5DxRN1G/SOp82zA0HiROCFvXrHVU4pFwBPkq6sVuO4vFWomMSLJ3RE+D1xJNc4VmERM7V8N3A9sIn/9jDfqPOofSRNmA4bGy8QI93QihW4VdBHLhU+Rv26ml1xWqSMdDvyf/B3gLuJTtKeIQ1hOJk22tR8Tu82vBR4k/QbJsuMNqrnDvyhnEtn5ctdzkfEVcTTx1cDxpP80sxe4iTjsK3dd9AE/Lbe4KtKE3BegMesllgNm5L6QPWwFXgJeIDr5dQOxgXhZaMVE4iHfAxwIHEPk4B/8s6npiz8HriOWLlqtq7qaDFxF5DFo4khxC5Fq+6WBeJH4Pewo4N/uBuYTSXXOAhZTnVwGm4gXvNdyX4ha5wtAPf0aeIR6TBPvJL6z/4Tvd4LbiJeGfYmH/uCDv5PuyV3A34m15Q2ZryW12cTI9bc0v837gY+B94fEh8CXwNfEZtuvid/HPsRy39CYRzz0j6Ca5xp8QbyMvJD7QqROsZjoNHJP+xntxWpg4Q9atfOcRpqzL4xy4quBNpSU2CKatw7e9NhITIFXIY1vVUwkkjPVKSOjAZuJ2UhJmZwEfEr+zsAYPXYQa/yzhm9GEUtAtxH7IHK3lzF6bABOGL4ZJaU0n/omu2l67ATuA44asfW0p2OIo5hzt50xfLxD7EeQVBE91Oto1k6Ilbg+Oh4nA4+Tvx2N3fEMzf0aR6q1buAu8ncSnR5PE59pqRjnkfZkTGP4WE58ximpwi4ldufm7jA6LVYCF7TQPmrPaTgjkCO+BH7TQvtIqohjqUbq4E6IR4gkKErjHOAx8rd7J8QrwNGtNYukKplMZJhzV3Xx0Q88QKxTK48TgH8QX1jkvh+aFjuAG4hlRUk1tpDIM5+7U2lCbAb+BBw6phZQmX5GHKBkToxi4hXgl2NqAUmV1kUkoLGTbC/WDNRfHdIvd6rpwO+B18l/v9QxPiPu8SqmG5ZUgNnAnTht2kpsBe4BzminopXNBOBs4F5Ml91KbAduJw7gktQBDiN+9O4P+GGsJkZCPe1WripjBjErsJL891XVoh/4Jyb1kTrWPODPOFJ6j9j05I7n5vo5sSl2Lfnvt5yxjdg8OX9ctSmpMeYA1xPHlubuoFLFO8CNuOGpE51CbOZcT/77MFX0AcuAnxRQf5IaqAu4EFhBrA3m7rSKjG+BZ4FrcaSv3RYAfwD+S0yL575Pi4xtwP1EgipPoJTUslnAUuAhoiPJ3Zm1E+uIFKZLgJnFVo8aqAe4GLiDWBbKff+2+9D/D3A5sH+x1aMmmZD7AlQb04hsd+cCi6nmCHo78Q3zKmKkvwr4KOsVqe4OJs68P3Ugjqean8mtAR4lslI+SaQCl0blC4Da1UMkGFoI9BIbig5J+P/3EZu53iAe+i8DbxEvAVJZuoklg18QmQgXAEcSn9em8gFxr68mDkl6HtiY8P9XQ/gCoCLNIM5yn0tkyjuUGEHtTywnzAJ+xOjpRTcTCUkG4yNiY2LfQKwnpvW3lFICqT3TiReBucBBxH0/h3gxmDkkZozyb+wENu0RfcD7A7EeeJtI5iWNmy8AymUCu9fkPyc6P6lT7AfsO/D3LThzJUmSJEmSJEmSJEmSJEmSJEmSJEmSJEmSJEmSJEmSJEmSJEmSJEmSJEmSJEmSJEmSJEmSJEmSJEmSJEmSJEmS1L7vAHHrisnrBQfuAAAAAElFTkSuQmCC;" parent="kfbQjCIQF7K4VHMFwIz1-6" vertex="1">
          <mxGeometry x="31" y="187.16410256410256" width="43.15384615384615" height="43.15384615384615" as="geometry" />
        </mxCell>
        <mxCell id="kfbQjCIQF7K4VHMFwIz1-15" value="" style="shape=image;verticalLabelPosition=bottom;labelBackgroundColor=default;verticalAlign=top;aspect=fixed;imageAspect=0;image=data:image/png,iVBORw0KGgoAAAANSUhEUgAAAgAAAAIACAYAAAD0eNT6AAAACXBIWXMAAA7DAAAOwwHHb6hkAAAAGXRFWHRTb2Z0d2FyZQB3d3cuaW5rc2NhcGUub3Jnm+48GgAAIABJREFUeJzt3Xm8XVV99/HPvZkhJJEkzGOYwyCgDDIoqIggKK11rjiCtbXVaouPdbY+rfo4Ya2z9ilOLVpRcQYVQUFBmWcQBBKGkEAmEjLc5Plj3fuQ8ebsc/Y+v732/rxfr+8r+Cq9/O5aJ2uvs/faaw0gSVIxE4FZwJ7Df24HbD/850xgBjAOmAaMB7bexM9YBiwdzqPDf84DHgAeBO4H7gPuAOYAayv7bVpqILoASVJtbQ0cCBwCHDScA4Cd+lzH48CdwO3AdcC1w7m3z3U0ihMASdKIWcAxwNOG/zwYGBNa0egWAFcAvxnOVaTJgjrgBECS2ms68CzgpOHsHltOz1YAlwM/BX4CXI+PDiRJAtJz+38gXSiHSBfIpuZ+4AvAyaQ1CZIktcquwDuAPxB/UY7KAuArpMlAnR9rSJLUk4nAi4ALgdXEX4DrlLnAuaQ1DpIkNcJ+wL8Bi4m/0NY9a4BfAX8BjO2msSVJijQAnEZa/LaG+AtrjrmX9JhkRsG2lySp7waB02n3s/2ys5T0eGCXAv0gSVJfjAPOIm2OE33BbGoeBz5D/q9GSpIaYIC0sO924i+QbclK4POkrY4lSeq7ZwG/J/6C2NYsAt4FbLWljpIkqQy7AOcRfwE0KXOAM0ftMUmSejAJeDuwhPiLntk4vyQdjiRJUmmeQToGN/oiZ0bPSuD9pCOPJUnq2lbAh2j+Hv1Ny43AUZvoT0mStuhE4B7iL2amu6wGPox3AyRJHRoLvA/3629KbsC1AZKkLdgbuJL4i5YpN0uB1yFJ0iacBjxK/MXKVJev474BkqRhA6TX+1zo145cC+yFJKnVpgE/Jv6iZPqbBcDJSJJaaU/gJuIvRiYmq4E3IUlqlaOAB4m/CJn4nEs6xlmS1HBnAMuIv/CY+uR/gAlIkhrr5cAq4i84pn75JbANkqTGeSOu9Dej5ypgBpKkxjiH+IuLySPXAzORJGXvLcRfVExeuQ6YjiQpW2cBa4i/oJj8cg2wLZKk7LweL/6mt/wOmIwkKRvPw9X+ppz8nD4dKTymH/8RSWqwI4EfABOjC1Ej7Ek6O+CCqv9DTgAkqXv7kr6xTYsuRI1yMGmjoJ9X+R9xAiBJ3ZkCXATsHl2IGuk4YA5pcWAlBqr6wZLUYGOA75Ge/UtVeRw4EfhtFT/cAwkkqbj/gxd/VW8iaS3ALlX8cO8ASFIxLwO+EV2EWuW3wNNJb5qUxjUAktS5vYEL8SQ39dcuwCTSmpPSOAGQpM5MBH4C7BFch9rpacC1wG1l/UDXAEhSZz4OHBZdhFprAPgyJa4HcA2AJG3Zc4Ef4ZjZqRXAAmD+8J9DwOLhP7cm7XS3DelRyg7DUWcuAk4m7RrYEz/MkjS6bYEbgJ2iC6mhhaT31G8n3Zq+dfif/0S62HdqArAz6dvt/qQ7LYeSNsTZurxyG+Ovgc9GFyFJTfcN4veHr0uWktZBnAMcQfXryAZJE4F/GP7vPtbH37XOWUraLliSVJEXED/YR2ch8EXgBGBcT63ZuwnAKcB5wCLi2yYyl+BdfEmqxGTgHuIH+oisIh1w9BLqe8jRROCFwA9Jjxui2ywir+61ESVJG/so8QN8v7MY+BD5LcrbB/gUqf7oNuxnHgaml9B+kqRhTyZ9C44e4PuVBcB7gCeV0XiBpgDvJj22iG7TfuVLpbScJAmAXxI/sPcji4C3kx53NMm2wL+SFstFt3HVWUNakClJ6tEZxA/q/cg3af6rjTsB5xPf1lXn0rIaTJLaajzpPfboAb3K3EHaSKZNTiTtURDd9lXmz0prLUlqobcQP5BXldXAB0iTnDaaBHySdMs8ui+qyO3Ev6YpSVnaGniQ+IG8ijwEPKe8psraScD9xPdJFTm7xHaSpNY4h/gBvIpcDGxfYjs1wQ6kdonum7JzN94FkKRCJpPeqY4ewMvMGuC9eOrr5owFPk18P5Wds8psJElqurcTP3CXmVXAmaW2UHP9Dc3a8+EuvAsgSR2ZQLOeCT8GPK/UFmq+U4BlxPddWXlluc0jSc30WuIH7LLyCHBcuc3TGk+nOVsJX1dy20hS4wwANxA/YJeR+cDB5TZP6xxHc04ZPKHcppGkZjmZ+IG6jDwGPK3ktmmrY2nG44Dvld0wktQk3yF+oO41K4FTy26YljuDtHFSdN/2kiFgj5LbRZIaYQfSxTN6oO4la/BM+KqcTXz/9pr3l94qktQA/0T8AN1r/qn0VtG6Pkp8H/eSe4ExpbeKJGVsgPS+dPQA3Ut+hJv8VG0s6aS96L7uJT4ekqR1HEv8wNxL5gAzS28VbcpO5H1GxLfKbxJJylfOW8CuIr2zrv55JmlRXXTfd5NlpK2uJan1xgLziB+Yu827ym8SdeBTxPd9t3lZBe0hSdl5LvEDcre5jjSBUf9NJt91IxdU0B6SlJ3PEj8gd5M1pLULivNsUj9EfxaKZjkwpYL2kKRsDAD3ET8gd5OvVNAeKu5rxH8WuskLq2gMScrF4cQPxN1kAa76r4tdSFsvR38miuZLG/4ivkMqqU1Oiy6gS+8FHo4uQkB6BfPT0UV04RTSHTBJaqXLiP8mVjRzgYlVNIa6NpU0IYv+bBTNoev+Et4BkNQWWwNHRhfRhY8Bj0cXofUsAs6NLqILJ0UXIEkRnkP8N7CimY+buNTVtsAS4j8jRbLeEcHeAZDUFidEF9CFTwBLo4vQJj0CfDm6iIKOw+u+pBbK7VCXx4BplbSEyrI7aWvm6M9KkRw0UrwzAUltMAY4LLqIgi4AFkYXoVHdA/wsuoiCjhv5BycAktrgAPJ7ln5edAHqSG79dHh0AZLUT68m/tZrkcwl3bVQ/U0EHiX+M9Nprhop3DsAktogt289XycdP6v6exw4P7qIAg4CxoETAEntMDu6gIK+Fl2ACvludAEFTCQ9EnMCIKkVcpoAPABcH12ECrkEWBZdRAGzwQmApOabAuwYXUQBv4guQIUtB34VXUQB+4ATAEnNd0B0AQX9MroAdeVH0QUUsC84AZDUfHtFF1CQdwDydFl0AQV4B0BSK+wSXUABfwLuji5CXbmJfNYB7AVOACQ1367RBRTwu+gC1LXVwDXRRXRoOjDBCYCkpstpAnBrdAHqyVVb/ldqYQDYwQmApKbbKbqAAm6PLkA9uTG6gAJ2cgIgqem2jS6ggNuiC1BP7oouoIAdnQBIarrp0QV0aC1OAHKX0wLObZ0ASGqyQdJGQDl4AFgaXYR6ch+wMrqIDk1xAiCpyaaSz9tOD0cXoJ4NAQ9GF9EhJwCSGm3r6AIKWBJdgEqxOLqADm3jBEBSk42LLqAAb/83w8LoAjo02QmApCbLaQLgHYBmyOUOwIATAElN5gRA/ZbLdsBjnABIarIx0QUU8Fh0ASpFLp85JwCSGm1FdAEFjI8uQKXIZQLgIwBJjbY8uoACJkUXoFKMjS6gQyudAEhqspwmAFtFF6BS5HInZ7kTAElNlsuCLPAOQFPMjC6gQ04AJDXaY+SzDmC76AJUih2iC+iQEwBJjTc/uoAO7RpdgHo2SD6HTy1xAiCp6XKZAGxHPs+PtWkzyGcR4MNOACQ1XS6H7AwCO0cXoZ7sG11AAU4AJDXe/dEFFJDTBUQbOyC6gALmOwGQ1HT3RBdQwKHRBagnOU0A5jkBkNR0TgDUL7lMAFYDc50ASGq6nCYAT44uQF0bBI6MLqJDc4DVTgAkNd2d0QUUsC/wpOgi1JWDgG2ji+jQPZBmLJLUZPcAS6OL6NAY4MToItSV46ILKOBP4ARAUvOtBW6JLqKAZ0cXoK48PbqAAm4DJwCS2uHm6AIKcAKQn3HAc6KLKOBGcAIgqfmeCuwXXUQB+wxH+TiBvNZu3AROACQ10wDpm/SFwFXA0bHlFPbS6AJUyJ9FF1DAMobXAEhSk0wAXke65b824+T0yKLtxgBzif/MdJrLq2kGSYoxBXgz6f3m6AG2rLgnQB5OJf6zUiQfr6YZJKm/9gQ+RXrNL3pgLTufKLGdVJ0LiP+sFMnLqmkGSeqPw4DzgFXED6hVZTHpzobqawdgJfGflSLZs5KWkKQKDQCnAZcQP4j2K28qo+FUmfcQ/xkpkgdJf48kKQvjgTNJ7y5HD6D9zu34tlZdbQ3MI/4zUiTfqKQlJKlkTVzY103+oteGVCXeRvxno2heV0lLSFJJ9gTOpZkL+7rJbcDYnlpUZZtAXq/+jcTn/5Jq6Qjgv0lnlUcPlHXLq3poV5Xv74n/TBTNHZW0hCR1aRA4nXYt7Osmd5G+dSreTOBR4j8TReNrpZJqoc0L+7rNe7tqaZXtC8R/FrrJM6poDEnq1LbAO0mvI0UPiLllOR4SFO0w8nxEtQDXkUgKMovm7tjXz1xUtOFVmnHA1cR/BrrJeRW0hySN6kjgfPL81lTX+CpXjPcT3/fd5tQK2kOSNrLuUbzRA18TsxTYv+PeUBkOJ78tf0cyj3T3QpIqMwF4PXAL8YNe0/MH0kJKVW8b8v5M/1v5TSJJyXRc2BeRT3bSOerJAPAd4vu6lxxdeqtIaj137IvPG7bYS+rFu4nv415yc/lNIqnNXNhXn6wEThi1t9St04Ah4vu4l3iapKSejezY9yviBzWzfuYD+26+69SFY4DHiO/bXvIYMK3shpHUHhOBs8h7EVQbci8e9FKWQ4BHiO/TXvPlshtGUjtMB96FC/tyyl3ArpvqTHVsL+B+4vuy16wBDi65bSQ13CzSa0Mu7MsztwO7bNSr6sRBNOPivxb4UcltI6nBDidtF7qK+MHL9Ja5wJNREUcADxPfd2XlhFJbR1LjDALPBy4lfsAy5eYR4OmoE6fSrDteV5bbPJKaxIV97chy4C/R5gwAb6d5r7M+r8xGktQMU4E3A3OIH6RM/3IeMAmtazJpL4vovik7V5EmNpIEpJXNn6ZZtzlN8QuDrwkmhwA3Et8nVeQ5JbaTpIwdBXyL5t3iNN1lEXA27f2GOBb4J2AF8X1RRS4tr6kk5ciFfWZL+Tnpdc82OQC4gvi2rypDpDcZJLXQRNK3u1uJH4xM/bOUdILjVjTbNOATpDMTotu8ypxXVoNJysd00oll7thnusl9wKtJd46aZCxpQjyP+DauOkuBnctpNkk5GFnYl/uBJaYeuRZ4MTCGvI0nXfj/SHyb9ivvKqXlJNWeC/tMlfkj8Dfk92hgGvAW0h2N6DbsZ24mTXokNdQg8AJc2Gf6l/nAp4CnUm/HAP9BO++ErcHdHqXGcmGfqUNuJO2Ytz/xBoCnAB8kffuNbpvI9Hzcb1vfB5XqbDrw18CbgO2Ca5HWdTfw4+H8Bni0D//NnYDjSd92TwN268N/s+7mkDY06qn9nQBI9bEX8PfAa8jvGWzTrcXxckNrgTtJuwxeRfpGfhdwD+lUyaLGkvYnmE2623Ag8DTS3ws9YS3wXOBnvf4gP9DVG0/6RjdjODOHM53RB/k1pNndwuE/1/3nB0gHfagZjgbeBvw5zXsdK3c3Ah8Hrgd+TXoso9ENkRbjPQAsHs6mvqlOIt3h2pEnxsWxfaoxZ/9OujvYMycA5ZgA7LtO9iPNYPcmXeirMJe0Ynckdw7/eSvpvVDV2yBwOvAPwHHBtWhjvwA+CvyE9I0L0ur4T4dVJKXx/SnAsjJ+mBOA4sYABwPHkm5PHU06ZKMu39yGSMe8XrlObiC9NqZ4E4EzgbeSJoqqj9WkVyw/Cly9if/7APBd0lbLUr8tJ70GfENZP9AJwJZNIC0+OY70yslRwDahFRW3nDSgXUpavHMFTgj6bQbwRlzYV0dLSCuqP0l6fj2a6aRNc3apuihpA6+nhJX/2rJtgReR9ldeRPzrHmVnKXAh6RUzB7JqzQLOxaN465gHgfeR/r4XcRjpFmx0/aY9+Saq1F6k27KX0K5d1tYAfwDeAezaayPq/zsa+DbpkUx0H5v1cwNp//tedlB7bQ1+D9OOXI1vBVViIumb/kWkC2F0R0dniLTS+Wzye8xRByML+y4ivi/Nxvn1cP+U9ejzMzX4nUyz8yB+MSvdU0h/eRcS38F1zVLgq8Czca3IlkwE3gDcRny/mfWzCvgGcPhme69740lvC0T/jqaZeZy00FwlmAT8FXAN8R2bW24k3fKcULjVm20G8B7gIeL7yKyfxaT393ffbO+VYxrp70f072ualTXAK1DPJgNvJr03H92puech0qKpqvY2yMXIwr42HkBS93S7sK8XO9O+U+hMtflH1JOZwD+TdqCK7symZSnwb8AenXZGQ7iwr74pY2FfLw6nmW8Mmf7nE6hrO5He5/W1q+rzOOk264yOeiZPg8AZpAVk0e1tNs7PgVOoxzqV43HcMb3l69RnU7msTCIdWeksvP9ZAnyIZr05MIG0Y1/bjxytY4ZI+1gctdnei/Ms0sZb0W1k8su38SyEwgaAl5J28IruwLZnLnAWeX+IXdhX3/RrYV+vTgNWEN9eJp98GxiHCjmCdCZ1dOeZ9XMjadvknOxNejXUhX31y1zS3b1pm+29+jkVdws0neU7ePEv5EnAf+DmPXXOEOnktCmb6cO6eBrwP7iwr46JXtjXqxNJj8ei29HUN+eR9x3TvjsVX+nLKfdRv9PTXNhX71wMPJd6LOzr1dH4JpLZdM6lGZ/xvpgKfIX4TjPd5Xxgh416tb8m4Y59dc0q0groKnbsi3YgrlEy6+e9qGMnA/cS32mmt8wn7cXebzNIf+HmFazXVJ+RhX27bbb3mmFH0qFb0e1tYrMCeBXqyATgs/isv0lZA3yU/ix6GVnY52Ks+iXHhX29mgz8kPi2NzGZDzwddWQ34EriO81Ukyuo7nUuF/bVN7kv7OvVGOBf8UtN23Iz6QuJOvAM0p7e0Z1mqs1C0nHMZfAo3nqn7KN4c3c6nkballxAWsOmLRgA/hewmvhOM/3JGuAjdL/95cgpj7fX4Hcx62dkYd9hm+29djsQuIX4fjLVZCXwFtSRbUgbIkR3monJd0gX807NxIV9dU1bFvaVYSvgi8T3mSk3fwKORR3ZHria+E4zsfkd6bMwGo/irW8ijuJtij8HFhDfh6b3nE/arE4d2Bv4I/GdZuqRPwL7sbFjcGFfXXM96dWmti7sK8tuwE+J70/TXR4BXrJRr2qzDsZd/czGeYS0ENSFffWOC/uq8SK8G5BbLgR22VRnatOeRXpWGN1xpp55HLizBnWY9ePCvv7YGfgu8f1tRs8c4AWb6UNtxovwuExjcooL+2KcCtxBfP+b9bMS+CT1P+ysds4gfYuI7kBjzJYzBziHdu3YVzcTgHcBS4n/PBj4MXDAqD2mTTqZdGs3ugONMaPHhX31syPwOfwCFZWbgOdtsZe0SU/HV7eMqXuadBRvU+0HfBu3E+5X7gReSfeblbXekcAi4jvSGLNxVuLCvhw9mfTOua/GVpM/AWfTn4PLGusQfKXFmDpmMfAxXNiXuwOA80gTuejPVBNyDfAKYGyRTtDGdgTuI75DjTFPZGRhnweUNMtOwAdxe+xuMkRa3HdS4VbXJk0kHfka3bHGmBQX9rXDRNKRy78h/jNX9zwEfIi0xbhKdB7xnWuMSTspurCvnfYHPgzcT/znsC5ZSdq57yU4Ga7EOcR3sjFtzkrga7iwT8kY4Nmk1wjb+IhgCLgMeCMwvce2bIwqvhGcBnwPX5mQIiwhHS97LnBvcC2qpzHACcDzgVOAfUKrqc4y0t2vC4EfkG73ax1lTwD2AX6P2yNK/TYX+BTwedIrt1Kn9iI9IjqJdIb9jNhyujYE/AH4JXAJ8CtgeWRBdVfmBGAc6XSwI0v8mZJGdwPpVb5vkm77S70YIL1WeDzpCO7Dhv93HV+Jexi4ajhXkq4/i0MrykyZE4APAu8s8edJ2ryLgY8CPyM945SqMpF0dPthwL7rZBb92STnEdJufDcDtwznBtJGPepBWROA40m3XcaU9PMkbWwVaee3j5E2K5EijQW2J20ktQOwK7AdaX+JkWw1nAkb/P+u4YlHVUtIF/mRzCO9tXAvcA9pC3lVoIwJwFTgOmD3En5WUw0Bd5NmsLeTPtwPkxalPAI8usG/P5Yn/gI9ibSh0p6kGfcsYG/SrFzt4MI+SaUr47nOZ/Div6H7SK+c/Ia0GdItpFMQyzKOtMXyEcM5jnRLTs3iwj5JtfVC4t/vrENWA78A/o70TT3CXsCbgB+RXn+JbhPTfa4HzsRNSiTV1GTc5/83wGup38YSU4DXAZfikaE55SLgZNyxT1LNfZT4ATMijwCfBA7svQn7Yi/gX0h1R7ed2TgjO/YdurkOlKQ6OZD2HT05D3gf+Z6gNpl0tvXtxLelSe8rn4tH8UrKyABpgVv0ANqvzAX+FphURuPVwFjgNaQjYaPbto3xKF5J2XoN8YNoP7KC9A2tqdsabwW8HVhIfFu3IdeT7sD4+qakLE0mvbsePZhWne8Qt5q/37YHvk58mzc1LuyT1AjvJH5ArTKPAn9ZWmvl5VTSJjPRfdCEDJFOIPNcDEmNMI1mryT/Pmk7yzabBvwn8X2RaxaR3o7ZtWjDS1KdfYD4AbaKrAD+usR2aoLX4mZCRTIH+Edc2CepgaaTvt1ED7RlZx5wYont1CSHAncQ30d1znW4sE9Sw32Y+MG27FwB7FRmIzXQNNIpj9F9Vbe4sE9SK2xHOo4xetAtMz+kOe/1V20C8F/E91l0VgJfxR37JLXIu4kffMvMN0in6alzg6Qz6KP7LiIu7JPUSuNIO+FFD8Jl5bOki5m686/E92G/ch8u7JPUYi8jfiAuK+fhxb8MTVwPsm5c2CdJpONuowfkMvId0h746t0A8Bni+7Ts/Ax4Di7skySeQvygXEYuJi1kU3kGge8R37e9xoV9krQJTdgR7nbSq2wq32TgWuL7uJcsGf49JEnDpgLLiR+ge8liYHbZDaP17AY8QHxf95JXld4qkpSxVxM/MPeSNcCLym4UbdLxwGri+7zb/LL8JpGkfP2I+IG5l3y8/CbRKD5IfJ93mzXA3uU3iSTlZwZpcVT0wNxtbsJXuPptLGlr5ei+7zYfKL9JJCk/byB+QO42q4Cnlt8k6sAs8t0y+pYK2kOSsvML4gfkbvP+CtpDnftfxH8Gus2BFbSHJGVjR/Jd0HUX3vqPNpZ8Xw18TwXtIUnZeD3xA3G3eWEF7aHijictrIv+PBTNdVU0hiTlItdjX39RRWOoa98m/jPRTfasojEkqe4GgXnED8JFswY4vIL2UPdmk+ejpLOqaAxJqqN1T8d7MjAzqpAe/AC4OroIredm4BvRRXThpOgCJCnCPxD/DaybHF1FY6hns0ivZUZ/PopkATCmisaQpDr7CfEDcNFcVElLqCw5rgU4spKWkKSaGXkEMIG0ejs3H4suQKP6VHQBXTg2ugBJ6qejiP/mVTT34O3aHFxF/GelSM6vphkkqV5G7gA8ObSK7nwJGIouQlv0hegCCnJNiaRW+Qzx37yKZBWwcyUtobI9CVhB/GemSHappCUkqUZG7gAcGlpFcZcCc6OLUEceJS0wzckR0QVIUtUGh3NwdCEFXRBdgAr5ZnQBBR0UXYAkVW0Q2AeYHF1IAWuB70UXoUIuJD0GyIUnA0pqvEHyu/3/B+C+6CJUyGPA5dFFFOAdAEmNNwgcEF1EQRdHF6Cu/Dy6gAL2BcZFFyFJVRoEdosuoqBfRxegruQ0cRsH7B5dhCRVaZC8XnlaA1wRXYS68ntgaXQRBTgBkNRog8Cu0UUUcDPwSHQR6soQcF10EQU4AZDUaLlNAK6JLkA9uTa6gAJyezQmSYUMAltHF1HAzdEFqCc5TQC8AyCp0Qa3/K/Uyi3RBagn10cXUMDM6AIkqUq5TQC8A5C3e6ILKGDb6AIkqUo5TQDWktcFRBubBzweXUSHpkcXIElVymkCsBBYGV2EerKWfA5x8g6ApEbLaQLwcHQBKsWc6AI6NC26AEmqUk4TgAejC1ApFkcX0KGxwJjoIiSpKjlNAJZEF6BSLIsuoIAJ0QVIUlVymgCsii5ApchpAuCBQJIaK6cJwFB0ASpFThMA7wBIaqycJgCrowtQKdZGF1BATn8/JKmQnAa4nGrV5k2MLqCAFdEFSFJVcrqoTokuQKXI6ba6EwBJjZXTBGBqdAEqRU7v1zsBkNRYTgDUb7nssDeEC08lNVhOEwD3Zm+GGdEFdCiXDYskqSs5TQBmAltFF6GeDAK7RxfRofnRBUhSlXKaAAwAs6KLUE92J5+3AB6JLkCSqpTTBABgz+gC1JP9ogsowDsAkhottwnA3tEFqCc5TQAWRBcgSVUaJK9Ddp4SXYB6sn90AQXcG12AJFVpkHzOZwc4IroA9WR2dAEFOAGQ1Gi5TQD2wdcBczURODK6iAL+FF2AJFUptwnAAD4GyNWx5PMGADgBkNRwg8A90UUUdFJ0AerKM6MLKGA1PgKQ1HCDwA3RRRR0SnQB6kpOE4A78BwASQ03CFwfXURBB5LPbnJKpgBPjS6igJuiC5Ckqg0Cd5HXq4AAp0YXoEKeD4yNLqKAG6MLkKSqDQJryO8xwEujC1AhZ0YXUJATAEmNN7IT4HWhVRR3PJ4LkIudyev5P8DV0QVIUtVGJgC5rQMYAF4ZXYQ68gpgTHQRBTwE3B1dhCRVbWQCcE1oFd15FfmdZdBGuU3ULo8uQJL6YeQCejX5LQTcEzgtugiN6jjgoOgiCnICIKl1fgCszSyXVdISKstPiP+MFM2xlbSEJNXYW4kffLvJMVU0hnp2OOkNk+jPR5EsBsZV0RiSVGdPJn4A7ibfraIx1LMLiP9s+FmSpA4MAPOIH4S7ibdt62U2MET856Jo3lhFY0hSDv6b+EG4m/yaNIFRPeS4nmQtsFcVjSFJOTiL+EG427ywgvZQcS8g/rPQTW6rojEkKRczgVXED8bd5E5gUvlNogK2Av5E/Gehm/zv8ptDkvLyM+IH427zkQraQ537F+I/A92WrtnaAAAavUlEQVTm0AraQ5Ky8jriB+Nusxo4svwmUQf2B1YQ/xnoJndW0B6SlJ1tgZXED8rd5gZgfOmtotFMJO0mGd333eZD5TeJJOXpR8QPyr3kU+U3iUbxGeL7vJccUn6TSFKeXkX8oNxrcjuEJlcvIr6ve8kV5TeJJOVrKrCU+MG5lywhPZdWdfYGFhHf173k7NJbRZIy93niB+decwtpTYPKNw24nvg+7iWPAVPKbhhJyt3BxA/QZeQy0iI1lWcScCnxfdtr7gFOLLltJKkRLiF+kC4j3wfGlNs0rTUG+DbxfVpmrgHOxJMAJen/y32B17r5PDBYbvO00heI78uqcg/pWGwfC0hqvbHAHOIH5rLyFbwT0K1B4Fzi+7AfWQj8H2DXUlpOkjL1buIH5DLzddLERp0bD3yD+L7rd1YCXwMO670JJSk/08n/Va8N8z1gcpmN1GCTyft8iLJyMXAKHjstqWU+QPwAXHauwVu8W7IdcBXxfVWn3Ai8FpjQQ7tKUjamAY8SP/iWnfvx8KDNOR64j/g+qmseAN6J+0xIaoH3Ej/oVpGVwPvwDYERA8CbyftAqH7mceA83HVSUoNNARYQP+BWlYuBnUprrTzNAH5IfF/kmCHgQuDYwq0uSRl4B/EDbZV5CHhJaa2Vl5eSHolE90ET8hvgz/GukqQGmQzMJX6ArTo/JR100wb7ARcR3+ZNzB3AXwNbddwbklRjLyV+YO1HlgPvp7m7wm0FfBBYQXxbNz3zgX8Gtu+oZySpxn5O/KDaz8H77TTnW9zWpEV+TdrhMZesIC0YPGiLvSRJNXUA7fvmOBd4G+mVyBxNBf4JmEd8W7Y9a0iLLZ85ao9JUk19iPiBNCJLgc8Cs3tvwr44EPgwzdzHoQn5A/ByPIlQUka2Au4mfgCNzE2kxwM79tiWZdsWOBv4NfFtZDrLA6T9KJ60cXdKUv28gPiBsw5ZTVpJ/2bSN+5+GwAOAd4C/Ag38ck5i4CP4jbVkipWxsEmXwJeV8LPaZIHSAslrwCuBa4nPTooy2TS63tPJT1HPhGYWeLPV7xVwLeAjwFXB9ciqYHKmABMJh2s05b35ruxBrgTuA24l7QCfw7wILCENNgvXOffH09arb8taXe+7YF9h7MfsEu/Clct/II0Efgx6S6BlJtppOvNeNIdymWkheQKVNbRpkcDlwFjS/p5kjZ2M/Bx4Gs4eCrWDNL5F3uR1kDtQDo9dKfhP7cjXQ+mbuHnLCE9Ql1I2k77IdIhZHOG/9zwC5NKVObZ5u8jHRgkqVoPAp8GPkc6n0OqyjbAEaTHjfuRXgHfj5hTMB8jPU69djjXkI7nXh5QSyOUOQEYS7oLcHSJP1PS5j0G/F/gk6RHTFKvZpPG8JHMBsaEVjS61aRHq1cDvyQd6nZfaEUZKXMCADALuBKYXvLPlbR5a4DvktYJXB5ci/IyDXg2cDLwXJqxvug20kTgYuAS1l9fpXWUPQGAtCr9p7geQIpwBWkicAFpYiBtaA/SmS7PI33Lb/JYPUT6Uvot4HzSjq6q2N8S/z61MW3OXaR9KbZGSndlRzYHW0P85zMiQ8O//5vxYK7KfZH4Djem7ZlPOvVxB9Q240nf9H9GelYe/VmsU1aSNk17BTCh2wbW5o0jPX+J7mhjjCcRtsmOpC3K7yX+c5dDHiKdbdOE9Q+1sj3wJ+I72BiT4kmEzXUC8D+kjcWiP2c5ZgXwVdJrjyrJvqT3lqM71xizfq4m3QL1JMK8nYwHf5Wdy4EzqGahfOscTNqwJLpTjTEbx5MI8/Rs0lsf0Z+fJuc64EWddog272jSto/RHWqM2XRGTiLcDdXZs4DfE/95aVMuAY7toG80imeStm2M7kxjzOazEvg6cDiqk/2A7xP/+WhzfggctqWO0uadhufVG5NLfkHaMMZnoXGmA5/CcbMuGQL+nbSLorrwPNI+5tEdaYzpLDcBr8d3pvtpAHgD8Ajx/W82zgPAyzbbexrVsfjBNia3PAi8C8/7qNrepMNtovvbbDkXAftsuhs1moNIezNHd6CpVx4GjicdTnJRDeoxG+cx0m3QvVGZxgL/CCwjvo9N51kOvBdfqS1sD+B24jvQ1CO3sfFF5VDSBh0+A61fhkibzxyDejUbuIr4PjXd57fAXht2rEa3Hb7WYuBSRr+1vAvwEdLxntG1mo1zOfBC6n1+fF29FtdFNSWLgL9EhUwEvkx855mYnE/6DHRiMulErz/VoG6zcTyJsHPbAF8jvs9M+Tkf3xQo7O/wVm+bsoa0C103r5mNJZ125t2jemYB8L/xJMLNeQpwB/H9ZKrLH4GjUCHHk16xiO48U20eBk6lHCcAF9Les87rnMdJd/cO3FzntdCrSe0S3TemP5//V6FCdiI9U4zuPFNNfgXsTPn2Bs7F56l1za+B02nvxkIDpDte0f1g+p9zgUHUsfGkvcmHiO88U06GgA9Q/UKx7Yb/Ow8H/q5m87matFCqTa9NTQa+R3zbm7hcQPocqIDjgDuJ7zzTW+6n/+fQbwW8EV81rWvuI733PnVzHdgQu5FOlotubxOfa4BdUSFbkzYe8RlvnvkaMHOjXu2fQdL53pcR3xZm4ywCPkYzTyKcDcwhvo1NfXI/HrbVlWcD9xDfgaaz3EXa0a9ODgfOA1YR3z5m/QyRFnMevdney8vhwDzi29XULwuBp6HCpgKfxgG8zllF2rRnq830YR3MIp2ytoT49jIbJ/eTCI8n3dmIbkdT3ywiPeJWF/Yjnc8c3Ylm/VwDHDFKv9XNFNLGNfcR33Zm49wx3D+TNteBNfRMnFiazvIY6c62unQGLhKsQ+4hvd+c61aw40n130B8W5qN8yDwbmDGZvqvLk4GVhDfXiafLCN9btSlCcA5wGLiO7NtmQ+8lc638q27AdJfRk8irGceAz5DPU8iPBb3oDDd5XHK2xittWaQNtp4hPgObXoeAz5Es/e7PgT4POm4z+j2NutnZMFgXW6fHoLjjukty/BkzVJMA96FG8FUkcXAJ4EdO+6N/O0MfBh4lPj2NxvnCuAviHv8tB/w0BZqNKaTPAzsg0oxGXgb6b3L6I7NPffQjk1bRrMN8BY8ibCu+SPwJvp7EuHOwL0l/x6m3fkjsD0qzUTgNXi+QDe5knTq3tjCrd5cY4GXAFcR3z9m44ycRFj1XapJ+Bkw1eT3uG1wJQ4k3cKeT3wn1zWLgK+QFjVpdM8Avo9nVtQxj5M+xwdttve6NwD8Vw1+R9Pc/Jh2nZfRVxOAl5E2HHHwhpWkRVUvIa93rutif1wwWNesIQ2mZS4YfE8Nfi/T/JyLKrcj8AbSINGmc7qHSAuo/pbYvfqbZDvg/bgFbF1zDb2fRPgXeC6J6V9ejPpmG1KDf51mrvp+kLQX/sup/6YqOZsE/BVwG/F9bjZOtycRHgAsrUH9pj1ZTHrTpFS57rHdT+NI29oeS9qz+Rjyu2guIS0ouRj4Cekb0NrQitplEDid9DbK8cG1aGNLgC+RbrXes4V/dyLwO9I7/1I/3QgcRdorQIH2B14L/AdwLfV65vs4aYD6NPAq0lGkg9U0g7pwJHA+sJr4z4pZP6uAbwJP2Wzvpb9X0XWa9uY/KZF3AMoxCOxBukUze/jP/Umnzc0k7TFfppWkbyp3rZO7h/+8afj/rnrbk7SfwGvxVZ86ugT4GE8cNgbpzJHv4LipWGcDXyzjB/lB7o8ppE0dZpIeH4xk3faftsH/XjSchRv880LSpkZrKq9a/fAk0uLTvwV2Cq5FG7sF+ARpQvBbYNvQavKwjLSb3QPDfz5MuuMFafvwlaTP/VTS2DgV2IW0oVKuB4n102OkR1B39fqDnABI9TCe9Erq24CDg2vRxtbgo7QNrQVuJr1FdPNwbmXL6yg2ZzywO+nO6YGktVdHAHv1XGnz/BJ4Fk/cnZLUAAPAc4CfEf+80ZgNcxPwEdKi1n7dDZlOevzyedKbG9FtUJe8oZdGlVRvh5AW/Xi2vInMb4G3A/tSD4eQNmG6g/i2icwiYNce21JSze1MOna5iXtSmHpmAWntw2zqa4D0avYXSRfD6DaLyA97bkVJWRg5ifBu4gce08zcBJxJ2u8gJ1OBc4A5xLdhv3NmCe0nKRMjJxFeSfzgY5qRa0jbG+e+0HE88GratfvmPNLbFJJa5unA9/AwK9Nd7gJeSPPeCBsHvIn0CmJ0G/cj/1JOs0nK0X7A50jvYEcPRqb+WQK8g/xu9Rc1FfhXmr+QdhkuCJRabybwPjyJ0Gw+36d9m04dTPMfmZW6TbCkfE0gLQ66ifiBydQji0jbyLbVWODNNPckxyFGP8dCUssMAs8HfkX8AGXi8ivSLntKdwNuJb5PqsjFJbaTpAY5AvhvPImwbfkk6duvnrAN6VTO6L6pIieX2E6SGmYP0kVhCfGDlakuy4BXotG8heZNiC8ps4EkNdM00havc4kftEy5mQc8FXXiDJr39syRpbaQpMYaB7yI5q+SbkvuBw5CRRxFs96c+Va5zSOp6QaAk4Cfko6/jR7ETPHcCuy2YceqI/sDDxDfh2VkNbB3uc0jqS0OAf4vzd9ApUm5Fdh+E32pzh1Ic+4EfKbktpHUMtuTNhZaQPyAZjaf+0iLO9W7Q4D5xPdpr1kO7FBy20hqocmkTVTuIn5gM+tnHmkraJXnKJqxMPDdZTeMpPYaA7wY+B3xg5tJFylX+1fjxeS/FuZOmnfQk6QaeApwHs17jzqnvGaLvaRevIf4Pu41x5beKpI0bF88iTAin+ykc9STAfLfMfALpbeKJG1gJvBe4CHiB72m51e4vW+/TAXuJr7Pu81CYFLprSJJm+BJhNVmER7s029HAiuJ7/tu89Lym0SSNm8QOJ20N3n0ANikvLZAH6g8Oa8H+HEF7SFJHXkq8F/AKuIHw5zz/aINr9KMA64n/jPQTVYD25XfJJLUuT2ATwCLiR8Uc8sSYKfCLa4yHQMMEf9Z6CaeDCmpFrYhbSx0L/EDYy55R1ctrbJ9kfjPQjf5RhWNIUndGk9aMHgt8QNknXMXMLHLNla5pgOPEv+ZKJoFpI28JKl2TgJ+Qv67r1WRF/bQrirfO4n/THSTY6poDEkqy77AuaTDTKIHzDrkWtzOtW4mk+d+F/9cRWNIUtlGTiJswslsvcRv//X0VuI/G0Xzh0paQpIqMhn4O9p5EuFNpP0UVD9bkd8x2WvwdUBJGRoDvAj4LfEDab9yZiktp6p8mPjPSNGcXklLSFKftOEkwvm48r/udiO/za0+UElLSFKf7QN8lmaeRPiJEttJ1fk28Z+VInFbYEmNMgN4OzCX+AG2rBxYagupKqcR/1kpkgX4VomkBpoInAXcQvxA20t+W3bDqDLjyW8x4F7g6lJJzfI4aavW2aSNhX4QW07XvhNdgDq2Evif6CIKOiK6AEnqh6eS35HE+1bREKrMM4n/zBTJR8E7AJKa7/fktQHKTcDt0UWokEtJJ1zmYj9wAiCpHWZHF1DAD6MLUGGrSZOAXMwCJwCS2iGnFfWXRRegrvw8uoACZgEDvgogqem2ARaRx6tPa4CZwCPRhaiwg4AboosoYGfvAEhqulnkcfEHuBkv/rm6GVgSXUQBs5wASGq63aMLKMD3//O1Brg+uogCnABIarw9ogso4OboAtSTa6MLKMAJgKTG2y26gAKcAOTtmugCCtjBCYCkpts5uoACnADk7Y7oAgqY4gRAUtNNjy6gQ8uBOdFFqCf3RRdQwFQnAJKabrvoAjr0IGmbVuVrLmkxYA6cAEhqvBnRBXRoXnQB6tlK8ulHJwCSGm9adAEdyuXCodHl0o9OACQ12gAwKbqIDs2PLkClWBZdQIecAEhqtInkc+bJyugCVIpcJgBb5fIXQ5K6kcu3f4BV0QWoFMujC+jQaicAkppsQnQBBQxFF6BSrIguoENDTgAkNdnj0QUU4ASgGSZHF9Ah7wBIarRcbscCbB1dgEqxTXQBHfIOgKRGW0FGG7NEF6BSTIkuoEPeAZDUaGvJ5zGAE4BmyOUOgBMASY2Xy2tZTgCaIZcJwConAJKaLpd1ALtEF6CejSefRwDznQBIarpc7gDsTLqAKF97A2Oii+jQPCcAkpouly12xwC7RRehnuwXXUABDzoBkNR0OZ3RPiu6APUkpwmAdwAkNV5OE4CDogtQT5wASFKNzIkuoIAjogtQT5wASFKN5HQH4MjoAtS1CcCh0UUU8JATAElNl9MEYE9gRnQR6sox5HX65B1OACQ1XU4TgAHguOgi1JUTowsoYBlwrxMASU03D3gsuogCTo0uQF3JaQJwG7DGCYCkplsLXB9dRAGnkO4EKB9bk9f6jVsAnABIaoNrowsoYBd8HTA3zyKvXRydAEhqjZwmAAB/Fl2ACvnL6AIKuiW6AEnqlyNIjwJyyZ34GCAX00gHTkV/ZopkdiUtIUk1NAlYRfzAWyTHVtISKtvZxH9WimQRwwcW+QhAUhssJ618zsmrogtQR14ZXUBBlwND4ARAUntcHV1AQS8BpkYXoVHtQ353an498g9OACS1xSXRBRQ0hXR7WfV1Dvmt1bg0ugBJ6rddiH/+WjRzyOv1sjbZBVhB/GekSB4HJo78At4BkNQWc4Dbo4soaGfg5dFFaJPOIb/J2e9JkwDACYCkdrkouoAuvAMYF12E1rMD8ProIrpw2br/wwmApDa5OLqALuwLvCG6CK3nHPI6+W/ET6ILkKQo04DVxD+LLZqH8Y2AupgNrCT+M9HNZ2jsur+IdwAktclC4MroIrowg/QoQLEGgE+T5yOZ75Mmv5LUWm8l/ttYN1kFHFZBe6hzryD+c9BtTqugPSQpKzuR52OAtaTNjHL89tkEU4C5xH8GuskS1nn9T5La7BLiB+Vuc075zaEOfJH4vu8236qgPSQpS28gflDuNsuAg8tvEo3i5cT3ey95RflNIkl52pb8dnFbN7fjWwH9sjfpBL3oPu82C4GtS28VScrYj4gfnHvJd8lvH/rcTCStu4ju617y76W3iiRlLucV3SN5S+mtonXl/Nx/JL45IkkbGA88QPwA3UuGgD8vu2EEwHuI799ek+OeF5LUF+8jfpDuNcuA40pul7Y7i/h+LSNnld0wktQUO5D3YsCRzAf2L7lt2uoM8t0nYt0sBrYpuW0kqVG+SvxgXUYeAA4suW3a5kRgOfF9WUY+V3LbSFLjHE78YF1WHgGOKLd5WuP5pMcp0X1YRlYD+5TbPJLUTJcTP2iXlQXAUeU2T+OdRTNu+4/kq+U2jyQ11xnED9plZhnw4lJbqLneTXx/lZkh0pHFkqQODJBemYoevMvMGtKrbG4WtGkTacZ7/hvm22U2kiS1wXOIH7yryPm4bfCG9gWuJb5vys4a3PhHkrryS+IH8SpyD3B8ie2UsxeS9seP7pMqcmGJ7SRJrXIc8YN4VVlFeiQwrrTWystUmnnLfyRDpDdaJEldyv2QoC3leuDY0lorD6cD9xLf9lXmC6W1liS11GGkb1PRA3qVWUP6NrxtSW1WV7OBXxDf3lVnIbBdSW0mSa3278QP6v3Io8C7gMnlNFttbA98HFhJfBv3I28tp9kkSdPI/6TAIpkH/D2wVRmNF2hX4FM0Z0e/TnIr6WRLSVJJXkb84N7vLAA+DOxWQvv10z6kRxpNONipaE4tof0kSRu4iPgBPiKrSRvKnE59v11OI23hexlpTUN0m0Xkez23oiRpk/ahOafDdZsFpBXmzwTG9tacPduadGjP+dgv84Ede2tOSdJo3kP8YF+XLCFtNvNm0tHDgz20aycmACcA7wd+TXsW9XWSl3bfrIl7REvS6MaRbjN7wt7GlgLXkbbVvRa4DZgDzCVdrDs1Htgb2G84+wL7A4cCk0qstynOB17S6w9xAiBJW7YXcDUwJbqQTKwFHhzOamARaYHeMtKz+21Irx5OJu3QN5Xq7yY0xYPAQaRHM5KkPngl8bd9jfkzSjKmrB8kSQ13Pek29SHRhai1vgR8pKwf5iMASercZOAPpGfUUj9dQzrDYXlZP9BnLpLUuaXAmaTn2VK/zANeQIkXf/ARgCQVNZd0slxpz2KlUawm7X1wfdk/2AmAJBV3HWnf/LYdq6v++3vgv6OLkCQ9YRC4gPhV4aa5+RoVchGgJHVva9IOdYdGF6LGuQJ4FiU/91+XEwBJ6s1OwJXAztGFqDFuBJ4BPFLlf8S3ACSpN/eTFmktjC5EjXAXcDIVX/zBCYAkleFq4LnA4uhClLV5wCmkSWXlnABIUjl+Rxq8l0YXoiwtIk0ib+/Xf9AJgCSV53Iq2LBFjbcMeB5ptz9JUsZOIk0Col8jM/XPo8BxSJIa41TgMeIvMKa+eQAPl5KkRjoCeIj4C42pX+4G9kGS1FizSAu7oi84pj65CdgFSVLjbQ/8nvgLj4nP5cCTkCS1xtbAD4i/AJm4fJ10iJQkqWXGAecSfyEy/c0q4M1IklrvDNLrX9EXJlN9HiYd6iNJEgD7AtcRf4Ey1eVqYA8kSdrAVsB/En+hMuXni8BEJEkaxVmkMwSiL1qm9zwAnI4kSR3aE7iI+AuY6T7nAzM27FhJkrZkADiTdBZ89MXMdJ5HgbM30Z+SJBWyK/BD4i9sZsv5PrDjprtRkqTunAnMI/4iZzbOraQDnyRJqsRk4H2kM+OjL3oGlgz3x4TNd5kkSeXZGfg8sJr4i2AbMwScRzrXQZKkvjsMuJj4C2JbsoZ0hsPhnXSOJElVOxm4hPgLZFMzBHybNOGSJKl2DiPdml5F/EWzCRkivc8/u0gnSJIUZW/gM7hYsNssBj4H7FW04SVJqoOZwLuBO4m/qOaQq0hbMW/TTWNLklRHTwHOBeYTf6GtUxaR3qhwYZ8kqdEmAS8Dfkx7XyNcCnwLeAWwdW/NKUlSfmYCrwS+CSwg/sJcZR4Gvkw6nc+jeTcwEF2AJCnMGOAo0pa2p5DeKMj5urAC+D1wGfAT4NekVf3ahJw7WpJUru1IE4Ij1sn00IpGtxi4nHShvwy4Eng8tKKMOAGQJI1mL9JE4KnAfsCs4fTzlvpy0uE7twI3AbcBNw//6Tf8LjkBkCR1YyeemAzMIh2JOxWYMpyp6/w5lXShXrzBz1hB2rfgUeAh0jP7ecCDw//8IOl1xntIW/KqRP8PVNJVfTI99JcAAAAASUVORK5CYII=;" parent="kfbQjCIQF7K4VHMFwIz1-6" vertex="1">
          <mxGeometry x="30" y="269.4717948717949" width="43.15384615384615" height="43.15384615384615" as="geometry" />
        </mxCell>
        <mxCell id="kfbQjCIQF7K4VHMFwIz1-16" value="" style="group" parent="kfbQjCIQF7K4VHMFwIz1-1" vertex="1" connectable="0">
          <mxGeometry x="660" y="341.5" width="480" height="129" as="geometry" />
        </mxCell>
        <mxCell id="kfbQjCIQF7K4VHMFwIz1-17" value="" style="rounded=1;whiteSpace=wrap;html=1;absoluteArcSize=1;arcSize=14;strokeWidth=2;fillColor=#eeeeee;strokeColor=#36393d;" parent="kfbQjCIQF7K4VHMFwIz1-16" vertex="1">
          <mxGeometry width="480" height="129" as="geometry" />
        </mxCell>
        <mxCell id="kfbQjCIQF7K4VHMFwIz1-18" style="edgeStyle=orthogonalEdgeStyle;rounded=0;orthogonalLoop=1;jettySize=auto;html=1;flowAnimation=1;strokeWidth=3;" parent="kfbQjCIQF7K4VHMFwIz1-16" source="kfbQjCIQF7K4VHMFwIz1-19" target="kfbQjCIQF7K4VHMFwIz1-21" edge="1">
          <mxGeometry relative="1" as="geometry" />
        </mxCell>
        <mxCell id="kfbQjCIQF7K4VHMFwIz1-19" value="DBX&lt;br&gt;Bronze" style="shape=cylinder3;whiteSpace=wrap;html=1;boundedLbl=1;backgroundOutline=1;size=15;fillColor=light-dark(#CD7F32,var(--ge-dark-color, #121212));" parent="kfbQjCIQF7K4VHMFwIz1-16" vertex="1">
          <mxGeometry x="75.29411764705883" y="30" width="47.05882352941177" height="74" as="geometry" />
        </mxCell>
        <mxCell id="kfbQjCIQF7K4VHMFwIz1-20" style="edgeStyle=orthogonalEdgeStyle;rounded=0;orthogonalLoop=1;jettySize=auto;html=1;flowAnimation=1;strokeWidth=3;" parent="kfbQjCIQF7K4VHMFwIz1-16" source="kfbQjCIQF7K4VHMFwIz1-21" target="kfbQjCIQF7K4VHMFwIz1-22" edge="1">
          <mxGeometry relative="1" as="geometry" />
        </mxCell>
        <mxCell id="kfbQjCIQF7K4VHMFwIz1-21" value="DBX&lt;br&gt;Silver" style="shape=cylinder3;whiteSpace=wrap;html=1;boundedLbl=1;backgroundOutline=1;size=15;fillColor=light-dark(#C0C0C0,var(--ge-dark-color, #121212));" parent="kfbQjCIQF7K4VHMFwIz1-16" vertex="1">
          <mxGeometry x="207.05882352941177" y="30" width="47.05882352941177" height="74" as="geometry" />
        </mxCell>
        <mxCell id="kfbQjCIQF7K4VHMFwIz1-22" value="DBX&lt;br&gt;Gold" style="shape=cylinder3;whiteSpace=wrap;html=1;boundedLbl=1;backgroundOutline=1;size=15;fillColor=light-dark(#FFD700,var(--ge-dark-color, #121212));" parent="kfbQjCIQF7K4VHMFwIz1-16" vertex="1">
          <mxGeometry x="348.235294117647" y="30" width="47.05882352941177" height="74" as="geometry" />
        </mxCell>
        <mxCell id="kfbQjCIQF7K4VHMFwIz1-23" value="Databricks Workspace 1" style="text;html=1;align=center;verticalAlign=middle;resizable=0;points=[];autosize=1;strokeColor=none;fillColor=none;" parent="kfbQjCIQF7K4VHMFwIz1-16" vertex="1">
          <mxGeometry width="150" height="30" as="geometry" />
        </mxCell>
        <mxCell id="kfbQjCIQF7K4VHMFwIz1-24" style="edgeStyle=orthogonalEdgeStyle;rounded=0;orthogonalLoop=1;jettySize=auto;html=1;entryX=0;entryY=0.499;entryDx=0;entryDy=0;entryPerimeter=0;flowAnimation=1;strokeWidth=3;" parent="kfbQjCIQF7K4VHMFwIz1-1" source="kfbQjCIQF7K4VHMFwIz1-17" target="kfbQjCIQF7K4VHMFwIz1-7" edge="1">
          <mxGeometry relative="1" as="geometry" />
        </mxCell>
        <mxCell id="kfbQjCIQF7K4VHMFwIz1-25" value="" style="group" parent="kfbQjCIQF7K4VHMFwIz1-1" vertex="1" connectable="0">
          <mxGeometry x="240" y="289" width="180" height="230" as="geometry" />
        </mxCell>
        <mxCell id="kfbQjCIQF7K4VHMFwIz1-26" value="&lt;span style=&quot;color: rgba(0, 0, 0, 0); font-family: monospace; font-size: 0px; text-align: start; text-wrap-mode: nowrap;&quot;&gt;%3CmxGraphModel%3E%3Croot%3E%3CmxCell%20id%3D%220%22%2F%3E%3CmxCell%20id%3D%221%22%20parent%3D%220%22%2F%3E%3CmxCell%20id%3D%222%22%20value%3D%22%22%20style%3D%22group%22%20vertex%3D%221%22%20connectable%3D%220%22%20parent%3D%221%22%3E%3CmxGeometry%20x%3D%22-140%22%20y%3D%22230%22%20width%3D%22180%22%20height%3D%22520%22%20as%3D%22geometry%22%2F%3E%3C%2FmxCell%3E%3CmxCell%20id%3D%223%22%20value%3D%22%22%20style%3D%22rounded%3D1%3BwhiteSpace%3Dwrap%3Bhtml%3D1%3BabsoluteArcSize%3D1%3BarcSize%3D14%3BstrokeWidth%3D2%3BfillColor%3D%23eeeeee%3BstrokeColor%3D%2336393d%3Bopacity%3D40%3B%22%20vertex%3D%221%22%20parent%3D%222%22%3E%3CmxGeometry%20width%3D%22180%22%20height%3D%22140%22%20as%3D%22geometry%22%2F%3E%3C%2FmxCell%3E%3CmxCell%20id%3D%224%22%20value%3D%22Databases%22%20style%3D%22text%3Bhtml%3D1%3Balign%3Dcenter%3BverticalAlign%3Dmiddle%3Bresizable%3D0%3Bpoints%3D%5B%5D%3Bautosize%3D1%3BstrokeColor%3Dnone%3BfillColor%3Dnone%3B%22%20vertex%3D%221%22%20parent%3D%222%22%3E%3CmxGeometry%20width%3D%2280%22%20height%3D%2230%22%20as%3D%22geometry%22%2F%3E%3C%2FmxCell%3E%3CmxCell%20id%3D%225%22%20value%3D%22Epic%22%20style%3D%22rounded%3D1%3BwhiteSpace%3Dwrap%3Bhtml%3D1%3Baspect%3Dfixed%3BfillColor%3D%23f8cecc%3BstrokeColor%3D%23b85450%3B%22%20vertex%3D%221%22%20parent%3D%222%22%3E%3CmxGeometry%20x%3D%2210%22%20y%3D%2230%22%20width%3D%22120%22%20height%3D%2230%22%20as%3D%22geometry%22%2F%3E%3C%2FmxCell%3E%3CmxCell%20id%3D%226%22%20value%3D%22Facets%22%20style%3D%22rounded%3D1%3BwhiteSpace%3Dwrap%3Bhtml%3D1%3BfillColor%3D%23b1ddf0%3BstrokeColor%3D%2310739e%3B%22%20vertex%3D%221%22%20parent%3D%222%22%3E%3CmxGeometry%20x%3D%2210%22%20y%3D%2270%22%20width%3D%22120%22%20height%3D%2230%22%20as%3D%22geometry%22%2F%3E%3C%2FmxCell%3E%3CmxCell%20id%3D%227%22%20value%3D%22%22%20style%3D%22group%22%20vertex%3D%221%22%20connectable%3D%220%22%20parent%3D%222%22%3E%3CmxGeometry%20y%3D%22160%22%20width%3D%22180%22%20height%3D%22360%22%20as%3D%22geometry%22%2F%3E%3C%2FmxCell%3E%3CmxCell%20id%3D%228%22%20value%3D%22%22%20style%3D%22rounded%3D1%3BwhiteSpace%3Dwrap%3Bhtml%3D1%3BabsoluteArcSize%3D1%3BarcSize%3D14%3BstrokeWidth%3D2%3BfillColor%3D%23eeeeee%3BstrokeColor%3D%2336393d%3Bopacity%3D40%3B%22%20vertex%3D%221%22%20parent%3D%227%22%3E%3CmxGeometry%20width%3D%22180%22%20height%3D%22360%22%20as%3D%22geometry%22%2F%3E%3C%2FmxCell%3E%3CmxCell%20id%3D%229%22%20value%3D%22Flat%20File%20Sources%22%20style%3D%22text%3Bhtml%3D1%3Balign%3Dcenter%3BverticalAlign%3Dmiddle%3Bresizable%3D0%3Bpoints%3D%5B%5D%3Bautosize%3D1%3BstrokeColor%3Dnone%3BfillColor%3Dnone%3B%22%20vertex%3D%221%22%20parent%3D%227%22%3E%3CmxGeometry%20width%3D%22110%22%20height%3D%2230%22%20as%3D%22geometry%22%2F%3E%3C%2FmxCell%3E%3CmxCell%20id%3D%2210%22%20value%3D%22Workday%22%20style%3D%22rounded%3D1%3BwhiteSpace%3Dwrap%3Bhtml%3D1%3Baspect%3Dfixed%3BfillColor%3D%23dae8fc%3BstrokeColor%3D%236c8ebf%3B%22%20vertex%3D%221%22%20parent%3D%227%22%3E%3CmxGeometry%20x%3D%2210%22%20y%3D%2230%22%20width%3D%22120%22%20height%3D%2230%22%20as%3D%22geometry%22%2F%3E%3C%2FmxCell%3E%3CmxCell%20id%3D%2211%22%20value%3D%22Inovalon%22%20style%3D%22rounded%3D1%3BwhiteSpace%3Dwrap%3Bhtml%3D1%3BfillColor%3D%23d5e8d4%3BstrokeColor%3D%2382b366%3B%22%20vertex%3D%221%22%20parent%3D%227%22%3E%3CmxGeometry%20x%3D%2210%22%20y%3D%2270%22%20width%3D%22120%22%20height%3D%2230%22%20as%3D%22geometry%22%2F%3E%3C%2FmxCell%3E%3CmxCell%20id%3D%2212%22%20value%3D%22Strata%22%20style%3D%22rounded%3D1%3BwhiteSpace%3Dwrap%3Bhtml%3D1%3BfillColor%3D%23e1d5e7%3BstrokeColor%3D%239673a6%3B%22%20vertex%3D%221%22%20parent%3D%227%22%3E%3CmxGeometry%20x%3D%2210%22%20y%3D%22110%22%20width%3D%22120%22%20height%3D%2230%22%20as%3D%22geometry%22%2F%3E%3C%2FmxCell%3E%3CmxCell%20id%3D%2213%22%20value%3D%22SalesForce%22%20style%3D%22rounded%3D1%3BwhiteSpace%3Dwrap%3Bhtml%3D1%3BfillColor%3D%23fad9d5%3BstrokeColor%3D%23ae4132%3B%22%20vertex%3D%221%22%20parent%3D%227%22%3E%3CmxGeometry%20x%3D%2210%22%20y%3D%22150%22%20width%3D%22120%22%20height%3D%2230%22%20as%3D%22geometry%22%2F%3E%3C%2FmxCell%3E%3CmxCell%20id%3D%2214%22%20value%3D%22Vizient%22%20style%3D%22rounded%3D1%3BwhiteSpace%3Dwrap%3Bhtml%3D1%3BfillColor%3D%23bac8d3%3BstrokeColor%3D%2323445d%3B%22%20vertex%3D%221%22%20parent%3D%227%22%3E%3CmxGeometry%20x%3D%2210%22%20y%3D%22190%22%20width%3D%22120%22%20height%3D%2230%22%20as%3D%22geometry%22%2F%3E%3C%2FmxCell%3E%3CmxCell%20id%3D%2215%22%20value%3D%22Millman%22%20style%3D%22rounded%3D1%3BwhiteSpace%3Dwrap%3Bhtml%3D1%3BfillColor%3D%23e1d5e7%3BstrokeColor%3D%239673a6%3B%22%20vertex%3D%221%22%20parent%3D%227%22%3E%3CmxGeometry%20x%3D%2210%22%20y%3D%22230%22%20width%3D%22120%22%20height%3D%2230%22%20as%3D%22geometry%22%2F%3E%3C%2FmxCell%3E%3CmxCell%20id%3D%2216%22%20value%3D%22PressGaney%22%20style%3D%22rounded%3D1%3BwhiteSpace%3Dwrap%3Bhtml%3D1%3BfillColor%3D%23d5e8d4%3BstrokeColor%3D%2382b366%3B%22%20vertex%3D%221%22%20parent%3D%227%22%3E%3CmxGeometry%20x%3D%2210%22%20y%3D%22270%22%20width%3D%22120%22%20height%3D%2230%22%20as%3D%22geometry%22%2F%3E%3C%2FmxCell%3E%3CmxCell%20id%3D%2217%22%20value%3D%22NextGate%22%20style%3D%22rounded%3D1%3BwhiteSpace%3Dwrap%3Bhtml%3D1%3BfillColor%3D%23ffe6cc%3BstrokeColor%3D%23d79b00%3B%22%20vertex%3D%221%22%20parent%3D%227%22%3E%3CmxGeometry%20x%3D%2210%22%20y%3D%22310%22%20width%3D%22120%22%20height%3D%2230%22%20as%3D%22geometry%22%2F%3E%3C%2FmxCell%3E%3C%2Froot%3E%3C%2FmxGraphModel%3E&lt;/span&gt;" style="rounded=1;whiteSpace=wrap;html=1;absoluteArcSize=1;arcSize=14;strokeWidth=2;fillColor=#eeeeee;strokeColor=#36393d;opacity=40;" parent="kfbQjCIQF7K4VHMFwIz1-25" vertex="1">
          <mxGeometry width="180" height="230" as="geometry" />
        </mxCell>
        <mxCell id="kfbQjCIQF7K4VHMFwIz1-27" value="AWS Glue" style="rhombus;whiteSpace=wrap;html=1;fillColor=#fff2cc;strokeColor=#d6b656;" parent="kfbQjCIQF7K4VHMFwIz1-25" vertex="1">
          <mxGeometry x="20" y="30" width="140" height="80" as="geometry" />
        </mxCell>
        <mxCell id="kfbQjCIQF7K4VHMFwIz1-28" value="Azure Data Factory" style="rhombus;whiteSpace=wrap;html=1;fillColor=#d5e8d4;strokeColor=#82b366;" parent="kfbQjCIQF7K4VHMFwIz1-25" vertex="1">
          <mxGeometry x="20" y="120" width="140" height="80" as="geometry" />
        </mxCell>
        <mxCell id="kfbQjCIQF7K4VHMFwIz1-29" value="JDBC Data Loaders" style="text;html=1;align=center;verticalAlign=middle;resizable=0;points=[];autosize=1;strokeColor=none;fillColor=none;" parent="kfbQjCIQF7K4VHMFwIz1-25" vertex="1">
          <mxGeometry width="130" height="30" as="geometry" />
        </mxCell>
        <mxCell id="kfbQjCIQF7K4VHMFwIz1-30" style="edgeStyle=orthogonalEdgeStyle;rounded=0;orthogonalLoop=1;jettySize=auto;html=1;entryX=-0.005;entryY=0.494;entryDx=0;entryDy=0;entryPerimeter=0;flowAnimation=1;fillColor=#d5e8d4;strokeColor=#82b366;strokeWidth=3;" parent="kfbQjCIQF7K4VHMFwIz1-1" source="kfbQjCIQF7K4VHMFwIz1-26" target="kfbQjCIQF7K4VHMFwIz1-3" edge="1">
          <mxGeometry relative="1" as="geometry" />
        </mxCell>
        <mxCell id="kfbQjCIQF7K4VHMFwIz1-31" style="edgeStyle=orthogonalEdgeStyle;rounded=0;orthogonalLoop=1;jettySize=auto;html=1;entryX=0.006;entryY=0.495;entryDx=0;entryDy=0;entryPerimeter=0;flowAnimation=1;strokeWidth=3;" parent="kfbQjCIQF7K4VHMFwIz1-1" source="kfbQjCIQF7K4VHMFwIz1-86" target="kfbQjCIQF7K4VHMFwIz1-26" edge="1">
          <mxGeometry relative="1" as="geometry" />
        </mxCell>
        <mxCell id="kfbQjCIQF7K4VHMFwIz1-32" style="edgeStyle=orthogonalEdgeStyle;rounded=0;orthogonalLoop=1;jettySize=auto;html=1;entryX=-0.001;entryY=0.495;entryDx=0;entryDy=0;entryPerimeter=0;flowAnimation=1;strokeWidth=3;" parent="kfbQjCIQF7K4VHMFwIz1-1" source="kfbQjCIQF7K4VHMFwIz1-34" target="kfbQjCIQF7K4VHMFwIz1-26" edge="1">
          <mxGeometry relative="1" as="geometry" />
        </mxCell>
        <mxCell id="kfbQjCIQF7K4VHMFwIz1-33" value="" style="group" parent="kfbQjCIQF7K4VHMFwIz1-1" vertex="1" connectable="0">
          <mxGeometry x="10" y="190" width="180" height="89.31" as="geometry" />
        </mxCell>
        <mxCell id="kfbQjCIQF7K4VHMFwIz1-34" value="" style="rounded=1;whiteSpace=wrap;html=1;absoluteArcSize=1;arcSize=14;strokeWidth=2;fillColor=#eeeeee;strokeColor=#36393d;opacity=40;" parent="kfbQjCIQF7K4VHMFwIz1-33" vertex="1">
          <mxGeometry y="20" width="180" height="66" as="geometry" />
        </mxCell>
        <mxCell id="kfbQjCIQF7K4VHMFwIz1-35" value="API Endpoints" style="text;html=1;align=center;verticalAlign=middle;resizable=0;points=[];autosize=1;strokeColor=none;fillColor=none;" parent="kfbQjCIQF7K4VHMFwIz1-33" vertex="1">
          <mxGeometry y="19.999310344827585" width="100" height="30" as="geometry" />
        </mxCell>
        <mxCell id="kfbQjCIQF7K4VHMFwIz1-36" value="Ethos" style="rounded=1;whiteSpace=wrap;html=1;aspect=fixed;fillColor=#f8cecc;strokeColor=#b85450;" parent="kfbQjCIQF7K4VHMFwIz1-33" vertex="1">
          <mxGeometry x="10" y="50" width="120" height="30" as="geometry" />
        </mxCell>
        <mxCell id="kfbQjCIQF7K4VHMFwIz1-37" value="&lt;span data-lucid-content=&quot;{&amp;quot;t&amp;quot;:&amp;quot;Data Quality &amp;amp; Governance: Unity Catalog and Data.World&amp;quot;,&amp;quot;m&amp;quot;:[{&amp;quot;s&amp;quot;:0,&amp;quot;n&amp;quot;:&amp;quot;b&amp;quot;,&amp;quot;v&amp;quot;:true,&amp;quot;e&amp;quot;:27},{&amp;quot;s&amp;quot;:0,&amp;quot;n&amp;quot;:&amp;quot;c&amp;quot;,&amp;quot;v&amp;quot;:&amp;quot;#000000ff&amp;quot;,&amp;quot;e&amp;quot;:55},{&amp;quot;s&amp;quot;:0,&amp;quot;n&amp;quot;:&amp;quot;fc&amp;quot;,&amp;quot;v&amp;quot;:&amp;quot;Bold&amp;quot;,&amp;quot;e&amp;quot;:27},{&amp;quot;s&amp;quot;:0,&amp;quot;n&amp;quot;:&amp;quot;fid&amp;quot;,&amp;quot;v&amp;quot;:947014,&amp;quot;e&amp;quot;:27},{&amp;quot;s&amp;quot;:0,&amp;quot;n&amp;quot;:&amp;quot;fsp&amp;quot;,&amp;quot;v&amp;quot;:&amp;quot;ss_presetShapeStyle1_textStyle&amp;quot;,&amp;quot;e&amp;quot;:55},{&amp;quot;s&amp;quot;:0,&amp;quot;n&amp;quot;:&amp;quot;s&amp;quot;,&amp;quot;v&amp;quot;:22.22222222222222,&amp;quot;e&amp;quot;:55},{&amp;quot;s&amp;quot;:27,&amp;quot;n&amp;quot;:&amp;quot;fc&amp;quot;,&amp;quot;v&amp;quot;:&amp;quot;Regular&amp;quot;,&amp;quot;e&amp;quot;:55},{&amp;quot;s&amp;quot;:27,&amp;quot;n&amp;quot;:&amp;quot;fid&amp;quot;,&amp;quot;v&amp;quot;:947029,&amp;quot;e&amp;quot;:55}]}&quot; data-lucid-type=&quot;application/vnd.lucid.text&quot;&gt;&lt;font style=&quot;font-size: 11px;&quot;&gt;&lt;span style=&quot;font-weight: bold;&quot;&gt;Production Readiness: &lt;/span&gt;Each workspace will contain a Dev/Test/Prod layer.&amp;nbsp;&lt;/font&gt;&lt;/span&gt;" style="rounded=1;whiteSpace=wrap;html=1;absoluteArcSize=1;arcSize=14;strokeWidth=2;fillColor=#eeeeee;strokeColor=#36393d;" parent="kfbQjCIQF7K4VHMFwIz1-1" vertex="1">
          <mxGeometry x="660" y="473" width="480" height="40" as="geometry" />
        </mxCell>
        <mxCell id="kfbQjCIQF7K4VHMFwIz1-38" value="&lt;span data-lucid-content=&quot;{&amp;quot;t&amp;quot;:&amp;quot;Ingest &amp;amp; Transform: Delta Live Tables | Orchestration: Databricks Workflows&amp;quot;,&amp;quot;m&amp;quot;:[{&amp;quot;s&amp;quot;:0,&amp;quot;n&amp;quot;:&amp;quot;b&amp;quot;,&amp;quot;v&amp;quot;:true,&amp;quot;e&amp;quot;:19},{&amp;quot;s&amp;quot;:0,&amp;quot;n&amp;quot;:&amp;quot;c&amp;quot;,&amp;quot;v&amp;quot;:&amp;quot;#000000ff&amp;quot;,&amp;quot;e&amp;quot;:75},{&amp;quot;s&amp;quot;:0,&amp;quot;n&amp;quot;:&amp;quot;fc&amp;quot;,&amp;quot;v&amp;quot;:&amp;quot;Bold&amp;quot;,&amp;quot;e&amp;quot;:19},{&amp;quot;s&amp;quot;:0,&amp;quot;n&amp;quot;:&amp;quot;fid&amp;quot;,&amp;quot;v&amp;quot;:947014,&amp;quot;e&amp;quot;:19},{&amp;quot;s&amp;quot;:0,&amp;quot;n&amp;quot;:&amp;quot;fsp&amp;quot;,&amp;quot;v&amp;quot;:&amp;quot;ss_presetShapeStyle1_textStyle&amp;quot;,&amp;quot;e&amp;quot;:75},{&amp;quot;s&amp;quot;:0,&amp;quot;n&amp;quot;:&amp;quot;s&amp;quot;,&amp;quot;v&amp;quot;:22.22222222222222,&amp;quot;e&amp;quot;:75},{&amp;quot;s&amp;quot;:40,&amp;quot;n&amp;quot;:&amp;quot;b&amp;quot;,&amp;quot;v&amp;quot;:true,&amp;quot;e&amp;quot;:53},{&amp;quot;s&amp;quot;:40,&amp;quot;n&amp;quot;:&amp;quot;fc&amp;quot;,&amp;quot;v&amp;quot;:&amp;quot;Bold&amp;quot;,&amp;quot;e&amp;quot;:53},{&amp;quot;s&amp;quot;:40,&amp;quot;n&amp;quot;:&amp;quot;fid&amp;quot;,&amp;quot;v&amp;quot;:947014,&amp;quot;e&amp;quot;:53}]}&quot; data-lucid-type=&quot;application/vnd.lucid.text&quot;&gt;&lt;font style=&quot;font-size: 11px;&quot;&gt;&lt;span style=&quot;font-weight: bold;&quot;&gt;Ingest &amp;amp; Transform:&lt;/span&gt; Delta Live Tables | &lt;span style=&quot;font-weight: bold;&quot;&gt;Orchestration&lt;/span&gt;: Databricks Workflows&lt;/font&gt;&lt;/span&gt;" style="rounded=1;whiteSpace=wrap;html=1;absoluteArcSize=1;arcSize=14;strokeWidth=2;fillColor=#eeeeee;strokeColor=#36393d;" parent="kfbQjCIQF7K4VHMFwIz1-1" vertex="1">
          <mxGeometry x="665" y="1240" width="480" height="40" as="geometry" />
        </mxCell>
        <mxCell id="kfbQjCIQF7K4VHMFwIz1-39" value="" style="group" parent="kfbQjCIQF7K4VHMFwIz1-1" vertex="1" connectable="0">
          <mxGeometry x="665" y="1289" width="480" height="160" as="geometry" />
        </mxCell>
        <mxCell id="kfbQjCIQF7K4VHMFwIz1-40" value="" style="rounded=1;whiteSpace=wrap;html=1;absoluteArcSize=1;arcSize=14;strokeWidth=2;fillColor=#eeeeee;strokeColor=#36393d;" parent="kfbQjCIQF7K4VHMFwIz1-39" vertex="1">
          <mxGeometry width="480" height="160" as="geometry" />
        </mxCell>
        <mxCell id="kfbQjCIQF7K4VHMFwIz1-41" style="edgeStyle=orthogonalEdgeStyle;rounded=0;orthogonalLoop=1;jettySize=auto;html=1;flowAnimation=1;strokeWidth=3;" parent="kfbQjCIQF7K4VHMFwIz1-39" source="kfbQjCIQF7K4VHMFwIz1-42" target="kfbQjCIQF7K4VHMFwIz1-44" edge="1">
          <mxGeometry relative="1" as="geometry" />
        </mxCell>
        <mxCell id="kfbQjCIQF7K4VHMFwIz1-42" value="DBX&lt;br&gt;Bronze" style="shape=cylinder3;whiteSpace=wrap;html=1;boundedLbl=1;backgroundOutline=1;size=15;fillColor=light-dark(#CD7F32,var(--ge-dark-color, #121212));" parent="kfbQjCIQF7K4VHMFwIz1-39" vertex="1">
          <mxGeometry x="75.29411764705883" y="52.2093023255814" width="47.05882352941177" height="68" as="geometry" />
        </mxCell>
        <mxCell id="kfbQjCIQF7K4VHMFwIz1-43" style="edgeStyle=orthogonalEdgeStyle;rounded=0;orthogonalLoop=1;jettySize=auto;html=1;flowAnimation=1;strokeWidth=3;" parent="kfbQjCIQF7K4VHMFwIz1-39" source="kfbQjCIQF7K4VHMFwIz1-44" target="kfbQjCIQF7K4VHMFwIz1-45" edge="1">
          <mxGeometry relative="1" as="geometry" />
        </mxCell>
        <mxCell id="kfbQjCIQF7K4VHMFwIz1-44" value="DBX&lt;br&gt;Silver" style="shape=cylinder3;whiteSpace=wrap;html=1;boundedLbl=1;backgroundOutline=1;size=15;fillColor=light-dark(#C0C0C0,var(--ge-dark-color, #121212));" parent="kfbQjCIQF7K4VHMFwIz1-39" vertex="1">
          <mxGeometry x="207.05882352941177" y="52.2093023255814" width="47.05882352941177" height="68" as="geometry" />
        </mxCell>
        <mxCell id="kfbQjCIQF7K4VHMFwIz1-45" value="DBX&lt;br&gt;Gold" style="shape=cylinder3;whiteSpace=wrap;html=1;boundedLbl=1;backgroundOutline=1;size=15;fillColor=light-dark(#FFD700,var(--ge-dark-color, #121212));" parent="kfbQjCIQF7K4VHMFwIz1-39" vertex="1">
          <mxGeometry x="348.235294117647" y="52.2093023255814" width="47.05882352941177" height="68" as="geometry" />
        </mxCell>
        <mxCell id="kfbQjCIQF7K4VHMFwIz1-46" value="Incoming Incremental Files" style="text;html=1;align=center;verticalAlign=middle;resizable=0;points=[];autosize=1;strokeColor=none;fillColor=none;" parent="kfbQjCIQF7K4VHMFwIz1-39" vertex="1">
          <mxGeometry y="2.4806201550387597" width="170" height="30" as="geometry" />
        </mxCell>
        <mxCell id="kfbQjCIQF7K4VHMFwIz1-47" value="" style="edgeStyle=orthogonalEdgeStyle;rounded=0;orthogonalLoop=1;jettySize=auto;html=1;entryX=0.419;entryY=0.986;entryDx=0;entryDy=0;entryPerimeter=0;flowAnimation=1;fillColor=#dae8fc;strokeColor=#6c8ebf;strokeWidth=3;" parent="kfbQjCIQF7K4VHMFwIz1-39" source="kfbQjCIQF7K4VHMFwIz1-44" target="kfbQjCIQF7K4VHMFwIz1-42" edge="1">
          <mxGeometry relative="1" as="geometry">
            <Array as="points">
              <mxPoint x="231" y="140" />
              <mxPoint x="95" y="140" />
            </Array>
          </mxGeometry>
        </mxCell>
        <mxCell id="kfbQjCIQF7K4VHMFwIz1-48" value="Apply Into API" style="text;html=1;align=center;verticalAlign=middle;resizable=0;points=[];autosize=1;strokeColor=none;fillColor=none;" parent="kfbQjCIQF7K4VHMFwIz1-39" vertex="1">
          <mxGeometry x="110" y="114" width="100" height="30" as="geometry" />
        </mxCell>
        <mxCell id="kfbQjCIQF7K4VHMFwIz1-49" value="&lt;font style=&quot;font-size: 8px;&quot;&gt;SCD 1 or SCD 2&lt;/font&gt;" style="text;html=1;align=center;verticalAlign=middle;resizable=0;points=[];autosize=1;strokeColor=none;fillColor=none;" parent="kfbQjCIQF7K4VHMFwIz1-39" vertex="1">
          <mxGeometry x="190" y="1" width="80" height="30" as="geometry" />
        </mxCell>
        <mxCell id="kfbQjCIQF7K4VHMFwIz1-50" style="edgeStyle=orthogonalEdgeStyle;rounded=0;orthogonalLoop=1;jettySize=auto;html=1;entryX=0.466;entryY=-0.006;entryDx=0;entryDy=0;entryPerimeter=0;flowAnimation=1;fillColor=#d5e8d4;strokeColor=#82b366;strokeWidth=3;" parent="kfbQjCIQF7K4VHMFwIz1-39" edge="1">
          <mxGeometry relative="1" as="geometry">
            <mxPoint x="98.83999999999992" y="52.20930232558112" as="sourcePoint" />
            <mxPoint x="228.98823529411766" y="51.801302325580764" as="targetPoint" />
            <Array as="points">
              <mxPoint x="99" y="31" />
              <mxPoint x="229" y="31" />
            </Array>
          </mxGeometry>
        </mxCell>
        <mxCell id="kfbQjCIQF7K4VHMFwIz1-51" value="S3 Storage Bucket" style="whiteSpace=wrap;html=1;fillColor=#dae8fc;strokeColor=#6c8ebf;" parent="kfbQjCIQF7K4VHMFwIz1-1" vertex="1">
          <mxGeometry x="465" y="1449" width="110" height="60" as="geometry" />
        </mxCell>
        <mxCell id="kfbQjCIQF7K4VHMFwIz1-52" style="edgeStyle=orthogonalEdgeStyle;rounded=0;orthogonalLoop=1;jettySize=auto;html=1;entryX=0.005;entryY=0.503;entryDx=0;entryDy=0;entryPerimeter=0;flowAnimation=1;strokeWidth=3;" parent="kfbQjCIQF7K4VHMFwIz1-1" source="kfbQjCIQF7K4VHMFwIz1-51" target="kfbQjCIQF7K4VHMFwIz1-40" edge="1">
          <mxGeometry relative="1" as="geometry" />
        </mxCell>
        <mxCell id="kfbQjCIQF7K4VHMFwIz1-53" value="Landing Zones" style="text;html=1;align=center;verticalAlign=middle;resizable=0;points=[];autosize=1;strokeColor=none;fillColor=none;" parent="kfbQjCIQF7K4VHMFwIz1-1" vertex="1">
          <mxGeometry x="470" y="1409" width="100" height="30" as="geometry" />
        </mxCell>
        <mxCell id="kfbQjCIQF7K4VHMFwIz1-54" value="CDC Example (Adkins)&amp;nbsp;&lt;br&gt;Drill Down" style="whiteSpace=wrap;html=1;" parent="kfbQjCIQF7K4VHMFwIz1-1" vertex="1">
          <mxGeometry x="455" y="1339" width="120" height="60" as="geometry" />
        </mxCell>
        <mxCell id="kfbQjCIQF7K4VHMFwIz1-55" value="" style="group" parent="kfbQjCIQF7K4VHMFwIz1-1" vertex="1" connectable="0">
          <mxGeometry x="665" y="1478" width="480" height="160" as="geometry" />
        </mxCell>
        <mxCell id="kfbQjCIQF7K4VHMFwIz1-56" value="" style="rounded=1;whiteSpace=wrap;html=1;absoluteArcSize=1;arcSize=14;strokeWidth=2;fillColor=#eeeeee;strokeColor=#36393d;" parent="kfbQjCIQF7K4VHMFwIz1-55" vertex="1">
          <mxGeometry width="480" height="160" as="geometry" />
        </mxCell>
        <mxCell id="kfbQjCIQF7K4VHMFwIz1-57" style="edgeStyle=orthogonalEdgeStyle;rounded=0;orthogonalLoop=1;jettySize=auto;html=1;flowAnimation=1;strokeWidth=3;" parent="kfbQjCIQF7K4VHMFwIz1-55" source="kfbQjCIQF7K4VHMFwIz1-58" target="kfbQjCIQF7K4VHMFwIz1-60" edge="1">
          <mxGeometry relative="1" as="geometry" />
        </mxCell>
        <mxCell id="kfbQjCIQF7K4VHMFwIz1-58" value="DBX&lt;br&gt;Bronze" style="shape=cylinder3;whiteSpace=wrap;html=1;boundedLbl=1;backgroundOutline=1;size=15;fillColor=light-dark(#CD7F32,var(--ge-dark-color, #121212));" parent="kfbQjCIQF7K4VHMFwIz1-55" vertex="1">
          <mxGeometry x="75.29411764705883" y="52.2093023255814" width="47.05882352941177" height="68" as="geometry" />
        </mxCell>
        <mxCell id="kfbQjCIQF7K4VHMFwIz1-59" style="edgeStyle=orthogonalEdgeStyle;rounded=0;orthogonalLoop=1;jettySize=auto;html=1;flowAnimation=1;strokeWidth=3;" parent="kfbQjCIQF7K4VHMFwIz1-55" source="kfbQjCIQF7K4VHMFwIz1-60" target="kfbQjCIQF7K4VHMFwIz1-61" edge="1">
          <mxGeometry relative="1" as="geometry" />
        </mxCell>
        <mxCell id="kfbQjCIQF7K4VHMFwIz1-60" value="DBX&lt;br&gt;Silver" style="shape=cylinder3;whiteSpace=wrap;html=1;boundedLbl=1;backgroundOutline=1;size=15;fillColor=light-dark(#C0C0C0,var(--ge-dark-color, #121212));" parent="kfbQjCIQF7K4VHMFwIz1-55" vertex="1">
          <mxGeometry x="207.05882352941177" y="52.2093023255814" width="47.05882352941177" height="68" as="geometry" />
        </mxCell>
        <mxCell id="kfbQjCIQF7K4VHMFwIz1-61" value="DBX&lt;br&gt;Gold" style="shape=cylinder3;whiteSpace=wrap;html=1;boundedLbl=1;backgroundOutline=1;size=15;fillColor=light-dark(#FFD700,var(--ge-dark-color, #121212));" parent="kfbQjCIQF7K4VHMFwIz1-55" vertex="1">
          <mxGeometry x="348.235294117647" y="52.2093023255814" width="47.05882352941177" height="68" as="geometry" />
        </mxCell>
        <mxCell id="kfbQjCIQF7K4VHMFwIz1-62" value="Incoming Full Files" style="text;html=1;align=center;verticalAlign=middle;resizable=0;points=[];autosize=1;strokeColor=none;fillColor=none;" parent="kfbQjCIQF7K4VHMFwIz1-55" vertex="1">
          <mxGeometry x="3" y="2.4806201550387597" width="120" height="30" as="geometry" />
        </mxCell>
        <mxCell id="kfbQjCIQF7K4VHMFwIz1-63" value="" style="edgeStyle=orthogonalEdgeStyle;rounded=0;orthogonalLoop=1;jettySize=auto;html=1;entryX=0.419;entryY=0.986;entryDx=0;entryDy=0;entryPerimeter=0;flowAnimation=1;fillColor=#dae8fc;strokeColor=#6c8ebf;strokeWidth=3;" parent="kfbQjCIQF7K4VHMFwIz1-55" source="kfbQjCIQF7K4VHMFwIz1-60" target="kfbQjCIQF7K4VHMFwIz1-58" edge="1">
          <mxGeometry relative="1" as="geometry">
            <Array as="points">
              <mxPoint x="231" y="140" />
              <mxPoint x="95" y="140" />
            </Array>
          </mxGeometry>
        </mxCell>
        <mxCell id="kfbQjCIQF7K4VHMFwIz1-64" value="&lt;font style=&quot;font-size: 11px;&quot;&gt;Apply Snapshot API&lt;/font&gt;" style="text;html=1;align=center;verticalAlign=middle;resizable=0;points=[];autosize=1;strokeColor=none;fillColor=none;" parent="kfbQjCIQF7K4VHMFwIz1-55" vertex="1">
          <mxGeometry x="100" y="115" width="120" height="30" as="geometry" />
        </mxCell>
        <mxCell id="kfbQjCIQF7K4VHMFwIz1-65" value="&lt;font style=&quot;font-size: 8px;&quot;&gt;SCD 1 or SCD 2&lt;/font&gt;" style="text;html=1;align=center;verticalAlign=middle;resizable=0;points=[];autosize=1;strokeColor=none;fillColor=none;" parent="kfbQjCIQF7K4VHMFwIz1-55" vertex="1">
          <mxGeometry x="188" y="3" width="80" height="30" as="geometry" />
        </mxCell>
        <mxCell id="kfbQjCIQF7K4VHMFwIz1-66" style="edgeStyle=orthogonalEdgeStyle;rounded=0;orthogonalLoop=1;jettySize=auto;html=1;entryX=0.526;entryY=0.015;entryDx=0;entryDy=0;entryPerimeter=0;flowAnimation=1;fillColor=#d5e8d4;strokeColor=#82b366;strokeWidth=3;" parent="kfbQjCIQF7K4VHMFwIz1-55" source="kfbQjCIQF7K4VHMFwIz1-58" target="kfbQjCIQF7K4VHMFwIz1-60" edge="1">
          <mxGeometry relative="1" as="geometry">
            <Array as="points">
              <mxPoint x="99" y="32" />
              <mxPoint x="232" y="32" />
            </Array>
          </mxGeometry>
        </mxCell>
        <mxCell id="kfbQjCIQF7K4VHMFwIz1-67" style="edgeStyle=orthogonalEdgeStyle;rounded=0;orthogonalLoop=1;jettySize=auto;html=1;entryX=0.001;entryY=0.566;entryDx=0;entryDy=0;entryPerimeter=0;flowAnimation=1;strokeWidth=3;" parent="kfbQjCIQF7K4VHMFwIz1-1" source="kfbQjCIQF7K4VHMFwIz1-51" target="kfbQjCIQF7K4VHMFwIz1-56" edge="1">
          <mxGeometry relative="1" as="geometry" />
        </mxCell>
        <mxCell id="kfbQjCIQF7K4VHMFwIz1-68" value="&lt;span style=&quot;font-size: 11px;&quot;&gt;&lt;b&gt;Databricks Ecosystem: &lt;/b&gt;Leverage Unity Catalog External Location (instead of mounting)&lt;/span&gt;" style="rounded=1;whiteSpace=wrap;html=1;absoluteArcSize=1;arcSize=14;strokeWidth=2;fillColor=#eeeeee;strokeColor=#36393d;" parent="kfbQjCIQF7K4VHMFwIz1-1" vertex="1">
          <mxGeometry x="664" y="948" width="480" height="40" as="geometry" />
        </mxCell>
        <mxCell id="kfbQjCIQF7K4VHMFwIz1-69" value="" style="group;fillColor=#fff2cc;strokeColor=#d6b656;" parent="kfbQjCIQF7K4VHMFwIz1-1" vertex="1" connectable="0">
          <mxGeometry x="664" y="996" width="480" height="160" as="geometry" />
        </mxCell>
        <mxCell id="kfbQjCIQF7K4VHMFwIz1-70" value="" style="rounded=1;whiteSpace=wrap;html=1;absoluteArcSize=1;arcSize=14;strokeWidth=2;fillColor=#eeeeee;strokeColor=#36393d;" parent="kfbQjCIQF7K4VHMFwIz1-69" vertex="1">
          <mxGeometry y="1" width="480" height="160" as="geometry" />
        </mxCell>
        <mxCell id="kfbQjCIQF7K4VHMFwIz1-71" style="edgeStyle=orthogonalEdgeStyle;rounded=0;orthogonalLoop=1;jettySize=auto;html=1;flowAnimation=1;" parent="kfbQjCIQF7K4VHMFwIz1-69" source="kfbQjCIQF7K4VHMFwIz1-72" target="kfbQjCIQF7K4VHMFwIz1-74" edge="1">
          <mxGeometry relative="1" as="geometry" />
        </mxCell>
        <mxCell id="kfbQjCIQF7K4VHMFwIz1-72" value="DBX&lt;br&gt;Bronze" style="shape=cylinder3;whiteSpace=wrap;html=1;boundedLbl=1;backgroundOutline=1;size=15;fillColor=light-dark(#CD7F32,var(--ge-dark-color, #121212));" parent="kfbQjCIQF7K4VHMFwIz1-69" vertex="1">
          <mxGeometry x="170.00411764705882" y="52.2093023255814" width="47.05882352941177" height="68" as="geometry" />
        </mxCell>
        <mxCell id="kfbQjCIQF7K4VHMFwIz1-73" style="edgeStyle=orthogonalEdgeStyle;rounded=0;orthogonalLoop=1;jettySize=auto;html=1;flowAnimation=1;" parent="kfbQjCIQF7K4VHMFwIz1-69" source="kfbQjCIQF7K4VHMFwIz1-74" target="kfbQjCIQF7K4VHMFwIz1-75" edge="1">
          <mxGeometry relative="1" as="geometry" />
        </mxCell>
        <mxCell id="kfbQjCIQF7K4VHMFwIz1-74" value="DBX&lt;br&gt;Silver" style="shape=cylinder3;whiteSpace=wrap;html=1;boundedLbl=1;backgroundOutline=1;size=15;fillColor=light-dark(#C0C0C0,var(--ge-dark-color, #121212));" parent="kfbQjCIQF7K4VHMFwIz1-69" vertex="1">
          <mxGeometry x="289.99882352941177" y="52.2093023255814" width="47.05882352941177" height="68" as="geometry" />
        </mxCell>
        <mxCell id="kfbQjCIQF7K4VHMFwIz1-75" value="DBX&lt;br&gt;Gold" style="shape=cylinder3;whiteSpace=wrap;html=1;boundedLbl=1;backgroundOutline=1;size=15;fillColor=light-dark(#FFD700,var(--ge-dark-color, #121212));" parent="kfbQjCIQF7K4VHMFwIz1-69" vertex="1">
          <mxGeometry x="412.945294117647" y="52.2093023255814" width="47.05882352941177" height="68" as="geometry" />
        </mxCell>
        <mxCell id="kfbQjCIQF7K4VHMFwIz1-76" value="Incoming Files From Storage&lt;br&gt;&lt;div style=&quot;text-align: left;&quot;&gt;&lt;span style=&quot;font-size: 9px; background-color: transparent; color: light-dark(rgb(0, 0, 0), rgb(255, 255, 255));&quot;&gt;Avoid individual mounting&lt;/span&gt;&lt;/div&gt;" style="text;html=1;align=center;verticalAlign=middle;resizable=0;points=[];autosize=1;strokeColor=none;fillColor=none;" parent="kfbQjCIQF7K4VHMFwIz1-69" vertex="1">
          <mxGeometry x="-5" y="-2.5193798449612403" width="180" height="40" as="geometry" />
        </mxCell>
        <mxCell id="kfbQjCIQF7K4VHMFwIz1-77" value="&lt;font style=&quot;font-size: 9px;&quot;&gt;Unity Catalog&lt;br&gt;External Data Point&lt;/font&gt;" style="shape=parallelogram;perimeter=parallelogramPerimeter;whiteSpace=wrap;html=1;fixedSize=1;fillColor=#d5e8d4;strokeColor=#82b366;" parent="kfbQjCIQF7K4VHMFwIz1-69" vertex="1">
          <mxGeometry x="10" y="58" width="120" height="58" as="geometry" />
        </mxCell>
        <mxCell id="kfbQjCIQF7K4VHMFwIz1-78" style="edgeStyle=orthogonalEdgeStyle;rounded=0;orthogonalLoop=1;jettySize=auto;html=1;entryX=0;entryY=0.57;entryDx=0;entryDy=0;entryPerimeter=0;flowAnimation=1;" parent="kfbQjCIQF7K4VHMFwIz1-69" source="kfbQjCIQF7K4VHMFwIz1-77" edge="1">
          <mxGeometry relative="1" as="geometry">
            <mxPoint x="170.00411764705882" y="86.96930232558134" as="targetPoint" />
          </mxGeometry>
        </mxCell>
        <mxCell id="kfbQjCIQF7K4VHMFwIz1-79" value="&lt;font style=&quot;font-size: 8px;&quot;&gt;Auto Loader&lt;/font&gt;" style="text;html=1;align=center;verticalAlign=middle;whiteSpace=wrap;rounded=0;" parent="kfbQjCIQF7K4VHMFwIz1-69" vertex="1">
          <mxGeometry x="113" y="80" width="60" height="30" as="geometry" />
        </mxCell>
        <mxCell id="kfbQjCIQF7K4VHMFwIz1-80" value="S3 Storage Bucket" style="whiteSpace=wrap;html=1;fillColor=#dae8fc;strokeColor=#6c8ebf;" parent="kfbQjCIQF7K4VHMFwIz1-1" vertex="1">
          <mxGeometry x="484" y="1048" width="110" height="60" as="geometry" />
        </mxCell>
        <mxCell id="kfbQjCIQF7K4VHMFwIz1-81" style="edgeStyle=orthogonalEdgeStyle;rounded=0;orthogonalLoop=1;jettySize=auto;html=1;entryX=0.005;entryY=0.503;entryDx=0;entryDy=0;entryPerimeter=0;flowAnimation=1;" parent="kfbQjCIQF7K4VHMFwIz1-1" source="kfbQjCIQF7K4VHMFwIz1-80" target="kfbQjCIQF7K4VHMFwIz1-70" edge="1">
          <mxGeometry relative="1" as="geometry" />
        </mxCell>
        <mxCell id="kfbQjCIQF7K4VHMFwIz1-82" value="Landing Zones" style="text;html=1;align=center;verticalAlign=middle;resizable=0;points=[];autosize=1;strokeColor=none;fillColor=none;" parent="kfbQjCIQF7K4VHMFwIz1-1" vertex="1">
          <mxGeometry x="484" y="1007" width="100" height="30" as="geometry" />
        </mxCell>
        <mxCell id="kfbQjCIQF7K4VHMFwIz1-83" value="External Data Load&lt;br&gt;Drill down" style="whiteSpace=wrap;html=1;" parent="kfbQjCIQF7K4VHMFwIz1-1" vertex="1">
          <mxGeometry x="480" y="947" width="120" height="60" as="geometry" />
        </mxCell>
        <UserObject label="&lt;a href=&quot;https://docs.databricks.com/aws/en/connect/unity-catalog/cloud-storage/external-locations&quot;&gt;Create an external location to connect cloud storage to Databricks | Databricks Documentation&lt;/a&gt;" link="&lt;a href=&quot;https://docs.databricks.com/aws/en/connect/unity-catalog/cloud-storage/external-locations&quot;&gt;Create an external location to connect cloud storage to Databricks | Databricks Documentation&lt;/a&gt;" id="kfbQjCIQF7K4VHMFwIz1-84">
          <mxCell style="text;whiteSpace=wrap;html=1;" parent="kfbQjCIQF7K4VHMFwIz1-1" vertex="1">
            <mxGeometry x="664" y="1162" width="530" height="40" as="geometry" />
          </mxCell>
        </UserObject>
        <UserObject label="&lt;a href=&quot;https://learn.microsoft.com/en-us/azure/databricks/delta-live-tables/cdc&quot;&gt;The APPLY CHANGES APIs: Simplify change data capture with Delta Live Tables - Azure Databricks | Microsoft Learn&lt;/a&gt;&lt;br&gt;https://docs.databricks.com/aws/en/delta-live-tables/cdc&lt;div&gt;&lt;a href=&quot;https://docs.databricks.com/aws/en/ingestion/cloud-object-storage/auto-loader/schema#how-does-auto-loader-schema-evolution-work&quot;&gt;Configure schema inference and evolution in Auto Loader | Databricks Documentation&lt;/a&gt;&lt;/div&gt;" link="&lt;a href=&quot;https://learn.microsoft.com/en-us/azure/databricks/delta-live-tables/cdc&quot;&gt;The APPLY CHANGES APIs: Simplify change data capture with Delta Live Tables - Azure Databricks | Microsoft Learn&lt;/a&gt;" id="kfbQjCIQF7K4VHMFwIz1-85">
          <mxCell style="text;whiteSpace=wrap;html=1;" parent="kfbQjCIQF7K4VHMFwIz1-1" vertex="1">
            <mxGeometry x="665" y="1650" width="485" height="140" as="geometry" />
          </mxCell>
        </UserObject>
        <mxCell id="kfbQjCIQF7K4VHMFwIz1-86" value="" style="rounded=1;whiteSpace=wrap;html=1;absoluteArcSize=1;arcSize=14;strokeWidth=2;fillColor=#eeeeee;strokeColor=#36393d;opacity=40;" parent="kfbQjCIQF7K4VHMFwIz1-1" vertex="1">
          <mxGeometry x="10" y="286" width="180" height="234" as="geometry" />
        </mxCell>
        <mxCell id="kfbQjCIQF7K4VHMFwIz1-87" value="Databases" style="text;html=1;align=center;verticalAlign=middle;resizable=0;points=[];autosize=1;strokeColor=none;fillColor=none;" parent="kfbQjCIQF7K4VHMFwIz1-1" vertex="1">
          <mxGeometry x="10" y="286" width="80" height="30" as="geometry" />
        </mxCell>
        <mxCell id="kfbQjCIQF7K4VHMFwIz1-88" value="Epic" style="rounded=1;whiteSpace=wrap;html=1;aspect=fixed;fillColor=#f8cecc;strokeColor=#b85450;" parent="kfbQjCIQF7K4VHMFwIz1-1" vertex="1">
          <mxGeometry x="20" y="316" width="120" height="30" as="geometry" />
        </mxCell>
        <mxCell id="kfbQjCIQF7K4VHMFwIz1-89" value="Facets" style="rounded=1;whiteSpace=wrap;html=1;fillColor=#b1ddf0;strokeColor=#10739e;" parent="kfbQjCIQF7K4VHMFwIz1-1" vertex="1">
          <mxGeometry x="20" y="356" width="120" height="30" as="geometry" />
        </mxCell>
        <mxCell id="kfbQjCIQF7K4VHMFwIz1-90" value="Teletracking" style="rounded=1;whiteSpace=wrap;html=1;fillColor=#d5e8d4;strokeColor=#82b366;" parent="kfbQjCIQF7K4VHMFwIz1-1" vertex="1">
          <mxGeometry x="20" y="396" width="120" height="30" as="geometry" />
        </mxCell>
        <mxCell id="kfbQjCIQF7K4VHMFwIz1-91" value="ServiceNow" style="rounded=1;whiteSpace=wrap;html=1;fillColor=#e1d5e7;strokeColor=#9673a6;" parent="kfbQjCIQF7K4VHMFwIz1-1" vertex="1">
          <mxGeometry x="20" y="436" width="120" height="30" as="geometry" />
        </mxCell>
        <mxCell id="kfbQjCIQF7K4VHMFwIz1-92" value="Midas" style="rounded=1;whiteSpace=wrap;html=1;fillColor=#ffe6cc;strokeColor=#d79b00;" parent="kfbQjCIQF7K4VHMFwIz1-1" vertex="1">
          <mxGeometry x="20" y="476" width="120" height="30" as="geometry" />
        </mxCell>
        <mxCell id="kfbQjCIQF7K4VHMFwIz1-93" value="&lt;span style=&quot;color: rgba(0, 0, 0, 0); font-family: monospace; font-size: 0px; text-align: start; text-wrap-mode: nowrap;&quot;&gt;%3CmxGraphModel%3E%3Croot%3E%3CmxCell%20id%3D%220%22%2F%3E%3CmxCell%20id%3D%221%22%20parent%3D%220%22%2F%3E%3CmxCell%20id%3D%222%22%20value%3D%22%22%20style%3D%22group%22%20vertex%3D%221%22%20connectable%3D%220%22%20parent%3D%221%22%3E%3CmxGeometry%20x%3D%22-140%22%20y%3D%22230%22%20width%3D%22180%22%20height%3D%22520%22%20as%3D%22geometry%22%2F%3E%3C%2FmxCell%3E%3CmxCell%20id%3D%223%22%20value%3D%22%22%20style%3D%22rounded%3D1%3BwhiteSpace%3Dwrap%3Bhtml%3D1%3BabsoluteArcSize%3D1%3BarcSize%3D14%3BstrokeWidth%3D2%3BfillColor%3D%23eeeeee%3BstrokeColor%3D%2336393d%3Bopacity%3D40%3B%22%20vertex%3D%221%22%20parent%3D%222%22%3E%3CmxGeometry%20width%3D%22180%22%20height%3D%22140%22%20as%3D%22geometry%22%2F%3E%3C%2FmxCell%3E%3CmxCell%20id%3D%224%22%20value%3D%22Databases%22%20style%3D%22text%3Bhtml%3D1%3Balign%3Dcenter%3BverticalAlign%3Dmiddle%3Bresizable%3D0%3Bpoints%3D%5B%5D%3Bautosize%3D1%3BstrokeColor%3Dnone%3BfillColor%3Dnone%3B%22%20vertex%3D%221%22%20parent%3D%222%22%3E%3CmxGeometry%20width%3D%2280%22%20height%3D%2230%22%20as%3D%22geometry%22%2F%3E%3C%2FmxCell%3E%3CmxCell%20id%3D%225%22%20value%3D%22Epic%22%20style%3D%22rounded%3D1%3BwhiteSpace%3Dwrap%3Bhtml%3D1%3Baspect%3Dfixed%3BfillColor%3D%23f8cecc%3BstrokeColor%3D%23b85450%3B%22%20vertex%3D%221%22%20parent%3D%222%22%3E%3CmxGeometry%20x%3D%2210%22%20y%3D%2230%22%20width%3D%22120%22%20height%3D%2230%22%20as%3D%22geometry%22%2F%3E%3C%2FmxCell%3E%3CmxCell%20id%3D%226%22%20value%3D%22Facets%22%20style%3D%22rounded%3D1%3BwhiteSpace%3Dwrap%3Bhtml%3D1%3BfillColor%3D%23b1ddf0%3BstrokeColor%3D%2310739e%3B%22%20vertex%3D%221%22%20parent%3D%222%22%3E%3CmxGeometry%20x%3D%2210%22%20y%3D%2270%22%20width%3D%22120%22%20height%3D%2230%22%20as%3D%22geometry%22%2F%3E%3C%2FmxCell%3E%3CmxCell%20id%3D%227%22%20value%3D%22%22%20style%3D%22group%22%20vertex%3D%221%22%20connectable%3D%220%22%20parent%3D%222%22%3E%3CmxGeometry%20y%3D%22160%22%20width%3D%22180%22%20height%3D%22360%22%20as%3D%22geometry%22%2F%3E%3C%2FmxCell%3E%3CmxCell%20id%3D%228%22%20value%3D%22%22%20style%3D%22rounded%3D1%3BwhiteSpace%3Dwrap%3Bhtml%3D1%3BabsoluteArcSize%3D1%3BarcSize%3D14%3BstrokeWidth%3D2%3BfillColor%3D%23eeeeee%3BstrokeColor%3D%2336393d%3Bopacity%3D40%3B%22%20vertex%3D%221%22%20parent%3D%227%22%3E%3CmxGeometry%20width%3D%22180%22%20height%3D%22360%22%20as%3D%22geometry%22%2F%3E%3C%2FmxCell%3E%3CmxCell%20id%3D%229%22%20value%3D%22Flat%20File%20Sources%22%20style%3D%22text%3Bhtml%3D1%3Balign%3Dcenter%3BverticalAlign%3Dmiddle%3Bresizable%3D0%3Bpoints%3D%5B%5D%3Bautosize%3D1%3BstrokeColor%3Dnone%3BfillColor%3Dnone%3B%22%20vertex%3D%221%22%20parent%3D%227%22%3E%3CmxGeometry%20width%3D%22110%22%20height%3D%2230%22%20as%3D%22geometry%22%2F%3E%3C%2FmxCell%3E%3CmxCell%20id%3D%2210%22%20value%3D%22Workday%22%20style%3D%22rounded%3D1%3BwhiteSpace%3Dwrap%3Bhtml%3D1%3Baspect%3Dfixed%3BfillColor%3D%23dae8fc%3BstrokeColor%3D%236c8ebf%3B%22%20vertex%3D%221%22%20parent%3D%227%22%3E%3CmxGeometry%20x%3D%2210%22%20y%3D%2230%22%20width%3D%22120%22%20height%3D%2230%22%20as%3D%22geometry%22%2F%3E%3C%2FmxCell%3E%3CmxCell%20id%3D%2211%22%20value%3D%22Inovalon%22%20style%3D%22rounded%3D1%3BwhiteSpace%3Dwrap%3Bhtml%3D1%3BfillColor%3D%23d5e8d4%3BstrokeColor%3D%2382b366%3B%22%20vertex%3D%221%22%20parent%3D%227%22%3E%3CmxGeometry%20x%3D%2210%22%20y%3D%2270%22%20width%3D%22120%22%20height%3D%2230%22%20as%3D%22geometry%22%2F%3E%3C%2FmxCell%3E%3CmxCell%20id%3D%2212%22%20value%3D%22Strata%22%20style%3D%22rounded%3D1%3BwhiteSpace%3Dwrap%3Bhtml%3D1%3BfillColor%3D%23e1d5e7%3BstrokeColor%3D%239673a6%3B%22%20vertex%3D%221%22%20parent%3D%227%22%3E%3CmxGeometry%20x%3D%2210%22%20y%3D%22110%22%20width%3D%22120%22%20height%3D%2230%22%20as%3D%22geometry%22%2F%3E%3C%2FmxCell%3E%3CmxCell%20id%3D%2213%22%20value%3D%22SalesForce%22%20style%3D%22rounded%3D1%3BwhiteSpace%3Dwrap%3Bhtml%3D1%3BfillColor%3D%23fad9d5%3BstrokeColor%3D%23ae4132%3B%22%20vertex%3D%221%22%20parent%3D%227%22%3E%3CmxGeometry%20x%3D%2210%22%20y%3D%22150%22%20width%3D%22120%22%20height%3D%2230%22%20as%3D%22geometry%22%2F%3E%3C%2FmxCell%3E%3CmxCell%20id%3D%2214%22%20value%3D%22Vizient%22%20style%3D%22rounded%3D1%3BwhiteSpace%3Dwrap%3Bhtml%3D1%3BfillColor%3D%23bac8d3%3BstrokeColor%3D%2323445d%3B%22%20vertex%3D%221%22%20parent%3D%227%22%3E%3CmxGeometry%20x%3D%2210%22%20y%3D%22190%22%20width%3D%22120%22%20height%3D%2230%22%20as%3D%22geometry%22%2F%3E%3C%2FmxCell%3E%3CmxCell%20id%3D%2215%22%20value%3D%22Millman%22%20style%3D%22rounded%3D1%3BwhiteSpace%3Dwrap%3Bhtml%3D1%3BfillColor%3D%23e1d5e7%3BstrokeColor%3D%239673a6%3B%22%20vertex%3D%221%22%20parent%3D%227%22%3E%3CmxGeometry%20x%3D%2210%22%20y%3D%22230%22%20width%3D%22120%22%20height%3D%2230%22%20as%3D%22geometry%22%2F%3E%3C%2FmxCell%3E%3CmxCell%20id%3D%2216%22%20value%3D%22PressGaney%22%20style%3D%22rounded%3D1%3BwhiteSpace%3Dwrap%3Bhtml%3D1%3BfillColor%3D%23d5e8d4%3BstrokeColor%3D%2382b366%3B%22%20vertex%3D%221%22%20parent%3D%227%22%3E%3CmxGeometry%20x%3D%2210%22%20y%3D%22270%22%20width%3D%22120%22%20height%3D%2230%22%20as%3D%22geometry%22%2F%3E%3C%2FmxCell%3E%3CmxCell%20id%3D%2217%22%20value%3D%22NextGate%22%20style%3D%22rounded%3D1%3BwhiteSpace%3Dwrap%3Bhtml%3D1%3BfillColor%3D%23ffe6cc%3BstrokeColor%3D%23d79b00%3B%22%20vertex%3D%221%22%20parent%3D%227%22%3E%3CmxGeometry%20x%3D%2210%22%20y%3D%22310%22%20width%3D%22120%22%20height%3D%2230%22%20as%3D%22geometry%22%2F%3E%3C%2FmxCell%3E%3C%2Froot%3E%3C%2FmxGraphModel%3E&lt;/span&gt;" style="rounded=1;whiteSpace=wrap;html=1;absoluteArcSize=1;arcSize=14;strokeWidth=2;fillColor=#eeeeee;strokeColor=#36393d;opacity=40;" parent="kfbQjCIQF7K4VHMFwIz1-1" vertex="1">
          <mxGeometry x="10" y="529" width="180" height="241" as="geometry" />
        </mxCell>
        <mxCell id="kfbQjCIQF7K4VHMFwIz1-94" value="Flat File Sources" style="text;html=1;align=center;verticalAlign=middle;resizable=0;points=[];autosize=1;strokeColor=none;fillColor=none;" parent="kfbQjCIQF7K4VHMFwIz1-1" vertex="1">
          <mxGeometry x="10" y="533" width="110" height="30" as="geometry" />
        </mxCell>
        <mxCell id="kfbQjCIQF7K4VHMFwIz1-95" value="Workday" style="rounded=1;whiteSpace=wrap;html=1;aspect=fixed;fillColor=#dae8fc;strokeColor=#6c8ebf;" parent="kfbQjCIQF7K4VHMFwIz1-1" vertex="1">
          <mxGeometry x="20" y="563" width="120" height="30" as="geometry" />
        </mxCell>
        <mxCell id="kfbQjCIQF7K4VHMFwIz1-96" value="PressGaney" style="rounded=1;whiteSpace=wrap;html=1;fillColor=#d5e8d4;strokeColor=#82b366;" parent="kfbQjCIQF7K4VHMFwIz1-1" vertex="1">
          <mxGeometry x="20" y="603" width="120" height="30" as="geometry" />
        </mxCell>
        <mxCell id="kfbQjCIQF7K4VHMFwIz1-97" value="PHC4" style="rounded=1;whiteSpace=wrap;html=1;fillColor=#e1d5e7;strokeColor=#9673a6;" parent="kfbQjCIQF7K4VHMFwIz1-1" vertex="1">
          <mxGeometry x="20" y="643" width="120" height="30" as="geometry" />
        </mxCell>
        <mxCell id="kfbQjCIQF7K4VHMFwIz1-98" value="Vizient" style="rounded=1;whiteSpace=wrap;html=1;fillColor=#fad9d5;strokeColor=#ae4132;" parent="kfbQjCIQF7K4VHMFwIz1-1" vertex="1">
          <mxGeometry x="20" y="683" width="120" height="30" as="geometry" />
        </mxCell>
        <mxCell id="kfbQjCIQF7K4VHMFwIz1-99" value="&lt;h1 style=&quot;margin-top: 0px;&quot;&gt;Pipeline Design&lt;/h1&gt;&lt;p data-end=&quot;242&quot; data-start=&quot;0&quot;&gt;Each product will be associated with a single notebook, which may generate multiple DLT pipelines within a single workflow. For instance, Epic will primarily use one notebook that iterates through products to create data flows in a single job. This single job may include:&lt;/p&gt;&lt;ol data-is-last-node=&quot;&quot; data-end=&quot;346&quot; data-start=&quot;244&quot;&gt;&lt;li data-end=&quot;274&quot; data-start=&quot;244&quot;&gt;A pipeline for encounters&lt;/li&gt;&lt;li data-end=&quot;315&quot; data-start=&quot;275&quot;&gt;A pipeline for patient demographics&lt;/li&gt;&lt;li data-is-last-node=&quot;&quot; data-end=&quot;346&quot; data-start=&quot;316&quot;&gt;A pipeline for appointments&lt;/li&gt;&lt;li data-is-last-node=&quot;&quot; data-end=&quot;346&quot; data-start=&quot;316&quot;&gt;.....&lt;/li&gt;&lt;/ol&gt;" style="text;html=1;whiteSpace=wrap;overflow=hidden;rounded=0;" parent="kfbQjCIQF7K4VHMFwIz1-1" vertex="1">
          <mxGeometry x="10" y="940" width="320" height="190" as="geometry" />
        </mxCell>
        <mxCell id="kfbQjCIQF7K4VHMFwIz1-100" value="&lt;h1 style=&quot;margin-top: 0px;&quot;&gt;Care Convene&lt;/h1&gt;" style="text;html=1;whiteSpace=wrap;overflow=hidden;rounded=0;" parent="kfbQjCIQF7K4VHMFwIz1-1" vertex="1">
          <mxGeometry x="5" y="80" width="840" height="40" as="geometry" />
        </mxCell>
        <mxCell id="kfbQjCIQF7K4VHMFwIz1-101" style="edgeStyle=orthogonalEdgeStyle;rounded=0;orthogonalLoop=1;jettySize=auto;html=1;entryX=0.531;entryY=1.005;entryDx=0;entryDy=0;entryPerimeter=0;flowAnimation=1;strokeWidth=3;fillColor=#dae8fc;strokeColor=#6c8ebf;" parent="kfbQjCIQF7K4VHMFwIz1-1" source="kfbQjCIQF7K4VHMFwIz1-93" target="kfbQjCIQF7K4VHMFwIz1-3" edge="1">
          <mxGeometry relative="1" as="geometry" />
        </mxCell>
        <mxCell id="kfbQjCIQF7K4VHMFwIz1-102" value="Landing Zone" style="text;html=1;align=center;verticalAlign=middle;resizable=0;points=[];autosize=1;strokeColor=none;fillColor=none;" parent="kfbQjCIQF7K4VHMFwIz1-1" vertex="1">
          <mxGeometry x="500" y="339" width="100" height="30" as="geometry" />
        </mxCell>
        <mxCell id="kfbQjCIQF7K4VHMFwIz1-103" value="DBX&lt;br&gt;Bronze" style="shape=cylinder3;whiteSpace=wrap;html=1;boundedLbl=1;backgroundOutline=1;size=15;fillColor=light-dark(#CD7F32,var(--ge-dark-color, #121212));" parent="kfbQjCIQF7K4VHMFwIz1-1" vertex="1">
          <mxGeometry x="665.0041176470588" y="569" width="47.05882352941177" height="74" as="geometry" />
        </mxCell>
        <mxCell id="kfbQjCIQF7K4VHMFwIz1-104" value="DBX&lt;br&gt;Silver" style="shape=cylinder3;whiteSpace=wrap;html=1;boundedLbl=1;backgroundOutline=1;size=15;fillColor=light-dark(#C0C0C0,var(--ge-dark-color, #121212));" parent="kfbQjCIQF7K4VHMFwIz1-1" vertex="1">
          <mxGeometry x="665.0088235294118" y="664" width="47.05882352941177" height="74" as="geometry" />
        </mxCell>
        <mxCell id="kfbQjCIQF7K4VHMFwIz1-105" value="DBX&lt;br&gt;Gold" style="shape=cylinder3;whiteSpace=wrap;html=1;boundedLbl=1;backgroundOutline=1;size=15;fillColor=light-dark(#FFD700,var(--ge-dark-color, #121212));" parent="kfbQjCIQF7K4VHMFwIz1-1" vertex="1">
          <mxGeometry x="665.005294117647" y="760" width="47.05882352941177" height="74" as="geometry" />
        </mxCell>
        <mxCell id="kfbQjCIQF7K4VHMFwIz1-106" value="&lt;b&gt;&amp;nbsp;&amp;nbsp;&lt;/b&gt;&lt;div&gt;&lt;b&gt;Bronze - Raw Data&lt;/b&gt;&lt;div&gt;&lt;ol&gt;&lt;li&gt;Append only&lt;/li&gt;&lt;li&gt;No Augmentation&lt;/li&gt;&lt;li&gt;No Transformation&lt;/li&gt;&lt;/ol&gt;&lt;/div&gt;&lt;/div&gt;" style="text;html=1;align=left;verticalAlign=middle;whiteSpace=wrap;rounded=1;strokeColor=default;" parent="kfbQjCIQF7K4VHMFwIz1-1" vertex="1">
          <mxGeometry x="720" y="569" width="210" height="80" as="geometry" />
        </mxCell>
        <mxCell id="kfbQjCIQF7K4VHMFwIz1-107" value="&lt;b&gt;&amp;nbsp;&amp;nbsp;&lt;/b&gt;&lt;div&gt;&lt;b&gt;Silver - Augmented Data&lt;/b&gt;&lt;div&gt;&lt;ol&gt;&lt;li&gt;Transformations&lt;/li&gt;&lt;li&gt;Augmentations&lt;/li&gt;&lt;li&gt;De-Duplication...&lt;/li&gt;&lt;/ol&gt;&lt;/div&gt;&lt;/div&gt;" style="text;html=1;align=left;verticalAlign=middle;whiteSpace=wrap;rounded=1;strokeColor=default;" parent="kfbQjCIQF7K4VHMFwIz1-1" vertex="1">
          <mxGeometry x="720" y="658" width="210" height="80" as="geometry" />
        </mxCell>
        <mxCell id="kfbQjCIQF7K4VHMFwIz1-108" value="&lt;b&gt;&amp;nbsp;&amp;nbsp;&lt;/b&gt;&lt;div&gt;&lt;b&gt;Gold - Report / ML Ready&lt;/b&gt;&lt;div&gt;&lt;ol&gt;&lt;li&gt;&lt;span style=&quot;background-color: transparent; color: light-dark(rgb(0, 0, 0), rgb(255, 255, 255));&quot;&gt;Final Data Set&lt;/span&gt;&lt;/li&gt;&lt;li&gt;&lt;span style=&quot;background-color: transparent; color: light-dark(rgb(0, 0, 0), rgb(255, 255, 255));&quot;&gt;Used in Powerbi/Tableau&lt;/span&gt;&lt;/li&gt;&lt;li&gt;Used in ML models&amp;nbsp;&lt;/li&gt;&lt;/ol&gt;&lt;/div&gt;&lt;/div&gt;" style="text;html=1;align=left;verticalAlign=middle;whiteSpace=wrap;rounded=1;strokeColor=default;" parent="kfbQjCIQF7K4VHMFwIz1-1" vertex="1">
          <mxGeometry x="720" y="750" width="210" height="80" as="geometry" />
        </mxCell>
        <mxCell id="i_saEMdPfAjvepuv0N_H-0" value="" style="group" parent="kfbQjCIQF7K4VHMFwIz1-1" vertex="1" connectable="0">
          <mxGeometry x="10" y="110" width="180" height="89.31" as="geometry" />
        </mxCell>
        <mxCell id="i_saEMdPfAjvepuv0N_H-1" value="" style="rounded=1;whiteSpace=wrap;html=1;absoluteArcSize=1;arcSize=14;strokeWidth=2;fillColor=#eeeeee;strokeColor=#36393d;opacity=40;" parent="i_saEMdPfAjvepuv0N_H-0" vertex="1">
          <mxGeometry y="20" width="180" height="66" as="geometry" />
        </mxCell>
        <mxCell id="i_saEMdPfAjvepuv0N_H-2" value="Streaming" style="text;html=1;align=center;verticalAlign=middle;resizable=0;points=[];autosize=1;strokeColor=none;fillColor=none;" parent="i_saEMdPfAjvepuv0N_H-0" vertex="1">
          <mxGeometry y="19.999310344827585" width="80" height="30" as="geometry" />
        </mxCell>
        <mxCell id="i_saEMdPfAjvepuv0N_H-3" value="Twillio" style="rounded=1;whiteSpace=wrap;html=1;aspect=fixed;fillColor=#d5e8d4;strokeColor=#82b366;" parent="i_saEMdPfAjvepuv0N_H-0" vertex="1">
          <mxGeometry x="10" y="50" width="120" height="30" as="geometry" />
        </mxCell>
        <mxCell id="i_saEMdPfAjvepuv0N_H-6" value="Event Hub / Kafka Compatible" style="whiteSpace=wrap;html=1;fillColor=#dae8fc;strokeColor=#6c8ebf;" parent="kfbQjCIQF7K4VHMFwIz1-1" vertex="1">
          <mxGeometry x="474" y="226" width="110" height="60" as="geometry" />
        </mxCell>
        <mxCell id="i_saEMdPfAjvepuv0N_H-8" style="edgeStyle=orthogonalEdgeStyle;rounded=0;orthogonalLoop=1;jettySize=auto;html=1;entryX=0.009;entryY=0.55;entryDx=0;entryDy=0;entryPerimeter=0;flowAnimation=1;strokeWidth=3;strokeColor=#33FF33;" parent="kfbQjCIQF7K4VHMFwIz1-1" source="i_saEMdPfAjvepuv0N_H-1" target="i_saEMdPfAjvepuv0N_H-6" edge="1">
          <mxGeometry relative="1" as="geometry" />
        </mxCell>
        <mxCell id="i_saEMdPfAjvepuv0N_H-10" value="Webhook" style="edgeLabel;html=1;align=center;verticalAlign=middle;resizable=0;points=[];" parent="i_saEMdPfAjvepuv0N_H-8" vertex="1" connectable="0">
          <mxGeometry x="-0.6063" y="2" relative="1" as="geometry">
            <mxPoint as="offset" />
          </mxGeometry>
        </mxCell>
        <mxCell id="i_saEMdPfAjvepuv0N_H-9" style="edgeStyle=orthogonalEdgeStyle;rounded=0;orthogonalLoop=1;jettySize=auto;html=1;entryX=0;entryY=0.5;entryDx=0;entryDy=0;entryPerimeter=0;strokeWidth=3;flowAnimation=1;fillColor=#d5e8d4;strokeColor=#33FF33;" parent="kfbQjCIQF7K4VHMFwIz1-1" source="i_saEMdPfAjvepuv0N_H-6" target="kfbQjCIQF7K4VHMFwIz1-17" edge="1">
          <mxGeometry relative="1" as="geometry" />
        </mxCell>
        <mxCell id="i_saEMdPfAjvepuv0N_H-11" value="Payer Files" style="rounded=1;whiteSpace=wrap;html=1;fillColor=#ffe6cc;strokeColor=#d79b00;" parent="kfbQjCIQF7K4VHMFwIz1-1" vertex="1">
          <mxGeometry x="20" y="720" width="120" height="30" as="geometry" />
        </mxCell>
      </root>
    </mxGraphModel>
  </diagram>
  <diagram id="yau6IgXVpMvFwbCtLePB" name="Bundle Diagram">
    <mxGraphModel dx="717" dy="427" grid="1" gridSize="10" guides="1" tooltips="1" connect="1" arrows="1" fold="1" page="1" pageScale="1" pageWidth="850" pageHeight="1100" math="0" shadow="0">
      <root>
        <mxCell id="0" />
        <mxCell id="1" parent="0" />
        <mxCell id="1Mxo7AS_jPNURxvVVyut-8" value="" style="rounded=1;whiteSpace=wrap;html=1;fillColor=#f5f5f5;strokeColor=#666666;fontColor=#333333;" parent="1" vertex="1">
          <mxGeometry x="220" y="670" width="460" height="250" as="geometry" />
        </mxCell>
        <mxCell id="ZLnr55dBo6gze9UaGNAm-2" value="" style="group;fillColor=#fff2cc;strokeColor=#d6b656;" parent="1" vertex="1" connectable="0">
          <mxGeometry x="225" y="409" width="480" height="160" as="geometry" />
        </mxCell>
        <mxCell id="ZLnr55dBo6gze9UaGNAm-3" value="" style="rounded=1;whiteSpace=wrap;html=1;absoluteArcSize=1;arcSize=14;strokeWidth=2;fillColor=#eeeeee;strokeColor=#36393d;" parent="ZLnr55dBo6gze9UaGNAm-2" vertex="1">
          <mxGeometry y="1" width="480" height="160" as="geometry" />
        </mxCell>
        <mxCell id="ZLnr55dBo6gze9UaGNAm-4" style="edgeStyle=orthogonalEdgeStyle;rounded=0;orthogonalLoop=1;jettySize=auto;html=1;flowAnimation=1;" parent="ZLnr55dBo6gze9UaGNAm-2" source="ZLnr55dBo6gze9UaGNAm-5" target="ZLnr55dBo6gze9UaGNAm-7" edge="1">
          <mxGeometry relative="1" as="geometry" />
        </mxCell>
        <mxCell id="ZLnr55dBo6gze9UaGNAm-5" value="DBX&lt;br&gt;Bronze" style="shape=cylinder3;whiteSpace=wrap;html=1;boundedLbl=1;backgroundOutline=1;size=15;fillColor=light-dark(#CD7F32,var(--ge-dark-color, #121212));" parent="ZLnr55dBo6gze9UaGNAm-2" vertex="1">
          <mxGeometry x="170.00411764705882" y="52.2093023255814" width="47.05882352941177" height="68" as="geometry" />
        </mxCell>
        <mxCell id="ZLnr55dBo6gze9UaGNAm-6" style="edgeStyle=orthogonalEdgeStyle;rounded=0;orthogonalLoop=1;jettySize=auto;html=1;flowAnimation=1;" parent="ZLnr55dBo6gze9UaGNAm-2" source="ZLnr55dBo6gze9UaGNAm-7" target="ZLnr55dBo6gze9UaGNAm-8" edge="1">
          <mxGeometry relative="1" as="geometry" />
        </mxCell>
        <mxCell id="ZLnr55dBo6gze9UaGNAm-7" value="DBX&lt;br&gt;Silver" style="shape=cylinder3;whiteSpace=wrap;html=1;boundedLbl=1;backgroundOutline=1;size=15;fillColor=light-dark(#C0C0C0,var(--ge-dark-color, #121212));" parent="ZLnr55dBo6gze9UaGNAm-2" vertex="1">
          <mxGeometry x="289.99882352941177" y="52.2093023255814" width="47.05882352941177" height="68" as="geometry" />
        </mxCell>
        <mxCell id="ZLnr55dBo6gze9UaGNAm-8" value="DBX&lt;br&gt;Gold" style="shape=cylinder3;whiteSpace=wrap;html=1;boundedLbl=1;backgroundOutline=1;size=15;fillColor=light-dark(#FFD700,var(--ge-dark-color, #121212));" parent="ZLnr55dBo6gze9UaGNAm-2" vertex="1">
          <mxGeometry x="412.945294117647" y="52.2093023255814" width="47.05882352941177" height="68" as="geometry" />
        </mxCell>
        <mxCell id="ZLnr55dBo6gze9UaGNAm-9" value="Incoming Files From Storage&lt;br&gt;&lt;div style=&quot;text-align: left;&quot;&gt;&lt;span style=&quot;font-size: 9px; background-color: transparent; color: light-dark(rgb(0, 0, 0), rgb(255, 255, 255));&quot;&gt;Avoid individual mounting&lt;/span&gt;&lt;/div&gt;" style="text;html=1;align=center;verticalAlign=middle;resizable=0;points=[];autosize=1;strokeColor=none;fillColor=none;" parent="ZLnr55dBo6gze9UaGNAm-2" vertex="1">
          <mxGeometry x="-5" y="-2.5193798449612403" width="180" height="40" as="geometry" />
        </mxCell>
        <mxCell id="ZLnr55dBo6gze9UaGNAm-10" value="&lt;font style=&quot;font-size: 9px;&quot;&gt;Unity Catalog&lt;br&gt;External Data Point&lt;/font&gt;" style="shape=parallelogram;perimeter=parallelogramPerimeter;whiteSpace=wrap;html=1;fixedSize=1;fillColor=#d5e8d4;strokeColor=#82b366;" parent="ZLnr55dBo6gze9UaGNAm-2" vertex="1">
          <mxGeometry x="10" y="58" width="120" height="58" as="geometry" />
        </mxCell>
        <mxCell id="ZLnr55dBo6gze9UaGNAm-11" style="edgeStyle=orthogonalEdgeStyle;rounded=0;orthogonalLoop=1;jettySize=auto;html=1;entryX=0;entryY=0.57;entryDx=0;entryDy=0;entryPerimeter=0;flowAnimation=1;" parent="ZLnr55dBo6gze9UaGNAm-2" source="ZLnr55dBo6gze9UaGNAm-10" edge="1">
          <mxGeometry relative="1" as="geometry">
            <mxPoint x="170.00411764705882" y="86.96930232558134" as="targetPoint" />
          </mxGeometry>
        </mxCell>
        <mxCell id="ZLnr55dBo6gze9UaGNAm-12" value="&lt;font style=&quot;font-size: 8px;&quot;&gt;Auto Loader&lt;/font&gt;" style="text;html=1;align=center;verticalAlign=middle;whiteSpace=wrap;rounded=0;strokeWidth=1;" parent="ZLnr55dBo6gze9UaGNAm-2" vertex="1">
          <mxGeometry x="113" y="80" width="60" height="30" as="geometry" />
        </mxCell>
        <mxCell id="ZLnr55dBo6gze9UaGNAm-13" value="S3 Storage Bucket" style="whiteSpace=wrap;html=1;fillColor=#dae8fc;strokeColor=#6c8ebf;" parent="1" vertex="1">
          <mxGeometry x="45" y="461" width="110" height="60" as="geometry" />
        </mxCell>
        <mxCell id="ZLnr55dBo6gze9UaGNAm-14" style="edgeStyle=orthogonalEdgeStyle;rounded=0;orthogonalLoop=1;jettySize=auto;html=1;entryX=0.005;entryY=0.503;entryDx=0;entryDy=0;entryPerimeter=0;flowAnimation=1;" parent="1" source="ZLnr55dBo6gze9UaGNAm-13" target="ZLnr55dBo6gze9UaGNAm-3" edge="1">
          <mxGeometry relative="1" as="geometry" />
        </mxCell>
        <mxCell id="ZLnr55dBo6gze9UaGNAm-15" value="Landing Zones" style="text;html=1;align=center;verticalAlign=middle;resizable=0;points=[];autosize=1;strokeColor=none;fillColor=none;" parent="1" vertex="1">
          <mxGeometry x="45" y="420" width="100" height="30" as="geometry" />
        </mxCell>
        <mxCell id="ZLnr55dBo6gze9UaGNAm-16" value="Databricks Bundles" style="whiteSpace=wrap;html=1;" parent="1" vertex="1">
          <mxGeometry x="30" y="350" width="120" height="60" as="geometry" />
        </mxCell>
        <mxCell id="_HdGjx9GChKukAOGPHgp-1" value="&lt;span data-lucid-content=&quot;{&amp;quot;t&amp;quot;:&amp;quot;Ingest &amp;amp; Transform: Delta Live Tables | Orchestration: Databricks Workflows&amp;quot;,&amp;quot;m&amp;quot;:[{&amp;quot;s&amp;quot;:0,&amp;quot;n&amp;quot;:&amp;quot;b&amp;quot;,&amp;quot;v&amp;quot;:true,&amp;quot;e&amp;quot;:19},{&amp;quot;s&amp;quot;:0,&amp;quot;n&amp;quot;:&amp;quot;c&amp;quot;,&amp;quot;v&amp;quot;:&amp;quot;#000000ff&amp;quot;,&amp;quot;e&amp;quot;:75},{&amp;quot;s&amp;quot;:0,&amp;quot;n&amp;quot;:&amp;quot;fc&amp;quot;,&amp;quot;v&amp;quot;:&amp;quot;Bold&amp;quot;,&amp;quot;e&amp;quot;:19},{&amp;quot;s&amp;quot;:0,&amp;quot;n&amp;quot;:&amp;quot;fid&amp;quot;,&amp;quot;v&amp;quot;:947014,&amp;quot;e&amp;quot;:19},{&amp;quot;s&amp;quot;:0,&amp;quot;n&amp;quot;:&amp;quot;fsp&amp;quot;,&amp;quot;v&amp;quot;:&amp;quot;ss_presetShapeStyle1_textStyle&amp;quot;,&amp;quot;e&amp;quot;:75},{&amp;quot;s&amp;quot;:0,&amp;quot;n&amp;quot;:&amp;quot;s&amp;quot;,&amp;quot;v&amp;quot;:22.22222222222222,&amp;quot;e&amp;quot;:75},{&amp;quot;s&amp;quot;:40,&amp;quot;n&amp;quot;:&amp;quot;b&amp;quot;,&amp;quot;v&amp;quot;:true,&amp;quot;e&amp;quot;:53},{&amp;quot;s&amp;quot;:40,&amp;quot;n&amp;quot;:&amp;quot;fc&amp;quot;,&amp;quot;v&amp;quot;:&amp;quot;Bold&amp;quot;,&amp;quot;e&amp;quot;:53},{&amp;quot;s&amp;quot;:40,&amp;quot;n&amp;quot;:&amp;quot;fid&amp;quot;,&amp;quot;v&amp;quot;:947014,&amp;quot;e&amp;quot;:53}]}&quot; data-lucid-type=&quot;application/vnd.lucid.text&quot;&gt;&lt;font style=&quot;font-size: 11px;&quot;&gt;&lt;span style=&quot;font-weight: bold;&quot;&gt;Ingest &amp;amp; Transform:&lt;/span&gt; Delta Live Tables | &lt;span style=&quot;font-weight: bold;&quot;&gt;Orchestration&lt;/span&gt;: Databricks Workflows&lt;/font&gt;&lt;/span&gt;" style="rounded=1;whiteSpace=wrap;html=1;absoluteArcSize=1;arcSize=14;strokeWidth=2;fillColor=#eeeeee;strokeColor=#36393d;" parent="1" vertex="1">
          <mxGeometry x="225" y="360" width="480" height="40" as="geometry" />
        </mxCell>
        <mxCell id="1Mxo7AS_jPNURxvVVyut-1" value="&lt;span data-lucid-content=&quot;{&amp;quot;t&amp;quot;:&amp;quot;Data Quality &amp;amp; Governance: Unity Catalog and Data.World&amp;quot;,&amp;quot;m&amp;quot;:[{&amp;quot;s&amp;quot;:0,&amp;quot;n&amp;quot;:&amp;quot;b&amp;quot;,&amp;quot;v&amp;quot;:true,&amp;quot;e&amp;quot;:27},{&amp;quot;s&amp;quot;:0,&amp;quot;n&amp;quot;:&amp;quot;c&amp;quot;,&amp;quot;v&amp;quot;:&amp;quot;#000000ff&amp;quot;,&amp;quot;e&amp;quot;:55},{&amp;quot;s&amp;quot;:0,&amp;quot;n&amp;quot;:&amp;quot;fc&amp;quot;,&amp;quot;v&amp;quot;:&amp;quot;Bold&amp;quot;,&amp;quot;e&amp;quot;:27},{&amp;quot;s&amp;quot;:0,&amp;quot;n&amp;quot;:&amp;quot;fid&amp;quot;,&amp;quot;v&amp;quot;:947014,&amp;quot;e&amp;quot;:27},{&amp;quot;s&amp;quot;:0,&amp;quot;n&amp;quot;:&amp;quot;fsp&amp;quot;,&amp;quot;v&amp;quot;:&amp;quot;ss_presetShapeStyle1_textStyle&amp;quot;,&amp;quot;e&amp;quot;:55},{&amp;quot;s&amp;quot;:0,&amp;quot;n&amp;quot;:&amp;quot;s&amp;quot;,&amp;quot;v&amp;quot;:22.22222222222222,&amp;quot;e&amp;quot;:55},{&amp;quot;s&amp;quot;:27,&amp;quot;n&amp;quot;:&amp;quot;fc&amp;quot;,&amp;quot;v&amp;quot;:&amp;quot;Regular&amp;quot;,&amp;quot;e&amp;quot;:55},{&amp;quot;s&amp;quot;:27,&amp;quot;n&amp;quot;:&amp;quot;fid&amp;quot;,&amp;quot;v&amp;quot;:947029,&amp;quot;e&amp;quot;:55}]}&quot; data-lucid-type=&quot;application/vnd.lucid.text&quot;&gt;&lt;font style=&quot;font-size: 11px;&quot;&gt;&lt;span style=&quot;font-weight: bold;&quot;&gt;Data Quality &amp;amp; Governance: &lt;/span&gt;Unity Catalog and Data.World&lt;/font&gt;&lt;/span&gt;" style="rounded=1;whiteSpace=wrap;html=1;absoluteArcSize=1;arcSize=14;strokeWidth=2;fillColor=#eeeeee;strokeColor=#36393d;" parent="1" vertex="1">
          <mxGeometry x="225" y="580" width="480" height="40" as="geometry" />
        </mxCell>
        <mxCell id="1Mxo7AS_jPNURxvVVyut-2" value="Notebooks" style="rounded=1;whiteSpace=wrap;html=1;fillColor=#dae8fc;strokeColor=#6c8ebf;" parent="1" vertex="1">
          <mxGeometry x="240" y="690" width="120" height="60" as="geometry" />
        </mxCell>
        <mxCell id="1Mxo7AS_jPNURxvVVyut-3" value="DLT Pipelines" style="rounded=1;whiteSpace=wrap;html=1;fillColor=#d5e8d4;strokeColor=#82b366;" parent="1" vertex="1">
          <mxGeometry x="240" y="760" width="120" height="60" as="geometry" />
        </mxCell>
        <mxCell id="1Mxo7AS_jPNURxvVVyut-4" value="Schedules and Triggers" style="rounded=1;whiteSpace=wrap;html=1;fillColor=#fff2cc;strokeColor=#d6b656;" parent="1" vertex="1">
          <mxGeometry x="380" y="760" width="120" height="60" as="geometry" />
        </mxCell>
        <mxCell id="1Mxo7AS_jPNURxvVVyut-5" value="Workflow Jobs" style="rounded=1;whiteSpace=wrap;html=1;fillColor=#ffe6cc;strokeColor=#d79b00;" parent="1" vertex="1">
          <mxGeometry x="380" y="690" width="120" height="60" as="geometry" />
        </mxCell>
        <mxCell id="1Mxo7AS_jPNURxvVVyut-6" value="Metadata" style="rounded=1;whiteSpace=wrap;html=1;fillColor=#e1d5e7;strokeColor=#9673a6;" parent="1" vertex="1">
          <mxGeometry x="520" y="690" width="120" height="60" as="geometry" />
        </mxCell>
        <mxCell id="1Mxo7AS_jPNURxvVVyut-11" value="Clusters" style="rounded=1;whiteSpace=wrap;html=1;fillColor=#e1d5e7;strokeColor=#9673a6;" parent="1" vertex="1">
          <mxGeometry x="520" y="760" width="120" height="60" as="geometry" />
        </mxCell>
        <mxCell id="1Mxo7AS_jPNURxvVVyut-12" value="A Databricks bundle can usher all these optional resources and more from one environment to the next upon a external action for example a push from Dev to Test, or Test to production via YAML commands.&amp;nbsp;" style="rounded=1;whiteSpace=wrap;html=1;" parent="1" vertex="1">
          <mxGeometry x="250" y="840" width="390" height="60" as="geometry" />
        </mxCell>
        <mxCell id="1Mxo7AS_jPNURxvVVyut-13" value="Databricks Bundle:" style="text;html=1;align=center;verticalAlign=middle;resizable=0;points=[];autosize=1;strokeColor=none;fillColor=none;" parent="1" vertex="1">
          <mxGeometry x="220" y="640" width="120" height="30" as="geometry" />
        </mxCell>
        <mxCell id="1Mxo7AS_jPNURxvVVyut-19" value="" style="edgeStyle=orthogonalEdgeStyle;rounded=0;orthogonalLoop=1;jettySize=auto;html=1;flowAnimation=1;" parent="1" source="1Mxo7AS_jPNURxvVVyut-16" target="1Mxo7AS_jPNURxvVVyut-18" edge="1">
          <mxGeometry relative="1" as="geometry" />
        </mxCell>
        <mxCell id="1Mxo7AS_jPNURxvVVyut-24" style="edgeStyle=orthogonalEdgeStyle;rounded=0;orthogonalLoop=1;jettySize=auto;html=1;entryX=0.5;entryY=1;entryDx=0;entryDy=0;fillColor=#d5e8d4;strokeColor=#82b366;strokeWidth=2;" parent="1" source="1Mxo7AS_jPNURxvVVyut-16" target="1Mxo7AS_jPNURxvVVyut-18" edge="1">
          <mxGeometry relative="1" as="geometry">
            <Array as="points">
              <mxPoint x="250" y="1050" />
              <mxPoint x="450" y="1050" />
            </Array>
          </mxGeometry>
        </mxCell>
        <mxCell id="1Mxo7AS_jPNURxvVVyut-26" value="Databricks Bundle&lt;br&gt;YAML Action" style="edgeLabel;html=1;align=center;verticalAlign=middle;resizable=0;points=[];" parent="1Mxo7AS_jPNURxvVVyut-24" vertex="1" connectable="0">
          <mxGeometry x="-0.0222" y="1" relative="1" as="geometry">
            <mxPoint as="offset" />
          </mxGeometry>
        </mxCell>
        <mxCell id="1Mxo7AS_jPNURxvVVyut-16" value="&lt;font style=&quot;font-size: 11px;&quot;&gt;Development environment updates pushed to a &lt;b&gt;Development Branch&lt;/b&gt;&lt;/font&gt;" style="rounded=1;whiteSpace=wrap;html=1;fillColor=light-dark(#CD7F32,#000000);" parent="1" vertex="1">
          <mxGeometry x="190" y="970" width="120" height="60" as="geometry" />
        </mxCell>
        <mxCell id="1Mxo7AS_jPNURxvVVyut-21" value="" style="edgeStyle=orthogonalEdgeStyle;rounded=0;orthogonalLoop=1;jettySize=auto;html=1;flowAnimation=1;" parent="1" source="1Mxo7AS_jPNURxvVVyut-18" target="1Mxo7AS_jPNURxvVVyut-20" edge="1">
          <mxGeometry relative="1" as="geometry" />
        </mxCell>
        <mxCell id="1Mxo7AS_jPNURxvVVyut-25" style="edgeStyle=orthogonalEdgeStyle;rounded=0;orthogonalLoop=1;jettySize=auto;html=1;entryX=0.5;entryY=0;entryDx=0;entryDy=0;strokeWidth=2;fillColor=#d5e8d4;strokeColor=#82b366;" parent="1" source="1Mxo7AS_jPNURxvVVyut-18" target="1Mxo7AS_jPNURxvVVyut-20" edge="1">
          <mxGeometry relative="1" as="geometry">
            <Array as="points">
              <mxPoint x="450" y="950" />
              <mxPoint x="650" y="950" />
            </Array>
          </mxGeometry>
        </mxCell>
        <mxCell id="1Mxo7AS_jPNURxvVVyut-27" value="Databricks Bundle&lt;br&gt;YAML Action" style="edgeLabel;html=1;align=center;verticalAlign=middle;resizable=0;points=[];" parent="1Mxo7AS_jPNURxvVVyut-25" vertex="1" connectable="0">
          <mxGeometry relative="1" as="geometry">
            <mxPoint as="offset" />
          </mxGeometry>
        </mxCell>
        <mxCell id="1Mxo7AS_jPNURxvVVyut-18" value="&lt;font style=&quot;font-size: 11px;&quot;&gt;Development branch PR request into &lt;b&gt;Test Branch&lt;/b&gt;&lt;/font&gt;" style="whiteSpace=wrap;html=1;rounded=1;fillColor=light-dark(#C0C0C0,#000000);" parent="1" vertex="1">
          <mxGeometry x="390" y="970" width="120" height="60" as="geometry" />
        </mxCell>
        <mxCell id="1Mxo7AS_jPNURxvVVyut-20" value="&lt;font style=&quot;font-size: 11px;&quot;&gt;Test Branch PR request into &lt;b&gt;Main Branch (Production)&lt;/b&gt;&lt;/font&gt;" style="whiteSpace=wrap;html=1;rounded=1;fillColor=light-dark(#FFD700,#000000);" parent="1" vertex="1">
          <mxGeometry x="590" y="970" width="120" height="60" as="geometry" />
        </mxCell>
        <mxCell id="1Mxo7AS_jPNURxvVVyut-36" style="edgeStyle=orthogonalEdgeStyle;rounded=0;orthogonalLoop=1;jettySize=auto;html=1;" parent="1" source="1Mxo7AS_jPNURxvVVyut-30" target="1Mxo7AS_jPNURxvVVyut-34" edge="1">
          <mxGeometry relative="1" as="geometry" />
        </mxCell>
        <mxCell id="1Mxo7AS_jPNURxvVVyut-38" value="Git Action" style="edgeLabel;html=1;align=center;verticalAlign=middle;resizable=0;points=[];" parent="1Mxo7AS_jPNURxvVVyut-36" vertex="1" connectable="0">
          <mxGeometry x="-0.1429" y="1" relative="1" as="geometry">
            <mxPoint as="offset" />
          </mxGeometry>
        </mxCell>
        <mxCell id="1Mxo7AS_jPNURxvVVyut-30" value="&lt;font style=&quot;font-size: 8px;&quot;&gt;Bundle is created in the Dev Workspace&lt;/font&gt;" style="text;html=1;align=center;verticalAlign=middle;whiteSpace=wrap;rounded=0;" parent="1" vertex="1">
          <mxGeometry x="190" y="1060" width="120" height="30" as="geometry" />
        </mxCell>
        <mxCell id="1Mxo7AS_jPNURxvVVyut-37" style="edgeStyle=orthogonalEdgeStyle;rounded=0;orthogonalLoop=1;jettySize=auto;html=1;" parent="1" source="1Mxo7AS_jPNURxvVVyut-34" target="1Mxo7AS_jPNURxvVVyut-35" edge="1">
          <mxGeometry relative="1" as="geometry" />
        </mxCell>
        <mxCell id="1Mxo7AS_jPNURxvVVyut-39" value="Git Action" style="edgeLabel;html=1;align=center;verticalAlign=middle;resizable=0;points=[];" parent="1Mxo7AS_jPNURxvVVyut-37" vertex="1" connectable="0">
          <mxGeometry x="0.0084" relative="1" as="geometry">
            <mxPoint as="offset" />
          </mxGeometry>
        </mxCell>
        <mxCell id="1Mxo7AS_jPNURxvVVyut-34" value="&lt;font style=&quot;font-size: 8px;&quot;&gt;YAML pushes Bundle to the&amp;nbsp;&lt;br&gt;Test workspace&lt;/font&gt;" style="text;html=1;align=center;verticalAlign=middle;whiteSpace=wrap;rounded=0;" parent="1" vertex="1">
          <mxGeometry x="385" y="1060" width="120" height="30" as="geometry" />
        </mxCell>
        <mxCell id="1Mxo7AS_jPNURxvVVyut-35" value="&lt;font style=&quot;font-size: 8px;&quot;&gt;YAML pushes Bundle to the&amp;nbsp;&lt;br&gt;Prod Workspace&lt;/font&gt;" style="text;html=1;align=center;verticalAlign=middle;whiteSpace=wrap;rounded=0;" parent="1" vertex="1">
          <mxGeometry x="590" y="1060" width="120" height="30" as="geometry" />
        </mxCell>
        <mxCell id="jcRaHkQVaHHh6T65vVJc-1" value="" style="html=1;verticalLabelPosition=bottom;align=center;labelBackgroundColor=#ffffff;verticalAlign=top;strokeWidth=2;strokeColor=#0080F0;shadow=0;dashed=0;shape=mxgraph.ios7.icons.home;" parent="1" vertex="1">
          <mxGeometry x="40" y="210" width="24" height="25.5" as="geometry" />
        </mxCell>
        <mxCell id="jcRaHkQVaHHh6T65vVJc-3" value="" style="rounded=1;whiteSpace=wrap;html=1;fillColor=#d5e8d4;strokeColor=#82b366;" parent="1" vertex="1">
          <mxGeometry x="80" y="206.38" width="680" height="32.75" as="geometry" />
        </mxCell>
        <mxCell id="jcRaHkQVaHHh6T65vVJc-2" value="" style="html=1;verticalLabelPosition=bottom;align=center;labelBackgroundColor=#ffffff;verticalAlign=top;strokeWidth=2;strokeColor=#0080F0;shadow=0;dashed=0;shape=mxgraph.ios7.icons.home;" parent="1" vertex="1">
          <mxGeometry x="770" y="210" width="24" height="25.5" as="geometry" />
        </mxCell>
        <mxCell id="jcRaHkQVaHHh6T65vVJc-4" value="" style="endArrow=none;dashed=1;html=1;dashPattern=1 3;strokeWidth=3;rounded=0;exitX=0;exitY=0.5;exitDx=0;exitDy=0;entryX=1;entryY=0.5;entryDx=0;entryDy=0;flowAnimation=1;" parent="1" source="jcRaHkQVaHHh6T65vVJc-8" target="jcRaHkQVaHHh6T65vVJc-3" edge="1">
          <mxGeometry width="50" height="50" relative="1" as="geometry">
            <mxPoint x="370" y="260" as="sourcePoint" />
            <mxPoint x="450" y="200" as="targetPoint" />
          </mxGeometry>
        </mxCell>
        <mxCell id="jcRaHkQVaHHh6T65vVJc-6" value="" style="shape=mxgraph.signs.food.food_truck;html=1;pointerEvents=1;fillColor=#d5e8d4;strokeColor=#82b366;verticalLabelPosition=bottom;verticalAlign=top;align=center;" parent="1" vertex="1">
          <mxGeometry x="92" y="156.38" width="98" height="50" as="geometry" />
        </mxCell>
        <mxCell id="jcRaHkQVaHHh6T65vVJc-7" value="" style="shape=flexArrow;endArrow=classic;html=1;rounded=0;fillColor=#d5e8d4;strokeColor=#82b366;" parent="1" edge="1">
          <mxGeometry width="50" height="50" relative="1" as="geometry">
            <mxPoint x="80" y="260" as="sourcePoint" />
            <mxPoint x="760" y="260" as="targetPoint" />
          </mxGeometry>
        </mxCell>
        <mxCell id="jcRaHkQVaHHh6T65vVJc-10" value="" style="endArrow=none;dashed=1;html=1;dashPattern=1 3;strokeWidth=3;rounded=0;exitX=0;exitY=0.5;exitDx=0;exitDy=0;entryX=1;entryY=0.5;entryDx=0;entryDy=0;flowAnimation=1;" parent="1" source="jcRaHkQVaHHh6T65vVJc-3" target="jcRaHkQVaHHh6T65vVJc-8" edge="1">
          <mxGeometry width="50" height="50" relative="1" as="geometry">
            <mxPoint x="80" y="223" as="sourcePoint" />
            <mxPoint x="760" y="223" as="targetPoint" />
          </mxGeometry>
        </mxCell>
        <mxCell id="jcRaHkQVaHHh6T65vVJc-8" value="CICD Pipeline = The Journey" style="rounded=1;align=left;fillColor=#d5e8d4;strokeColor=#82b366;html=1;fontSize=12;spacingLeft=26;" parent="1" vertex="1">
          <mxGeometry x="320" y="206.38" width="190" height="33" as="geometry" />
        </mxCell>
        <mxCell id="jcRaHkQVaHHh6T65vVJc-9" value="" style="shape=mxgraph.mscae.intune.subscription_portal;fillColor=#596780;strokeColor=none;fontColor=#ffffff;labelPosition=right;verticalLabelPosition=middle;align=left;verticalAlign=middle;html=1;whiteSpace=wrap;spacingLeft=5" parent="jcRaHkQVaHHh6T65vVJc-8" vertex="1">
          <mxGeometry y="0.5" width="12" height="12" relative="1" as="geometry">
            <mxPoint x="10" y="-6" as="offset" />
          </mxGeometry>
        </mxCell>
        <mxCell id="jcRaHkQVaHHh6T65vVJc-11" value="Truck = DBX Bundle" style="rounded=1;align=left;fillColor=#F1F2F4;strokeColor=none;html=1;fontColor=#596780;fontSize=12;spacingLeft=26;" parent="1" vertex="1">
          <mxGeometry x="70" y="120" width="150" height="33" as="geometry" />
        </mxCell>
        <mxCell id="jcRaHkQVaHHh6T65vVJc-12" value="" style="shape=mxgraph.mscae.intune.subscription_portal;fillColor=#596780;strokeColor=none;fontColor=#ffffff;labelPosition=right;verticalLabelPosition=middle;align=left;verticalAlign=middle;html=1;whiteSpace=wrap;spacingLeft=5" parent="jcRaHkQVaHHh6T65vVJc-11" vertex="1">
          <mxGeometry y="0.5" width="12" height="12" relative="1" as="geometry">
            <mxPoint x="10" y="-6" as="offset" />
          </mxGeometry>
        </mxCell>
        <mxCell id="jcRaHkQVaHHh6T65vVJc-17" value="GPS = YAML&amp;nbsp;" style="rounded=1;align=left;fillColor=#d5e8d4;strokeColor=#82b366;html=1;fontSize=12;spacingLeft=26;" parent="1" vertex="1">
          <mxGeometry x="320" y="156.38" width="170" height="43" as="geometry" />
        </mxCell>
        <mxCell id="jcRaHkQVaHHh6T65vVJc-18" value="" style="shape=mxgraph.mscae.intune.subscription_portal;fillColor=#596780;strokeColor=none;fontColor=#ffffff;labelPosition=right;verticalLabelPosition=middle;align=left;verticalAlign=middle;html=1;whiteSpace=wrap;spacingLeft=5" parent="jcRaHkQVaHHh6T65vVJc-17" vertex="1">
          <mxGeometry y="0.5" width="12" height="12" relative="1" as="geometry">
            <mxPoint x="10" y="-6" as="offset" />
          </mxGeometry>
        </mxCell>
        <mxCell id="jcRaHkQVaHHh6T65vVJc-16" value="" style="html=1;verticalLabelPosition=bottom;align=center;labelBackgroundColor=#ffffff;verticalAlign=top;strokeWidth=2;strokeColor=#0080F0;shadow=0;dashed=0;shape=mxgraph.ios7.icons.location_2;" parent="jcRaHkQVaHHh6T65vVJc-17" vertex="1">
          <mxGeometry x="122.06" y="6.5" width="30" height="30" as="geometry" />
        </mxCell>
        <mxCell id="jcRaHkQVaHHh6T65vVJc-20" value="Test" style="text;html=1;align=center;verticalAlign=middle;resizable=0;points=[];autosize=1;strokeColor=none;fillColor=none;" parent="1" vertex="1">
          <mxGeometry x="25" y="248" width="50" height="30" as="geometry" />
        </mxCell>
        <mxCell id="jcRaHkQVaHHh6T65vVJc-21" value="Prod" style="text;html=1;align=center;verticalAlign=middle;resizable=0;points=[];autosize=1;strokeColor=none;fillColor=none;" parent="1" vertex="1">
          <mxGeometry x="760" y="248" width="50" height="30" as="geometry" />
        </mxCell>
        <mxCell id="QNB6pw_deLvx59WLVnLS-1" value="Git" style="rounded=0;whiteSpace=wrap;html=1;fillColor=#d5e8d4;strokeColor=#82b366;" parent="1" vertex="1">
          <mxGeometry x="640" y="130" width="120" height="60" as="geometry" />
        </mxCell>
      </root>
    </mxGraphModel>
  </diagram>
</mxfile>
